<svg preserveAspectRatio="none" width="100%" height="100%" overflow="visible" style="display: block;" viewBox="0 0 19.6923 19.6923" fill="none" xmlns="http://www.w3.org/2000/svg">
<g id="IconMapPin">
<path id="Vector" fill-rule="evenodd" clip-rule="evenodd" d="M10.3315 17.8912L10.333 17.8902L10.3376 17.8868L10.3528 17.8755C10.3656 17.8659 10.3837 17.8523 10.4069 17.8346C10.453 17.7995 10.519 17.7485 10.6021 17.6827C10.768 17.551 11.0024 17.3595 11.2823 17.1149C11.8413 16.627 12.5879 15.9232 13.3368 15.0601C14.8075 13.3653 16.4094 10.9166 16.4094 8.20467C16.4094 4.57941 13.4706 1.64057 9.84529 1.64057C6.22004 1.64057 3.28119 4.57941 3.28119 8.20467C3.28119 10.9166 4.88304 13.3653 6.35377 15.0601C7.10268 15.9232 7.84931 16.627 8.40825 17.1149C8.68821 17.3595 8.92263 17.551 9.08853 17.6827C9.17157 17.7485 9.23762 17.7995 9.28373 17.8346C9.30687 17.8523 9.32501 17.8659 9.33781 17.8755L9.35298 17.8868L9.35758 17.8902L9.35963 17.8916L9.84529 18.2478L10.3315 17.8912ZM9.84349 10.256C10.9764 10.256 11.8948 9.33755 11.8948 8.20467C11.8948 7.07178 10.9764 6.15339 9.84349 6.15339C8.71061 6.15339 7.79221 7.07178 7.79221 8.20467C7.79221 9.33755 8.71061 10.256 9.84349 10.256Z" fill="var(--fill-0, white)"/>
</g>
</svg>
