<svg preserveAspectRatio="none" width="100%" height="100%" overflow="visible" style="display: block;" viewBox="0 0 34.4615 34.4615" fill="none" xmlns="http://www.w3.org/2000/svg">
<g id="IconWhatsapp">
<path id="Vector" fill-rule="evenodd" clip-rule="evenodd" d="M17.4467 2.87159C21.1165 2.89348 24.6366 4.33261 27.2709 6.88762C29.905 9.4427 31.4502 12.9167 31.5842 16.5841C31.6538 18.4617 31.3515 20.3351 30.6938 22.0949C30.036 23.8545 29.0357 25.4661 27.7519 26.8373C26.4676 28.2087 24.9243 29.3131 23.2114 30.085C21.4984 30.8568 19.6488 31.2821 17.7707 31.3357H17.364C15.229 31.3362 13.1203 30.8561 11.1956 29.9321L3.74685 31.5895H3.72581C3.71022 31.5894 3.6937 31.5862 3.67953 31.5798C3.66552 31.5732 3.65323 31.5634 3.64307 31.5516C3.63288 31.54 3.62511 31.5259 3.62063 31.511C3.61624 31.4962 3.6144 31.48 3.61642 31.4648L4.87565 23.9333C3.69052 21.7648 3.09037 19.3255 3.13406 16.8548C3.17784 14.3837 3.86381 11.966 5.12525 9.84074C6.38659 7.71566 8.17961 5.95574 10.3276 4.73377C12.4757 3.51182 14.9052 2.86981 17.3767 2.87159H17.4467ZM12.2851 10.2418C12.1546 10.2574 12.027 10.2932 11.9065 10.347C11.7458 10.4186 11.6003 10.5213 11.4802 10.6498C11.141 10.9977 10.1932 11.8352 10.1383 13.5931C10.0834 15.3503 11.3103 17.089 11.483 17.3344C11.6548 17.5782 13.8319 21.3766 17.4173 22.9167C19.5246 23.8245 20.4488 23.9796 21.0477 23.9796C21.2944 23.9796 21.4812 23.9547 21.6759 23.9431C22.333 23.9023 23.8148 23.1432 24.1383 22.3179C24.4617 21.4923 24.4829 20.7698 24.3976 20.6255C24.3125 20.481 24.0781 20.3769 23.7261 20.1921C23.3728 20.0067 21.6459 19.0837 21.3212 18.9539C21.201 18.8981 21.0718 18.8642 20.9397 18.8544C20.8536 18.8589 20.7685 18.8844 20.6943 18.9287C20.6204 18.9729 20.5583 19.0346 20.5135 19.1081C20.2249 19.4675 19.5621 20.2487 19.3398 20.474C19.2913 20.5298 19.2314 20.5743 19.1645 20.6058C19.0975 20.6371 19.0241 20.6549 18.95 20.6562C18.8136 20.6501 18.6797 20.6144 18.5587 20.5511C17.5122 20.1067 16.5582 19.469 15.7458 18.6735C14.9869 17.9254 14.3424 17.0695 13.8346 16.1327C13.6383 15.7688 13.8351 15.5807 14.0141 15.4104C14.1929 15.2401 14.3848 15.0054 14.5693 14.8019C14.721 14.628 14.8478 14.4333 14.9451 14.2241C14.9954 14.1272 15.0198 14.0192 15.0181 13.91C15.0163 13.8006 14.9875 13.6928 14.9339 13.5974C14.8481 13.4129 14.2131 11.6278 13.9145 10.9107C13.6721 10.2974 13.3832 10.276 13.1307 10.2572C12.9229 10.2428 12.6845 10.2364 12.4464 10.2292H12.4155L12.2851 10.2418Z" fill="var(--fill-0, white)"/>
</g>
</svg>
