<svg preserveAspectRatio="none" width="100%" height="100%" overflow="visible" style="display: block;" viewBox="0 0 20.7156 16.52" fill="none" xmlns="http://www.w3.org/2000/svg">
<path id="Vector" d="M19.7905 0L19.8796 0.0296165C19.9551 0.204307 19.9026 0.341593 19.8206 0.511564C18.4883 3.26596 18.1627 6.24431 17.6806 9.20584C18.7627 9.23658 19.6436 9.21593 20.7156 9.15215C19.676 10.0493 18.8831 10.2249 17.5856 10.3539C17.5237 11.9578 17.0186 13.7908 16.418 15.2758C16.3112 15.5387 15.7295 16.6752 15.3672 16.5022C15.2817 16.1422 15.7708 14.3369 15.8687 13.8306C16.1112 12.575 16.1791 11.5681 16.2221 10.2883C15.2433 10.266 13.5677 10.28 12.6614 10.1686C12.0608 11.756 11.377 13.0737 10.0336 14.1965C7.92546 15.9581 4.60137 16.3291 1.95401 16.0622C-0.321647 15.6752 -0.548801 13.706 0.956306 12.3509C3.57593 9.99233 8.8087 9.12684 12.1234 9.09564C12.2768 6.45976 12.1711 5.32277 11.6189 2.68891C11.8638 2.46814 12.7163 1.89723 13.0396 1.66159C13.5842 4.65534 13.4727 6.19534 12.9305 9.11274C14.0798 9.09056 15.2297 9.12802 16.3749 9.22496C16.4965 8.51133 16.5549 7.73109 16.6906 7.0151C17.1077 4.81027 18.05 1.55776 19.7905 0Z" fill="var(--fill-0, #FBFBFB)"/>
</svg>
