<svg preserveAspectRatio="none" width="100%" height="100%" overflow="visible" style="display: block;" viewBox="0 0 33.3994 30.0231" fill="none" xmlns="http://www.w3.org/2000/svg">
<g id="Frame 6">
<path id="Vector 3" d="M11.7158 27.4651L0 12.5508H11.7644L19.0694 22.1327C20.4608 23.9577 23.2057 23.9635 24.6047 22.1442L31.9818 12.5508H33.3761L21.6368 27.736C20.5217 29.1785 18.8013 30.0231 16.978 30.0231C14.9243 30.0231 12.9844 29.0801 11.7158 27.4651Z" fill="var(--fill-0, white)"/>
<path id="Subtract" d="M14.123 0.00390625C17.7093 0.00392256 21.1244 1.53831 23.5059 4.21973L24.9473 5.84277L27.4717 6.61328C29.1612 7.12884 30.6138 8.22681 31.5703 9.71191L33.3994 12.5527H25.4736C25.4734 10.7049 23.9748 9.20703 22.127 9.20703C20.2871 9.20729 18.7941 10.6924 18.7812 12.5293L11.7969 12.5527L2.22656 0.00390625H14.123ZM11.2812 2.92188L13.5576 5.76758H20.5283L20.5 5.73438C18.9123 3.94548 16.634 2.92188 14.2422 2.92188H11.2812Z" fill="var(--fill-0, white)"/>
</g>
</svg>
