<svg preserveAspectRatio="none" width="100%" height="100%" overflow="visible" style="display: block;" viewBox="0 0 32.1123 22" fill="none" xmlns="http://www.w3.org/2000/svg">
<path id="Union" d="M19.0322 20.7778C19.0322 21.4528 18.485 22 17.81 22H1.22222C0.547207 22 0 21.4528 0 20.7778V15.8892C0 15.2142 0.547208 14.667 1.22222 14.667H5.31782C5.99283 14.667 6.54004 14.1198 6.54004 13.4448V8.55523C6.54004 7.88022 7.08725 7.33301 7.76226 7.33301H11.8569C12.5319 7.33301 13.0791 6.7858 13.0791 6.11079V1.22222C13.0791 0.547208 13.6263 0 14.3013 0H30.8901C31.5651 0 32.1123 0.547208 32.1123 1.22222V6.11079C32.1123 6.7858 31.5651 7.33301 30.8901 7.33301H26.7945C26.1195 7.33301 25.5723 7.88022 25.5723 8.55523V13.4448C25.5723 14.1198 25.0251 14.667 24.35 14.667H20.2544C19.5794 14.667 19.0322 15.2142 19.0322 15.8892V20.7778Z" fill="var(--fill-0, white)"/>
</svg>
