<svg preserveAspectRatio="none" width="100%" height="100%" overflow="visible" style="display: block;" viewBox="0 0 17.3189 14.5017" fill="none" xmlns="http://www.w3.org/2000/svg">
<path id="Vector" d="M0.00770933 0C1.00324 0 1.99877 0 3.02447 0C3.02545 0.219803 3.02642 0.439606 3.02743 0.66607C3.03082 1.39576 3.03529 2.12544 3.04027 2.85512C3.04326 3.29712 3.04589 3.73913 3.04769 4.18114C3.04945 4.60843 3.05216 5.03571 3.05552 5.463C3.05663 5.62527 3.05741 5.78755 3.05783 5.94983C3.06245 7.56919 3.18163 9.15004 4.34011 10.4036C5.70752 11.6917 7.59791 11.7801 9.37076 11.7407C10.8029 11.6841 12.1787 11.2412 13.1903 10.186C13.9785 9.20335 14.2387 8.02481 14.2414 6.78869C14.242 6.71469 14.2427 6.64068 14.2434 6.56443C14.2455 6.32287 14.2466 6.08131 14.2478 5.83973C14.249 5.67104 14.2503 5.50235 14.2517 5.33366C14.2548 4.93695 14.2573 4.54024 14.2595 4.14352C14.2623 3.64686 14.2661 3.1502 14.2698 2.65354C14.2762 1.76903 14.2818 0.884519 14.287 0C15.2826 0 16.2781 0 17.3038 0C17.3068 0.94528 17.3093 1.89056 17.3107 2.83584C17.3114 3.27485 17.3124 3.71385 17.3139 4.15286C17.3154 4.5771 17.3162 5.00134 17.3165 5.42559C17.3168 5.58685 17.3172 5.74812 17.318 5.90938C17.3215 6.72299 17.3223 7.51105 17.1697 8.31285C17.1518 8.42698 17.1341 8.54115 17.1168 8.65538C16.9789 9.45182 16.7325 10.1417 16.3653 10.8603C16.3287 10.934 16.2921 11.0078 16.2545 11.0837C15.417 12.646 13.857 13.5735 12.2088 14.0782C12.0074 14.1354 11.8053 14.1864 11.6013 14.2332C11.5588 14.2431 11.5163 14.253 11.4725 14.2632C10.5053 14.4659 9.51906 14.5061 8.53425 14.5014C8.45099 14.5012 8.45099 14.5012 8.36606 14.501C7.51165 14.4974 6.67633 14.4708 5.84011 14.2793C5.75281 14.2594 5.75281 14.2594 5.66374 14.239C4.83984 14.0421 4.09474 13.7609 3.35966 13.3408C3.25985 13.285 3.25985 13.285 3.15802 13.2282C1.64015 12.3244 0.715397 10.7954 0.275866 9.11732C0.0754148 8.25148 -0.00318932 7.37928 9.86908e-05 6.49188C8.89011e-05 6.42115 7.91119e-05 6.35043 6.90252e-05 6.27756C0.000115293 6.04651 0.00063484 5.81546 0.00116254 5.58441C0.00128773 5.42314 0.00138309 5.26186 0.00144999 5.10059C0.00170474 4.67816 0.0023623 4.25573 0.00310612 3.8333C0.00379451 3.40142 0.00409865 2.96954 0.00443594 2.53767C0.00515278 1.69178 0.00633108 0.845889 0.00770933 0Z" fill="var(--fill-0, white)"/>
</svg>
