<svg preserveAspectRatio="none" width="100%" height="100%" overflow="visible" style="display: block;" viewBox="0 0 21.6 24" fill="none" xmlns="http://www.w3.org/2000/svg">
<g id="IconInstagram">
<path id="Vector" d="M9.41557 4.14633C11.913 4.14633 12.2089 4.15569 13.1954 4.20075C13.7883 4.20791 14.3758 4.31693 14.9318 4.52304C15.3381 4.67299 15.7057 4.91214 16.0075 5.22287C16.3182 5.52463 16.5574 5.8922 16.7073 6.29856C16.9134 6.85464 17.0224 7.44199 17.0296 8.03498C17.0747 9.02138 17.084 9.31731 17.084 11.8148C17.084 14.3123 17.0747 14.6081 17.0296 15.5946C17.0224 16.1876 16.9134 16.775 16.7073 17.331C16.5517 17.7345 16.3133 18.101 16.0075 18.4067C15.7017 18.7125 15.3353 18.9509 14.9318 19.1066C14.3758 19.3126 13.7883 19.4216 13.1954 19.4288C12.2089 19.4739 11.913 19.4833 9.41557 19.4833C6.91809 19.4833 6.62216 19.4739 5.63577 19.4288C5.04249 19.4217 4.45484 19.3127 3.8985 19.1066C3.49244 18.9565 3.12517 18.7173 2.82365 18.4067C2.51292 18.1049 2.27378 17.7373 2.12382 17.331C1.91771 16.775 1.80869 16.1876 1.80153 15.5946C1.75647 14.6081 1.74711 14.3123 1.74711 11.8148C1.74711 9.31731 1.75647 9.02138 1.80153 8.03498C1.80869 7.44199 1.91771 6.85464 2.12382 6.29856C2.27378 5.8922 2.51292 5.52463 2.82365 5.22287C3.12541 4.91214 3.49299 4.67299 3.89935 4.52304C4.45542 4.31693 5.04277 4.20791 5.63577 4.20075C6.62216 4.15569 6.91809 4.14633 9.41557 4.14633ZM9.41557 2.46094C6.87557 2.46094 6.55669 2.47199 5.55923 2.51706C4.78329 2.53254 4.01561 2.67946 3.2888 2.95159C2.66435 3.1867 2.09875 3.55525 1.63146 4.03154C1.15559 4.49866 0.787331 5.06396 0.552372 5.68801C0.28054 6.41488 0.133901 7.18256 0.118688 7.95845C0.0719193 8.9559 0.0617188 9.27479 0.0617188 11.8148C0.0617188 14.3548 0.0727759 14.6736 0.117842 15.6711C0.13332 16.447 0.280244 17.2147 0.552372 17.9416C0.787479 18.566 1.15603 19.1316 1.63232 19.5989C2.09944 20.0747 2.66474 20.443 3.2888 20.678C4.01566 20.9498 4.78334 21.0965 5.55923 21.1116C6.55669 21.1584 6.87557 21.1686 9.41557 21.1686C11.9556 21.1686 12.2744 21.1576 13.2719 21.1125C14.0478 21.0971 14.8155 20.9501 15.5423 20.678C16.1639 20.4377 16.7284 20.0701 17.1996 19.5989C17.6709 19.1276 18.0384 18.5631 18.2788 17.9416C18.5506 17.2147 18.6972 16.447 18.7124 15.6711C18.7592 14.6736 18.7694 14.3548 18.7694 11.8148C18.7694 9.27479 18.7584 8.9559 18.7133 7.95845C18.6978 7.18251 18.5509 6.41483 18.2788 5.68801C18.0437 5.06357 17.6751 4.49797 17.1989 4.03068C16.7317 3.55481 16.1664 3.18655 15.5423 2.95159C14.8155 2.67976 14.0478 2.53312 13.2719 2.51791C12.2744 2.47114 11.9556 2.46094 9.41557 2.46094ZM9.41557 7.01116C8.46551 7.01116 7.53672 7.29289 6.74681 7.82071C5.95686 8.34854 5.34117 9.09877 4.9776 9.97651C4.61402 10.8543 4.5189 11.8201 4.70424 12.7519C4.88959 13.6838 5.3471 14.5397 6.01889 15.2114C6.69069 15.8832 7.54657 16.3408 8.47841 16.5261C9.41025 16.7115 10.3761 16.6164 11.2538 16.2527C12.1316 15.8892 12.8818 15.2734 13.4097 14.4836C13.9375 13.6936 14.2192 12.7648 14.2192 11.8148C14.2192 10.5408 13.7131 9.31896 12.8122 8.41811C11.9114 7.51725 10.6896 7.01116 9.41557 7.01116ZM9.41557 14.9331C8.7988 14.9331 8.19592 14.7501 7.68314 14.4075C7.17038 14.0648 6.77071 13.5778 6.5347 13.008C6.29869 12.4383 6.23693 11.8113 6.35725 11.2065C6.47757 10.6015 6.77455 10.0459 7.21065 9.60987C7.6467 9.17377 8.20232 8.87679 8.80727 8.75647C9.41212 8.63615 10.0391 8.6979 10.6088 8.93392C11.1786 9.16993 11.6656 9.5696 12.0083 10.0824C12.3509 10.5951 12.5338 11.198 12.5338 11.8148C12.5338 12.6418 12.2053 13.435 11.6205 14.0197C11.0358 14.6045 10.2425 14.9331 9.41557 14.9331ZM14.4088 5.69907C14.1868 5.69907 13.9698 5.7649 13.7852 5.88824C13.6007 6.01158 13.4567 6.18688 13.3718 6.39198C13.2869 6.59709 13.2646 6.82277 13.3079 7.04051C13.3513 7.25825 13.4581 7.45825 13.6151 7.61523C13.7721 7.77221 13.9721 7.87912 14.1899 7.92242C14.4076 7.96574 14.6332 7.9435 14.8383 7.85855C15.0434 7.7736 15.2188 7.62973 15.3421 7.44514C15.4654 7.26055 15.5313 7.04353 15.5313 6.82153C15.5313 6.52383 15.4131 6.23834 15.2025 6.02784C14.992 5.81732 14.7065 5.69907 14.4088 5.69907Z" fill="var(--fill-0, white)"/>
</g>
</svg>
