<svg preserveAspectRatio="none" width="100%" height="100%" overflow="visible" style="display: block;" viewBox="0 0 117.932 36.1809" fill="none" xmlns="http://www.w3.org/2000/svg">
<g id="Vector">
<path d="M6.85628 3.85856C7.77239 3.0704 8.67905 2.59644 9.70861 2.01857C13.6668 -0.203121 17.6532 0.0105369 22.0396 0.0126667L31.4397 0.0239353L96.6373 0.0189323C98.1465 0.0194396 99.9573 -0.0473098 101.431 0.0668849C107.037 0.501558 112.45 3.89319 115.312 8.72316C122.516 20.6855 114.018 35.7768 100.122 36.1291C98.8958 36.1602 97.6456 36.168 96.4101 36.1639L90.5166 36.1564L84.2601 36.1607C83.4731 36.161 81.8629 36.2062 81.1461 36.1471L81.1272 36.1453C80.5342 36.0617 78.599 36.1815 78.3135 36.0874C78.3447 36.0163 79.2173 36.0207 79.3548 36.0236C85.6425 36.1572 91.9521 36.0627 98.2486 36.0855C98.6463 36.0869 100.55 36.0525 100.785 35.9373C100.793 35.6329 100.794 35.428 100.855 35.13C100.923 34.9697 100.941 34.9359 100.898 34.7714C100.923 34.7628 101.07 34.7483 101.106 34.7442C101.678 34.6458 102.293 34.6431 102.861 34.5301C119.942 31.1337 121.602 8.12912 105.316 2.1505C102.382 1.0734 100.409 1.28903 97.3642 1.28517L55.3385 1.232C45.7036 1.17553 36.0685 1.17089 26.4335 1.21807L20.1574 1.22472C15.9989 1.22146 13.9751 1.27641 10.1024 3.14239C9.92131 2.61032 10.4086 2.26387 10.3534 1.87753C9.879 1.78248 7.36186 3.76995 6.85628 3.85856Z" fill="var(--fill-0, #A89457)"/>
<path d="M100.898 34.7714C100.923 34.7628 101.07 34.7483 101.106 34.7442C101.252 35.0645 101.2 35.4392 101.136 35.7825L101.015 35.8358L101 35.8176L101.02 35.8917C100.835 35.5949 100.919 35.4324 100.855 35.13C100.923 34.9697 100.941 34.9359 100.898 34.7714Z" fill="var(--fill-0, #A89457)"/>
<path d="M6.85628 3.85856C7.36186 3.76995 9.879 1.78248 10.3534 1.87753C10.4086 2.26387 9.92131 2.61032 10.1024 3.14239C9.15465 3.72175 8.19426 4.30371 7.32713 5.00147C4.49327 7.28164 2.47002 10.6211 1.61947 14.1554C0.594845 18.4511 1.30509 22.9776 3.59617 26.7531C5.87943 30.4703 9.70267 33.2333 13.9469 34.2862C16.7521 34.9821 19.914 34.7933 22.8291 34.7936L96.8049 34.7995C97.9129 34.7992 99.8475 34.8558 100.898 34.7714C100.941 34.9359 100.923 34.9697 100.855 35.13C100.794 35.428 100.793 35.6329 100.785 35.9373C100.55 36.0525 98.6463 36.0869 98.2486 36.0855C91.9521 36.0627 85.6425 36.1572 79.3548 36.0236C79.2173 36.0207 78.3447 36.0163 78.3135 36.0874C78.599 36.1815 80.5342 36.0617 81.1272 36.1453C79.9495 36.2149 78.0338 36.1614 76.8272 36.1592L25.6903 36.1485C24.3951 36.1477 23.0927 36.1616 21.7979 36.1462C18.8646 36.1113 15.9024 36.2447 13.058 35.4107C0.0121604 31.5851 -4.37833 15.2842 5.05832 5.46583C5.66419 4.83551 6.16055 4.38476 6.85628 3.85856Z" fill="var(--fill-0, #A89457)"/>
</g>
</svg>
