<svg preserveAspectRatio="none" width="100%" height="100%" overflow="visible" style="display: block;" viewBox="0 0 117.932 36.1809" fill="none" xmlns="http://www.w3.org/2000/svg">
<path id="Vector" d="M6.8563 3.85856C7.7724 3.0704 8.67907 2.59644 9.70863 2.01857C13.6668 -0.203121 17.6532 0.0105369 22.0396 0.0126667L31.4397 0.0239353L61.0811 0.0212625L88.2639 0.017888L96.6373 0.0189323C98.1465 0.0194396 99.9573 -0.0473098 101.431 0.0668849C107.037 0.501558 112.45 3.89319 115.312 8.72316C122.516 20.6855 114.018 35.7768 100.122 36.1291C98.8958 36.1602 97.6456 36.168 96.4101 36.1639L90.5166 36.1564L84.2601 36.1607C83.4731 36.161 81.8629 36.2062 81.1461 36.1471L81.1272 36.1453C79.9495 36.2149 78.0338 36.1615 76.8272 36.1592L68.8114 36.155L42.2808 36.1456L25.6903 36.1485C24.3951 36.1478 23.0927 36.1617 21.7979 36.1462C18.8646 36.1114 15.9024 36.2448 13.058 35.4107C0.0121599 31.5852 -4.37833 15.2842 5.05832 5.46588C5.66419 4.83555 6.16057 4.38476 6.8563 3.85856Z" fill="var(--fill-0, #407E31)"/>
</svg>
