<svg preserveAspectRatio="none" width="100%" height="100%" overflow="visible" style="display: block;" viewBox="0 0 3.0923 24" fill="none" xmlns="http://www.w3.org/2000/svg">
<path id="Vector" d="M0 0C1.01765 0 2.03531 0 3.0838 0C3.08531 3.04778 3.08651 6.09555 3.08722 9.14333C3.08731 9.50275 3.08739 9.86216 3.08748 10.2216C3.0875 10.2931 3.08752 10.3647 3.08753 10.4384C3.08783 11.5987 3.08836 12.7589 3.08897 13.9192C3.0896 15.1087 3.08997 16.2983 3.09011 17.4879C3.0902 18.2226 3.09049 18.9572 3.09103 19.6919C3.09139 20.1949 3.0915 20.698 3.09141 21.2011C3.09137 21.4918 3.09143 21.7825 3.09179 22.0731C3.09211 22.3388 3.09213 22.6045 3.0919 22.8702C3.09188 22.9667 3.09196 23.0633 3.09217 23.1598C3.09244 23.2902 3.09226 23.4206 3.09205 23.5509C3.09209 23.66 3.09209 23.66 3.09213 23.7712C3.0838 23.933 3.0838 23.933 3.01676 24C2.02123 24 1.0257 24 0 24C0 16.08 0 8.16 0 0Z" fill="var(--fill-0, white)"/>
</svg>
