<svg preserveAspectRatio="none" width="100%" height="100%" overflow="visible" style="display: block;" viewBox="0 0 16.1564 23.933" fill="none" xmlns="http://www.w3.org/2000/svg">
<path id="Vector" d="M0 0C5.24313 0 10.4863 0 15.8883 0C15.8883 0.862793 15.8883 1.72559 15.8883 2.61453C11.6407 2.61453 7.39307 2.61453 3.01676 2.61453C3.01676 5.18078 3.01676 7.74704 3.01676 10.3911C7.15374 10.3911 11.2907 10.3911 15.5531 10.3911C15.5531 11.2317 15.5531 12.0724 15.5531 12.9385C11.4161 12.9385 7.27911 12.9385 3.01676 12.9385C3.01676 15.726 3.01676 18.5135 3.01676 21.3855C7.35285 21.3855 11.6889 21.3855 16.1564 21.3855C16.1564 22.2261 16.1564 23.0668 16.1564 23.933C10.8248 23.933 5.49318 23.933 0 23.933C0 16.0351 0 8.13721 0 0Z" fill="var(--fill-0, white)"/>
</svg>
