<svg preserveAspectRatio="none" width="100%" height="100%" overflow="visible" style="display: block;" viewBox="0 0 6.07097 5.90209" fill="none" xmlns="http://www.w3.org/2000/svg">
<path id="Vector" d="M2.55866 0.00547469C2.96163 -0.0252628 5.23906 0.0724959 5.44497 0.322407C5.40485 0.630313 5.1187 1.12713 4.85615 1.29474C4.13575 1.75438 3.36284 0.767304 2.65897 0.672555C2.22118 0.613676 1.95449 0.979693 1.90139 1.36896C2.13031 2.17716 4.07852 1.82158 4.16702 2.15922C4.50332 3.44347 2.07014 3.01934 1.57158 3.65102C1.2577 4.04866 1.19221 4.54801 1.34974 4.6125C2.04418 4.89663 3.27847 4.77651 4.06436 4.75963C4.82075 4.58612 5.61549 4.01261 6.01374 3.98134L6.07097 4.04577C5.92465 4.46424 4.99716 5.30188 4.57943 5.49379C3.78528 5.84453 2.93214 5.91338 2.06778 5.9007C1.5173 5.89338 0.330793 5.81958 0.1001 5.17002C-0.362465 3.8673 0.878912 3.19857 1.76215 2.7932C1.71023 2.76199 1.46774 2.61769 1.43942 2.58258C0.520779 1.43928 1.46007 0.325003 2.55866 0.00547469Z" fill="var(--fill-0, #FBFBFB)"/>
</svg>
