<svg preserveAspectRatio="none" width="100%" height="100%" overflow="visible" style="display: block;" viewBox="0 0 50.8079 56" fill="none" xmlns="http://www.w3.org/2000/svg">
<g id="Frame">
<circle id="Ellipse 55" cx="27.0728" cy="16.6887" r="3.70861" fill="var(--fill-0, white)"/>
<path id="Vector" d="M32.2649 36.3444V48.5828H27.0728C23.5713 48.6004 21.3245 48.5828 21.1391 48.5828C21.1391 48.5828 21.7265 48.0931 23.3205 46.0289C26.9444 41.4572 29.135 37.9959 30.6026 34.5233C32.5088 30.0138 32.69 26.3169 31.148 23.4089C30.9478 23.0311 30.7815 22.6744 30.7815 22.6225H37.0861H43.3907V36.3444H32.2649Z" fill="var(--fill-0, white)"/>
<path id="Vector_2" d="M18.543 46.7287C18.543 46.7287 18.8785 46.3867 19.2408 45.922C21.7148 42.7522 22.4484 41.7668 23.3596 40.3859C24.8782 38.0827 25.7786 35.9075 26.121 33.7127C26.3229 32.4185 26.2653 30.3807 25.9931 29.1836C25.6515 27.6808 24.2978 24.9913 22.5412 22.3266C21.366 20.5428 20.8334 19.5864 20.2511 18.2086C19.1507 15.6048 18.7557 13.1581 18.543 8.90066C18.4863 7.7666 18.543 7.41722 18.543 7.41722C18.4052 7.41309 17.7763 7.93178 17.3338 9.37777C16.8444 10.9776 16.5163 12.749 16.3388 14.7558C16.2045 16.2793 16.3235 17.0756 17.0706 19.6536C17.3671 20.6761 17.6159 21.881 17.6636 22.1066L17.7965 22.6227H7.41722L7.43975 29.6474L7.41722 36.3446L18.543 36.3509V41.722C18.543 44.7803 18.4926 46.7287 18.543 46.7287Z" fill="var(--fill-0, white)"/>
</g>
</svg>
