<svg preserveAspectRatio="none" width="100%" height="100%" overflow="visible" style="display: block;" viewBox="0 0 7.32156 6.62436" fill="none" xmlns="http://www.w3.org/2000/svg">
<path id="Vector" d="M0.752423 0C1.11469 0.0776401 1.1731 0.193981 1.37842 0.458347C2.38497 1.7577 1.59023 3.07504 1.3383 4.45658C1.30172 4.66466 1.28992 5.04519 1.43978 5.20731C1.8699 5.67233 2.87527 5.24024 3.25759 4.93062C4.43643 3.97563 4.47714 2.17463 4.63526 0.777521L5.60464 0.788671C5.88784 1.87652 5.66482 3.31522 5.27778 4.36855C5.17276 4.65499 4.87539 5.11835 4.94265 5.40437L5.10137 5.44153C6.15571 5.33133 6.53567 5.23729 7.32156 4.53021C7.28203 4.63493 7.24014 4.73882 7.19589 4.84177C6.49319 6.46507 4.55914 7.56012 3.75497 5.30619C2.74901 6.2977 1.14419 7.59499 0.132916 5.50761C-0.42051 3.95965 0.93769 2.67734 0.868069 1.17345C0.859809 0.997108 0.725872 0.0578171 0.752423 0Z" fill="var(--fill-0, #FBFBFB)"/>
</svg>
