<svg preserveAspectRatio="none" width="100%" height="100%" overflow="visible" style="display: block;" viewBox="0 0 12.0921 11.4075" fill="none" xmlns="http://www.w3.org/2000/svg">
<path id="Vector" d="M11.9883 0C12.067 0.0237168 12.0397 0.00861507 12.0921 0.0988806C12.0481 0.333866 11.017 2.02366 10.7948 2.66024C9.98669 4.97493 9.6823 7.99906 8.09194 9.90973C6.20651 12.175 2.67798 11.1484 0.197181 11.3225L0.0321561 11.3259L0 11.2622C0.282554 10.7861 1.15694 10.4467 1.66447 10.3057C2.35082 10.115 3.06833 10.0555 3.77834 10.0493C4.54152 10.0425 6.28357 10.2701 6.90904 9.99959C8.29349 9.40077 7.84254 2.89274 11.4234 0.381239C11.5053 0.323953 11.5877 0.267376 11.6706 0.211506C11.7761 0.140355 11.882 0.0698525 11.9883 0Z" fill="var(--fill-0, #FBFBFB)"/>
</svg>
