<svg preserveAspectRatio="none" width="100%" height="100%" overflow="visible" style="display: block;" viewBox="0 0 16.7002 15.0116" fill="none" xmlns="http://www.w3.org/2000/svg">
<g id="Frame 6">
<path id="Vector 3" d="M5.85918 13.7326L0.00130208 6.27539H5.88351L9.536 11.0663C10.2317 11.9789 11.6041 11.9817 12.3036 11.0721L15.9922 6.27539H16.6893L10.8197 13.868C10.2622 14.5893 9.40193 15.0116 8.4903 15.0116C7.46346 15.0116 6.49349 14.5401 5.85918 13.7326Z" fill="var(--fill-0, #0A0A0A)"/>
<path id="Subtract" d="M7.06152 0.00227865C8.85469 0.0022868 10.5622 0.76991 11.7529 2.11068L12.4736 2.9222L13.7354 3.30697C14.5802 3.56472 15.3069 4.11416 15.7852 4.85677L16.7002 6.27669H12.7373C12.7373 5.3527 11.9884 4.60291 11.0645 4.60286C10.1442 4.60286 9.39773 5.34619 9.3916 6.26497L5.89844 6.27669L1.11328 0.00227865H7.06152ZM5.64062 1.46126L6.77832 2.88314H10.2646L10.25 2.86751C9.45616 1.97307 8.31701 1.46126 7.12109 1.46126H5.64062Z" fill="var(--fill-0, #0A0A0A)"/>
</g>
</svg>
