<svg preserveAspectRatio="none" width="100%" height="100%" overflow="visible" style="display: block;" viewBox="0 0 22.0003 19.3604" fill="none" xmlns="http://www.w3.org/2000/svg">
<g id="Frame">
<path id="Subtract" d="M10.5596 0V12.2363H6.42773C6.43095 12.2595 6.89969 15.5886 10.5596 15.5889V19.3604H6.42773L0 15.9727V0H10.5596ZM6.59961 3.95996C5.38478 3.96018 4.4004 4.94527 4.40039 6.16016C4.40039 7.37505 5.38477 8.36013 6.59961 8.36035C7.81464 8.36035 8.7998 7.37518 8.7998 6.16016C8.79979 4.94514 7.81463 3.95996 6.59961 3.95996Z" fill="var(--fill-0, #0A0A0A)"/>
<path id="Subtract_2" d="M22.0003 15.9727L15.5726 19.3604H11.4398V15.5889C15.1019 15.5889 15.5698 12.2561 15.5726 12.2363H11.4398V0H22.0003V15.9727ZM15.3997 3.95996C14.1848 3.96014 13.2005 4.94525 13.2005 6.16016C13.2005 7.37507 14.1848 8.36018 15.3997 8.36035C16.6147 8.36035 17.5999 7.37518 17.5999 6.16016C17.5999 4.94514 16.6147 3.95996 15.3997 3.95996Z" fill="var(--fill-0, #0A0A0A)"/>
</g>
</svg>
