<svg preserveAspectRatio="none" width="100%" height="100%" overflow="visible" style="display: block;" viewBox="0 0 24 24" fill="none" xmlns="http://www.w3.org/2000/svg">
<g id="IconLinkedin">
<path id="Vector" d="M19.6478 2.99972H4.34777C3.98973 2.99972 3.64635 3.14195 3.39318 3.39513C3.14 3.6483 2.99777 3.99168 2.99777 4.34972V19.6497C2.99777 20.0077 3.14 20.3511 3.39318 20.6043C3.64635 20.8575 3.98973 20.9997 4.34777 20.9997H19.6478C20.0058 20.9997 20.3492 20.8575 20.6024 20.6043C20.8556 20.3511 20.9978 20.0077 20.9978 19.6497V4.34972C20.9978 3.99168 20.8556 3.6483 20.6024 3.39513C20.3492 3.14195 20.0058 2.99972 19.6478 2.99972ZM8.39777 18.2997H5.69777V10.1997H8.39777V18.2997ZM7.04777 8.62472C6.73833 8.61588 6.43837 8.51604 6.18535 8.33769C5.93233 8.15934 5.73747 7.91038 5.62514 7.62192C5.5128 7.33346 5.48796 7.01829 5.55372 6.71579C5.61947 6.4133 5.77292 6.13688 5.99487 5.9211C6.21683 5.70531 6.49745 5.55971 6.80168 5.5025C7.10591 5.44528 7.42025 5.47899 7.70543 5.59941C7.99061 5.71982 8.23399 5.92161 8.40514 6.17955C8.5763 6.4375 8.66764 6.74016 8.66777 7.04972C8.66066 7.47303 8.48627 7.87632 8.18272 8.17145C7.87916 8.46657 7.47112 8.62954 7.04777 8.62472ZM18.2978 18.2997H15.5978V14.0337C15.5978 12.7557 15.0578 12.2967 14.3558 12.2967C14.15 12.3104 13.9489 12.3646 13.7641 12.4563C13.5793 12.5479 13.4144 12.6752 13.2789 12.8307C13.1435 12.9863 13.04 13.1671 12.9746 13.3627C12.9092 13.5583 12.8831 13.7649 12.8978 13.9707C12.8933 14.0126 12.8933 14.0548 12.8978 14.0967V18.2997H10.1978V10.1997H12.8078V11.3697C13.0711 10.9692 13.4328 10.643 13.8583 10.4224C14.2838 10.2018 14.7588 10.0941 15.2378 10.1097C16.6328 10.1097 18.2618 10.8837 18.2618 13.4037L18.2978 18.2997Z" fill="var(--fill-0, white)"/>
</g>
</svg>
