<svg preserveAspectRatio="none" width="100%" height="100%" overflow="visible" style="display: block;" viewBox="0 0 33.6 33.6" fill="none" xmlns="http://www.w3.org/2000/svg">
<g id="IconTeam" clip-path="url(#clip0_4006_528)">
<path id="Vector" d="M16.8 16.8C21.4392 16.8 25.2 20.5608 25.2 25.2V28H8.4V25.2C8.4 20.5608 12.1608 16.8 16.8 16.8Z" fill="var(--fill-0, white)"/>
<path id="Vector_2" d="M8.05958 18.2C6.52177 20.1177 5.6 22.5506 5.6 25.2V26.6H-4.76837e-07V25.2C-4.76837e-07 21.334 3.13401 18.2 7 18.2H8.05958Z" fill="var(--fill-0, white)"/>
<path id="Vector_3" d="M26.6 18.2C30.466 18.2 33.6 21.334 33.6 25.2V26.6H28V25.2C28 22.5506 27.0782 20.1177 25.5405 18.2H26.6Z" fill="var(--fill-0, white)"/>
<path id="Vector_4" d="M6.3 8.75C8.42629 8.75 10.15 10.4737 10.15 12.6C10.15 14.7263 8.42629 16.45 6.3 16.45C4.17371 16.45 2.45 14.7263 2.45 12.6C2.45 10.4737 4.17371 8.75 6.3 8.75Z" fill="var(--fill-0, white)"/>
<path id="Vector_5" d="M27.3 8.75C29.4263 8.75 31.15 10.4737 31.15 12.6C31.15 14.7263 29.4263 16.45 27.3 16.45C25.1737 16.45 23.45 14.7263 23.45 12.6C23.45 10.4737 25.1737 8.75 27.3 8.75Z" fill="var(--fill-0, white)"/>
<path id="Vector_6" d="M16.8 4.9C19.5062 4.9 21.7 7.0938 21.7 9.8C21.7 12.5062 19.5062 14.7 16.8 14.7C14.0938 14.7 11.9 12.5062 11.9 9.8C11.9 7.0938 14.0938 4.9 16.8 4.9Z" fill="var(--fill-0, white)"/>
</g>
<defs>
<clipPath id="clip0_4006_528">
<rect width="33.6" height="33.6" fill="white"/>
</clipPath>
</defs>
</svg>
