<svg preserveAspectRatio="none" width="100%" height="100%" overflow="visible" style="display: block;" viewBox="0 0 33.6 33.6" fill="none" xmlns="http://www.w3.org/2000/svg">
<g id="IconPeopleSparkles">
<path id="Vector" d="M16.8014 16.8C18.4311 16.8 19.9402 17.0968 21.2995 17.6326L20.6704 19.2704L16.1 21.0273V25.1727L20.6704 26.9282L21.6208 29.4H4.76328L4.90683 27.8687C5.48407 21.7294 10.1405 16.8 16.8014 16.8Z" fill="var(--fill-0, white)"/>
<path id="Vector_2" d="M26.7053 20.8947L30.8 22.4697V23.7303L26.7053 25.3053L25.1303 29.4H23.8697L22.2947 25.3053L18.2 23.7303V22.4697L22.2947 20.8947L23.8697 16.8H25.1303L26.7053 20.8947Z" fill="var(--fill-0, white)"/>
<path id="Vector_3" d="M6.01972 10.5L7.06972 13.2303L9.8 14.2803V15.1197L7.06972 16.1697L6.01972 18.9H5.18028L4.13028 16.1697L1.4 15.1197V14.2803L4.13028 13.2303L5.18028 10.5H6.01972Z" fill="var(--fill-0, white)"/>
<path id="Vector_4" d="M16.8 2.8C20.2794 2.8 23.1 5.62061 23.1 9.1C23.1 12.5794 20.2794 15.4 16.8 15.4C13.3206 15.4 10.5 12.5794 10.5 9.1C10.5 5.62061 13.3206 2.8 16.8 2.8Z" fill="var(--fill-0, white)"/>
</g>
</svg>
