<svg preserveAspectRatio="none" width="100%" height="100%" overflow="visible" style="display: block;" viewBox="0 0 24 24" fill="none" xmlns="http://www.w3.org/2000/svg">
<g id="IconDribbble">
<path id="Vector" d="M1.99801 12C1.99801 10.1867 2.44469 8.5133 3.33801 6.97996C4.23135 5.44662 5.44469 4.2333 6.97801 3.33996C8.51135 2.44662 10.1847 1.99996 11.998 1.99996C13.8113 1.99996 15.4847 2.44662 17.018 3.33996C18.5513 4.2333 19.7647 5.44662 20.658 6.97996C21.5513 8.5133 21.998 10.1867 21.998 12C21.998 13.8133 21.5513 15.4867 20.658 17.02C19.7647 18.5533 18.5513 19.7667 17.018 20.66C15.4847 21.5533 13.8113 22 11.998 22C10.1847 22 8.51135 21.5533 6.97801 20.66C5.44469 19.7667 4.23135 18.5533 3.33801 17.02C2.44469 15.4867 1.99801 13.8133 1.99801 12ZM3.65801 12C3.65801 14.08 4.35801 15.9133 5.75801 17.5C6.39801 16.2467 7.41135 15.0533 8.79801 13.92C10.1847 12.7867 11.538 12.0733 12.858 11.78C12.658 11.3133 12.4647 10.8933 12.278 10.52C9.98469 11.2533 7.50469 11.62 4.83801 11.62C4.31801 11.62 3.93135 11.6133 3.67801 11.6C3.67801 11.6533 3.67469 11.72 3.66801 11.8C3.66135 11.88 3.65801 11.9467 3.65801 12ZM3.91801 9.93996C4.21135 9.96662 4.64469 9.97996 5.21801 9.97996C7.44469 9.97996 9.55801 9.67996 11.558 9.07996C10.5447 7.27996 9.43135 5.77996 8.21801 4.57996C7.16469 5.1133 6.26135 5.8533 5.50801 6.79996C4.75469 7.74662 4.22469 8.7933 3.91801 9.93996ZM6.89801 18.58C8.40469 19.7533 10.1047 20.34 11.998 20.34C12.9847 20.34 13.9647 20.1533 14.938 19.78C14.6713 17.5 14.1513 15.2933 13.378 13.16C12.1513 13.4267 10.9147 14.1 9.66801 15.18C8.42135 16.26 7.49801 17.3933 6.89801 18.58ZM9.95801 3.93996C11.1313 5.1533 12.218 6.66662 13.218 8.47996C15.0313 7.71996 16.398 6.7533 17.318 5.57996C15.7713 4.29996 13.998 3.65996 11.998 3.65996C11.318 3.65996 10.638 3.7533 9.95801 3.93996ZM13.938 9.89996C14.138 10.3267 14.3647 10.8667 14.618 11.52C15.6047 11.4267 16.678 11.38 17.838 11.38C18.6647 11.38 19.4847 11.4 20.298 11.44C20.1913 9.62662 19.538 8.0133 18.338 6.59996C17.4713 7.8933 16.0047 8.9933 13.938 9.89996ZM15.118 12.92C15.798 14.8933 16.258 16.92 16.498 19C17.5513 18.32 18.4113 17.4467 19.078 16.38C19.7447 15.3133 20.1447 14.16 20.278 12.92C19.3047 12.8533 18.418 12.82 17.618 12.82C16.8847 12.82 16.0513 12.8533 15.118 12.92Z" fill="var(--fill-0, white)"/>
</g>
</svg>
