<svg preserveAspectRatio="none" width="100%" height="100%" overflow="visible" style="display: block;" viewBox="0 0 36.225 31.5" fill="none" xmlns="http://www.w3.org/2000/svg">
<g id="Frame 5">
<path id="Subtract" d="M17.3252 0V18.75H10.5459C10.5483 18.7689 11.3086 24.75 17.3252 24.75V31.5H10.5459L0 25.4375V0H17.3252ZM10.2373 5.5127C8.06282 5.51286 6.2998 7.27568 6.2998 9.4502C6.29997 11.6246 8.06293 13.3875 10.2373 13.3877C12.4118 13.3877 14.1746 11.6247 14.1748 9.4502C14.1748 7.27558 12.4119 5.5127 10.2373 5.5127Z" fill="var(--fill-0, white)"/>
<path id="Subtract_2" d="M36.225 25.4375L25.6791 31.5H18.8998V24.75C24.9187 24.75 25.6773 18.7643 25.6791 18.75H18.8998V0H36.225V25.4375ZM25.9877 5.5127C23.8131 5.5127 22.0502 7.27558 22.0502 9.4502C22.0503 11.6247 23.8132 13.3877 25.9877 13.3877C28.162 13.3874 29.925 11.6245 29.9252 9.4502C29.9252 7.27573 28.1621 5.51294 25.9877 5.5127Z" fill="var(--fill-0, white)"/>
</g>
</svg>
