<svg preserveAspectRatio="none" width="100%" height="100%" overflow="visible" style="display: block;" viewBox="0 0 33.6 33.6" fill="none" xmlns="http://www.w3.org/2000/svg">
<g id="IconColorPalette">
<path id="Vector" fill-rule="evenodd" clip-rule="evenodd" d="M2.8 16.8C2.8 9.38029 9.14448 3.5 16.8 3.5C24.4555 3.5 30.8 9.38029 30.8 16.8C30.8 19.4243 30.0938 21.3084 28.4885 22.3076C27.0217 23.2207 25.1959 23.107 23.766 22.9211C23.2578 22.855 22.7224 22.7665 22.2202 22.6836C21.9919 22.6458 21.7704 22.6093 21.5614 22.5764C20.8559 22.4657 20.2398 22.3877 19.7007 22.3798C18.6168 22.364 18.256 22.6184 18.0522 23.0261C17.9361 23.2585 17.9098 23.5766 18.0925 24.1179C18.2566 24.604 18.5188 25.0786 18.8216 25.6267C18.8758 25.7247 18.9312 25.8251 18.9876 25.9284C19.1555 26.2354 19.3459 26.5954 19.4799 26.9501C19.6029 27.2755 19.7638 27.8076 19.6445 28.3903C19.4981 29.1056 19.0064 29.583 18.4325 29.8301C17.9369 30.0434 17.3618 30.1 16.8 30.1C9.14448 30.1 2.8 24.2197 2.8 16.8ZM14.7 13.3C15.8598 13.3 16.8 12.3598 16.8 11.2C16.8 10.0402 15.8598 9.1 14.7 9.1C13.5402 9.1 12.6 10.0402 12.6 11.2C12.6 12.3598 13.5402 13.3 14.7 13.3ZM12.25 17.15C12.25 18.3098 11.3098 19.25 10.15 19.25C8.9902 19.25 8.05 18.3098 8.05 17.15C8.05 15.9902 8.9902 15.05 10.15 15.05C11.3098 15.05 12.25 15.9902 12.25 17.15ZM21.7 15.4C22.8598 15.4 23.8 14.4598 23.8 13.3C23.8 12.1402 22.8598 11.2 21.7 11.2C20.5402 11.2 19.6 12.1402 19.6 13.3C19.6 14.4598 20.5402 15.4 21.7 15.4Z" fill="var(--fill-0, white)"/>
</g>
</svg>
