<svg preserveAspectRatio="none" width="100%" height="100%" overflow="visible" style="display: block;" viewBox="0 0 5.85725 5.29949" fill="none" xmlns="http://www.w3.org/2000/svg">
<path id="Vector" d="M0.601938 0C0.891749 0.0621121 0.938477 0.155185 1.10273 0.366678C1.90798 1.40616 1.27219 2.46004 1.07064 3.56526C1.04138 3.73173 1.03194 4.03615 1.15183 4.16585C1.49592 4.53786 2.30022 4.19219 2.60608 3.9445C3.54914 3.18051 3.58171 1.7397 3.70821 0.622017L4.48371 0.630937C4.71027 1.50121 4.53186 2.65218 4.22222 3.49484C4.1382 3.72399 3.90031 4.09468 3.95412 4.32349L4.08109 4.35323C4.92457 4.26506 5.22854 4.18983 5.85725 3.62416C5.82562 3.70794 5.79211 3.79106 5.75671 3.87342C5.19455 5.17206 3.64732 6.04809 3.00397 4.24496C2.1992 5.03816 0.91535 6.07599 0.106333 4.40609C-0.336408 3.16772 0.750152 2.14188 0.694455 0.93876C0.687847 0.797687 0.580698 0.0462537 0.601938 0Z" fill="var(--fill-0, #FBFBFB)"/>
</svg>
