<svg preserveAspectRatio="none" width="100%" height="100%" overflow="visible" style="display: block;" viewBox="0 0 6.0222 6.26034" fill="none" xmlns="http://www.w3.org/2000/svg">
<path id="Vector" d="M3.17188 0.00792968C3.76424 -0.0274685 3.85864 0.0436824 4.23389 0.467517C3.92 0.866396 3.44446 1.15023 3.0232 1.43595C3.37484 2.10728 4.05453 2.65076 4.09819 3.49784C4.13654 4.23229 3.79729 4.68793 3.34062 5.20923C4.60973 5.07908 4.84455 4.92852 6.0222 4.38321C4.79912 6.40793 3.21967 6.27896 1.13931 6.24646C0.770552 6.23796 0.371114 6.25253 0 6.25896C0.191752 5.89247 0.339255 5.51696 0.546937 5.13613C1.38239 5.15259 3.68342 5.30929 3.08869 3.83153C2.91287 3.39412 2.33466 2.70427 2.0255 2.29914C1.41189 2.93566 1.10391 3.3464 0.290876 3.72356C0.820112 2.44415 1.96236 0.723151 3.17188 0.00792968Z" fill="var(--fill-0, #EFF1EE)"/>
</svg>
