<svg preserveAspectRatio="none" width="100%" height="100%" overflow="visible" style="display: block;" viewBox="0 0 13.4637 19.9441" fill="none" xmlns="http://www.w3.org/2000/svg">
<path id="Vector" d="M0 0C4.36927 0 8.73855 0 13.2402 0C13.2402 0.718994 13.2402 1.43799 13.2402 2.17877C9.70056 2.17877 6.16089 2.17877 2.51397 2.17877C2.51397 4.31732 2.51397 6.45587 2.51397 8.65922C5.96145 8.65922 9.40894 8.65922 12.9609 8.65922C12.9609 9.35978 12.9609 10.0603 12.9609 10.7821C9.51341 10.7821 6.06592 10.7821 2.51397 10.7821C2.51397 13.105 2.51397 15.4279 2.51397 17.8212C6.12737 17.8212 9.74078 17.8212 13.4637 17.8212C13.4637 18.5218 13.4637 19.2223 13.4637 19.9441C9.02067 19.9441 4.57765 19.9441 0 19.9441C0 13.3626 0 6.78101 0 0Z" fill="var(--fill-0, #BFBFBF)"/>
</svg>
