<svg preserveAspectRatio="none" width="100%" height="100%" overflow="visible" style="display: block;" viewBox="0 0 4.57047 5.07005" fill="none" xmlns="http://www.w3.org/2000/svg">
<path id="Vector" d="M2.68576 0C2.70676 0.00188791 2.72772 0.00481515 2.74844 0.00868536C3.9724 0.231222 2.75769 0.939328 2.34001 1.17739C3.2474 2.3452 3.67277 2.82884 2.73603 4.17213C3.00781 4.1634 3.1715 4.15504 3.43596 4.09425C3.73314 4.02587 4.25635 3.75726 4.52955 3.76996L4.57047 3.83023C4.51279 4.0085 4.33872 4.17581 4.20887 4.30919C3.27539 5.26811 1.71253 5.05921 0.433678 5.03283L0 5.03306C0.146982 4.66412 0.214667 4.51691 0.418196 4.1709C0.957273 4.18369 2.39382 4.27332 2.52188 3.53104C2.60792 3.03235 1.89194 2.2543 1.58499 1.85713C1.32251 2.10256 0.730051 2.84989 0.378218 2.85853L0.341921 2.77834C0.361557 2.68885 0.391385 2.60186 0.430892 2.51917C0.80354 1.74126 1.8522 0.295976 2.68576 0Z" fill="var(--fill-0, #FBFBFB)"/>
</svg>
