<svg preserveAspectRatio="none" width="100%" height="100%" overflow="visible" style="display: block;" viewBox="0 0 35.4249 35.425" fill="none" xmlns="http://www.w3.org/2000/svg">
<g id="Frame 108">
<path id="Vector" d="M15.8184 0.103135C25.5422 -0.943225 34.2738 6.09084 35.3215 15.815C36.3692 25.5391 29.3362 34.2719 19.6124 35.3213C9.88664 36.3709 1.15157 29.3364 0.103418 19.61C-0.944596 9.88368 6.09133 1.14963 15.8184 0.103135Z" fill="var(--fill-0, white)"/>
<path id="Vector_2" d="M17.6953 2.31863C17.6385 2.14791 17.5788 2.04438 17.6345 1.88018C17.771 1.7681 17.7004 1.79049 17.8931 1.80784C18.0496 1.93124 18.0118 1.86606 18.0537 2.04486C18.0147 2.17354 18.0238 2.20983 17.9367 2.29467C17.9734 3.3827 17.8386 4.49626 17.8753 5.39875C18.3392 4.72314 18.6334 3.95467 18.9723 3.21396C19.091 2.95409 19.2677 2.24422 19.446 2.096C19.6117 2.12536 19.5561 2.11032 19.6937 2.26801C19.6897 2.54311 19.4867 2.59255 19.3852 2.84715C19.0744 3.6293 18.634 4.30077 18.3679 5.1052C18.9609 4.60799 19.5326 3.94682 20.0286 3.34834C20.2001 3.14126 20.016 2.91389 20.2339 2.74916C20.418 2.73857 20.4604 2.72779 20.6204 2.81396C20.7128 3.06951 20.5631 3.20517 20.609 3.35341C20.8636 4.16983 21.2312 4.97736 21.5661 5.7664C21.5781 4.75021 21.4714 3.50879 21.3694 2.49679L21.48 2.4051C21.6572 2.44387 21.593 2.41476 21.7295 2.5592C21.8602 3.10509 21.546 5.58638 21.9617 5.84342C22.2095 5.4958 22.9062 3.43605 23.0209 2.82851C23.0645 2.81123 23.1075 2.79397 23.1511 2.7767C23.3415 2.82209 23.2853 2.77995 23.3891 2.91746C23.357 3.3168 22.0787 5.75132 22.2037 6.04035C22.6086 5.98415 23.8679 4.36726 24.2131 4.03002C24.4024 3.84502 24.5601 3.43677 24.9144 3.66437C24.9093 3.80289 24.8588 3.86136 24.735 3.96626C24.0726 4.52663 23.1723 5.38611 22.6636 6.07607C23.2876 5.8183 23.9923 5.37747 24.5899 5.04397C24.8755 4.88477 25.0091 4.52886 25.2442 4.50854C25.4013 4.58565 25.5045 4.61707 25.6066 4.75766C25.5005 4.9756 25.3457 5.00531 25.3359 5.2352C25.301 6.04287 25.3772 6.92146 25.4684 7.72115C25.6903 7.1649 25.8704 6.59299 26.0075 6.01007C26.0906 5.6605 26.2001 4.78952 26.4863 4.61532C26.6268 4.7391 26.5826 4.69873 26.6405 4.91097L26.6073 4.9735C26.3584 5.45118 25.719 7.62837 25.6599 8.17C25.9587 7.85494 27.8396 5.51697 27.8947 5.48492C28.0765 5.52741 28.0105 5.489 28.135 5.64678L28.1487 5.78963C27.6263 6.04889 26.1634 7.81291 25.8595 8.35001C26.6566 7.97382 27.4715 7.62017 28.2703 7.24662C28.5404 7.12017 28.717 6.8066 29.0026 6.74828C29.2102 6.82558 29.1666 6.7746 29.2647 6.9307C29.1087 7.30482 28.963 7.21089 28.6683 7.30998C27.9905 7.53788 26.9531 8.03759 26.3704 8.4202C27.2117 8.35356 28.0036 8.18118 28.8397 8.09551C29.0582 7.88866 29.0032 7.87948 29.2589 7.82632C29.4694 7.91257 29.4092 7.85351 29.4986 8.03759C29.4654 8.31801 29.4258 8.30625 29.1723 8.45529C28.9068 9.29381 28.6241 9.99744 28.4326 10.8594C28.9258 10.3592 29.31 9.8098 29.7034 9.23159C29.8679 8.98999 30.0853 8.42817 30.3204 8.36842C30.4861 8.4741 30.4414 8.41303 30.4999 8.58725C30.3978 8.92588 28.6597 10.7892 28.5599 11.1995L28.6436 11.2621C29.2836 11.0567 30.8159 10.1203 31.2786 9.61225C31.4851 9.59866 31.4065 9.57618 31.5728 9.69483C31.6313 9.90282 31.6313 9.81405 31.5562 10.0336C31.3629 10.1961 31.2568 10.0668 31.0831 10.181C30.3967 10.6319 29.2922 11.134 28.6557 11.5784C29.2773 11.6148 31.0217 11.4861 31.6542 11.3885C31.8349 11.2264 31.8005 11.202 32.0075 11.1901C32.1669 11.3396 32.1187 11.2644 32.183 11.4813C32.0413 11.7785 31.27 11.629 30.9001 11.662C30.1466 11.7293 29.439 11.8571 28.6815 11.7926C29.1465 11.9249 31.1473 12.4498 31.5499 12.4702C31.7672 12.314 31.7362 12.281 31.953 12.2886C32.0826 12.4262 32.0774 12.479 32.1021 12.6699C32.0224 12.9021 31.9404 12.828 31.7787 12.9369C31.2362 13.3025 30.462 14.3182 30.1225 14.8627C30.9724 14.5313 31.8521 13.8516 32.5345 13.2476C32.5643 13.2214 32.6744 13.1922 32.7168 13.1832L32.835 13.2356C32.9003 13.4421 32.8952 13.353 32.831 13.5827C32.6119 13.7849 32.6108 13.6723 32.4605 13.7494C32.0688 13.9502 30.2894 15.0384 30.1094 15.292L30.1484 15.3632C30.7052 15.4674 32.6113 14.9052 33.2307 14.794C33.4577 14.7532 33.4967 14.8648 33.5226 15.0489C33.3316 15.3647 32.9841 15.1259 32.675 15.1781C31.7947 15.3267 30.9793 15.4583 30.1289 15.7347L30.1868 15.7589C30.9563 16.0722 32.0184 16.2125 32.8275 16.4646C32.999 16.5181 33.1544 16.3511 33.3752 16.4919C33.4818 16.6861 33.4841 16.6244 33.4709 16.8149C33.3568 16.8758 33.257 16.9027 33.1297 16.8462C32.2242 16.4448 31.3377 16.2754 30.3657 16.0816L30.4139 16.1236C30.8365 16.487 32.023 17.1526 32.5494 17.4658C32.7662 17.3755 32.7306 17.3464 32.9124 17.4128C33.171 17.8781 32.9531 18.0405 32.4961 17.9471C32.0551 18.0662 30.6874 19.0091 30.3026 19.3227C31.0538 19.1786 31.7982 19.0003 32.5333 18.7886C32.8149 18.705 33.1963 18.493 33.3901 18.4932L33.4801 18.5751C33.4824 18.8195 33.5088 18.7242 33.3798 18.9346C33.0575 19.0811 33.0844 18.8286 32.6085 18.991C31.7592 19.2805 30.9265 19.3468 30.1048 19.7101C30.9982 19.9457 31.9444 20.0662 32.8464 20.2797C32.9709 20.3091 33.163 20.2017 33.2783 20.1449C33.4102 20.2261 33.4084 20.2418 33.4704 20.392C33.4509 20.5948 33.4853 20.5362 33.3666 20.667C33.0472 20.7031 32.8269 20.4455 32.5219 20.3884C31.6399 20.2232 30.7511 20.0951 29.8708 19.9165C30.5739 20.4506 31.2981 20.9554 32.0425 21.43C32.3063 21.6006 32.7713 21.7703 32.8809 22.0184L32.8459 22.1487C32.5121 22.2413 32.1898 21.8011 31.9272 21.6123C31.3778 21.2176 30.7986 20.7269 30.1724 20.4659C30.3921 20.8772 31.3423 22.0572 31.7162 22.4615C31.7305 22.4771 31.9702 22.5181 32.019 22.5259C32.1629 22.6668 32.1388 22.605 32.1784 22.7805C32.0952 22.9663 32.0706 22.9861 31.9186 23.1236C31.7368 23.1018 31.6915 23.0032 31.5309 22.8536C30.6903 23.165 29.8823 23.1503 28.967 23.4747C29.7928 23.6435 31.2689 23.8845 32.0356 23.6663C32.1944 23.7908 32.2013 23.9215 32.1428 24.1087C31.9874 24.2196 32.0574 24.2018 31.8796 24.1974L31.8355 24.1595C31.793 24.1237 31.637 23.9978 31.598 23.9969C30.7155 23.9758 29.2905 23.6978 28.483 23.6923C28.8913 23.9445 29.2842 24.1446 29.6976 24.3817C30.1501 24.6408 30.5934 24.961 31.0464 25.2175L31.0498 25.4219C30.4064 25.238 29.0129 24.0681 28.5719 24.0587C28.7629 24.7077 30.5108 26.5759 30.4913 26.9899C30.1254 27.0574 29.8433 26.3705 29.6753 26.1061C29.3054 25.523 28.967 24.9717 28.4372 24.5185C28.6407 25.1854 29.0359 26.2123 29.1775 26.8277C29.4166 27.0034 29.6867 27.1923 29.4935 27.5445C29.3553 27.6085 29.3369 27.6299 29.1964 27.5995C29.1362 27.5299 28.9063 27.2653 28.8455 27.2521C28.1252 27.0944 26.9852 27.0287 26.2781 26.9669L26.3016 26.9839C26.8544 27.3726 28.0237 27.819 28.6746 28.1291C28.8931 28.2332 29.0892 28.0609 29.2274 28.3411C29.1792 28.5769 29.2239 28.4969 29.0714 28.6599C29.2612 28.667 25.9759 27.096 25.8475 27.0398C26.3888 27.7187 26.9519 28.3766 27.5173 29.0355C27.7295 29.2827 28.0856 29.4851 28.1407 29.777L28.073 29.8908C27.6877 29.918 27.5036 29.3641 27.2799 29.1147C26.7776 28.5546 26.2512 27.7303 25.6783 27.2609C25.8721 28.1652 26.1824 29.0491 26.4157 29.9491L26.2047 30.0682C25.9277 29.2767 25.875 28.5216 25.5063 27.6822C25.4512 28.5013 25.3749 29.3727 25.387 30.1942C25.3887 30.3123 25.5487 30.4752 25.6278 30.5832L25.5768 30.7117C25.0842 31.1503 25.2132 30.7357 24.8554 30.4704C24.1753 29.9659 23.158 29.5307 22.4079 29.1237C22.9544 29.7515 23.7819 30.456 24.3628 31.0907C24.5646 31.3113 24.8439 31.3741 24.9351 31.6041C24.8491 31.7722 24.9058 31.7203 24.7149 31.7914C24.427 31.7077 24.2871 31.3788 24.0629 31.1534C23.3942 30.4816 22.7686 29.7539 22.0701 29.1128L22.1166 29.2144C22.5748 30.2314 22.932 31.3396 23.377 32.3684C23.4304 32.4918 23.408 32.5338 23.3644 32.6493L23.2876 32.6678C22.8426 32.4919 22.8231 31.4421 22.5874 30.9502C22.3528 30.4603 22.2456 29.9207 21.956 29.4189L21.9222 29.3613C21.8052 30.1799 21.7903 31.1214 21.7461 31.953C21.7306 32.2523 21.7972 32.5698 21.7691 32.8709C21.6555 33.0046 21.7197 32.9695 21.5305 32.99C21.4577 32.9388 21.3636 32.8947 21.3671 32.803C21.386 32.2818 21.722 30.5034 21.5695 30.0688C21.359 30.178 20.8796 31.4968 20.6468 31.9271C20.7145 32.2096 20.8166 32.5561 20.5178 32.7193C19.9707 32.6009 20.2672 32.2853 20.1491 32.1465C19.5406 31.4337 18.9471 30.7437 18.2446 30.121C18.3937 30.3896 19.7253 33.0434 19.7304 33.1494C19.6266 33.3307 19.6817 33.2927 19.5177 33.3748C19.4839 33.3476 19.45 33.3205 19.4162 33.2933C19.0595 32.3131 18.4964 30.8377 17.8713 30.0544C18.0433 30.9868 17.9722 31.9624 17.9986 32.9067C18.0066 33.1792 18.1701 33.3209 18.064 33.5521C17.8891 33.6702 17.9699 33.6445 17.7589 33.6499C17.4796 33.4082 17.7652 33.1816 17.7601 32.8185C17.7463 31.9098 17.7836 30.9867 17.6809 30.0831C17.4556 30.5614 16.3457 32.7935 16.4103 33.1469C16.4132 33.1635 16.4172 33.1798 16.4206 33.1963C16.3089 33.3595 16.3674 33.3244 16.2035 33.3735L16.093 33.2913C16.0091 33.0846 15.9994 33.1415 16.0235 32.9453C16.2707 32.7606 17.1344 30.7709 17.3237 30.3468C16.9761 30.6004 15.7152 31.8413 15.6256 32.1964C15.5927 32.3262 15.5617 32.4564 15.5326 32.5871C15.4172 32.6972 15.3764 32.6865 15.2076 32.7066C14.8203 32.5419 15.1342 32.2353 15.087 32.0987C14.7982 31.2631 14.3348 30.2411 13.972 29.4583C14.1384 30.4411 14.1094 31.6132 14.3276 32.58C14.3489 32.6744 14.4039 32.6457 14.4112 32.8331C14.2635 33.0517 14.2297 33.0638 14.0113 32.9611C13.8723 32.7371 13.9823 32.1718 13.9547 31.8095C13.8898 30.9583 13.8535 30.084 13.701 29.2433C13.4605 30.0497 13.2422 30.8415 12.9308 31.6313C12.8036 31.9539 12.8174 32.6667 12.504 32.7781L12.3686 32.6927C12.2667 32.4912 12.282 32.578 12.2982 32.3635C12.6063 32.0859 12.769 31.2585 12.9299 30.8461C13.1246 30.3473 13.3493 29.8118 13.4887 29.2997C12.917 29.7088 11.3057 31.7436 10.9997 31.8537C10.8026 31.748 10.841 31.8071 10.7862 31.6388C10.8372 31.5281 12.6865 29.7536 13.0287 29.326C12.3708 29.6761 11.0201 30.1795 10.6619 30.7964L10.5772 30.9427C10.4045 31.0031 10.3965 31.011 10.2287 30.9604L10.1577 30.826C10.1682 30.4939 10.1508 30.6043 10.3493 30.3078C10.3269 29.3988 10.3099 28.5157 10.242 27.6084C9.93501 28.4429 9.52722 29.6284 9.48014 30.5366C9.47303 30.6738 9.50452 30.6355 9.44975 30.7802C9.2889 30.8761 9.36414 30.8606 9.1624 30.8253C9.01955 30.6679 9.05688 30.7452 9.02442 30.5316C9.07225 30.4729 9.23448 30.2751 9.24457 30.2103C9.40204 29.2016 9.85776 28.2554 10.0032 27.2493C9.41724 27.8453 8.88226 28.6285 8.32969 29.2654C8.11298 29.5152 8.03499 29.9983 7.70462 30.0211C7.55065 29.9028 7.59836 29.9652 7.52564 29.7827C7.59916 29.5419 7.8965 29.4754 8.10466 29.2103C8.65019 28.5155 9.22651 27.8509 9.75724 27.144C8.99047 27.3921 7.91513 28.0139 7.15061 28.3618C7.01137 28.4252 7.02279 28.6139 6.81004 28.7489C6.62315 28.7411 6.69666 28.7628 6.53162 28.6543C6.44377 28.4422 6.45753 28.5356 6.52159 28.2721L6.63708 28.2041C7.18627 28.2895 7.75073 27.7354 8.26213 27.5314C8.53446 27.4227 8.88714 27.3338 9.11027 27.168C8.52615 26.964 7.55793 27.2815 6.86508 27.3223L6.63278 27.5668C6.41894 27.6479 6.27919 27.6958 6.11851 27.5264C6.07911 26.9546 6.42014 27.1327 6.51322 26.8656C6.76949 26.13 7.05989 25.2802 7.25612 24.5314C6.65595 25.0666 6.21009 25.8794 5.75505 26.5428C5.59271 26.7794 5.6317 27.1117 5.32439 27.1647C5.1601 27.0659 5.20884 27.123 5.13555 26.9528C5.24239 26.6445 5.6793 26.2507 5.85632 25.9518C6.22913 25.3223 6.81778 24.7118 7.16368 24.0798L7.19723 24.0174C6.62894 24.2748 5.0996 25.1849 4.55252 25.6104C4.46175 25.681 4.52809 25.7977 4.27692 25.8829C4.07541 25.822 4.1339 25.8704 4.02156 25.7176C4.15942 25.2945 6.41326 24.3899 6.7672 23.9005L6.72241 23.8317L6.43597 23.8252L6.45449 23.6046C6.26698 23.3523 4.54656 23.0892 4.13774 23.0162L3.87361 23.1533C3.64446 23.1483 3.56257 23.0872 3.51205 22.8797C3.54835 22.7283 3.54451 22.6829 3.65174 22.5814C4.02552 22.5531 4.01807 22.5471 4.23942 22.2447C4.66274 21.6664 5.20075 21.099 5.53599 20.4648C4.88983 20.8284 4.26511 21.2451 3.6873 21.7096C3.43131 21.9155 3.11046 22.4551 2.7852 22.2203L2.76478 22.0521C2.91474 21.7875 3.2591 21.7212 3.53367 21.5406C4.25318 21.0673 4.96145 20.5861 5.65705 20.0782C4.94717 20.1531 4.16458 20.2503 3.45975 20.3752C3.13552 20.4326 2.69459 20.6824 2.34777 20.728C2.15589 20.6409 2.20401 20.6949 2.1103 20.533L2.1524 20.4235C2.4253 20.2235 2.95603 20.2923 3.29787 20.2263C4.06153 20.0791 4.82101 19.9277 5.59191 19.8226C4.65213 19.339 3.38652 19.2041 2.36211 19.0181C2.23709 18.9954 2.1985 18.8729 2.16472 18.7646C2.24535 18.5915 2.19122 18.6463 2.373 18.5634C2.61001 18.602 2.63312 18.806 2.82385 18.8449C3.69894 19.0237 4.53343 19.2298 5.38781 19.4881C4.73603 18.907 4.12071 18.6065 3.38658 18.167C2.97295 17.9194 2.87483 18.1369 2.64768 17.9695C2.49893 17.2669 3.15565 17.5365 3.18507 17.5201C3.94874 17.0934 4.70884 16.6012 5.46001 16.1407C4.75226 16.2695 3.23249 16.5444 2.53563 16.855C2.45822 16.8895 2.49681 16.9366 2.23686 17.0064L2.12888 16.944C2.09321 16.7488 2.0978 16.7259 2.17545 16.5428C2.40299 16.4024 2.58931 16.57 2.85264 16.5081C3.7853 16.2887 4.71693 16.0411 5.64122 15.7882C4.82893 15.49 3.3735 15.2887 2.48282 15.2758C2.25051 15.2724 2.2204 15.3767 2.12802 15.0997C2.18732 14.8686 2.13834 14.943 2.29765 14.7968C2.60227 14.8319 2.60278 15.033 2.68232 15.0422C3.55603 15.1428 4.88776 15.3614 5.71531 15.4678C5.39733 15.2036 2.78841 13.6097 2.76869 13.5696C2.70555 13.4414 2.70452 13.3884 2.74408 13.2548C3.07623 13.2122 3.38922 13.6446 3.66723 13.8353C4.27256 14.2503 4.86224 14.6844 5.48863 15.069C5.24629 14.5882 4.46307 13.5814 4.06119 13.1676C3.93641 13.0391 3.63993 12.993 3.49215 12.8068C3.50047 12.6446 3.5878 12.412 3.73834 12.3434C3.87258 12.4229 3.98842 12.5009 4.11722 12.5875C4.92716 12.361 5.70189 12.1784 6.51574 11.9336C5.5833 11.6865 4.3193 11.8048 3.44128 11.5919C3.3774 11.5765 3.39174 11.5117 3.38566 11.4307C3.53539 11.2839 3.46411 11.3196 3.65346 11.2764C4.07191 11.6025 6.34863 11.6708 6.97427 11.7209C6.23434 11.1535 5.30839 10.7056 4.50263 10.2268C4.37573 10.1513 4.19234 10.1768 4.01789 10.1081L3.98417 9.98832C4.03842 9.75338 3.99249 9.78887 4.1405 9.65468C4.50034 9.70394 4.48813 10.0205 4.64663 10.0763C5.0317 10.2118 6.79478 11.3565 7.03724 11.4051C7.10364 10.9743 5.37646 9.15354 5.10407 8.63634C5.1461 8.43327 5.1051 8.48689 5.23723 8.36411C5.31092 8.38912 5.35404 8.40472 5.39819 8.47468C5.95725 9.36021 6.4491 10.1207 7.12297 10.9255C6.99256 10.2699 6.70578 9.41102 6.46046 8.77282C6.42261 8.67441 6.16008 8.48798 6.04648 8.24667C6.04494 8.00846 6.00909 8.06328 6.12659 7.90925C6.46011 7.85339 6.52359 7.98689 6.73646 8.19363C7.57393 8.30906 8.459 8.44388 9.3026 8.45529C8.54152 8.07027 7.77131 7.70343 6.99279 7.355C6.73365 7.241 6.64419 7.31469 6.42095 7.17533C6.34921 6.98724 6.35936 7.06838 6.38677 6.86538C6.52067 6.75012 6.44538 6.77879 6.61879 6.77277C6.85539 6.85408 6.89513 6.95736 7.0276 7.17189C7.8856 7.51144 8.85147 7.9885 9.6961 8.38889C9.28224 7.74874 8.48136 6.90954 7.99244 6.2925C7.7681 6.00938 7.50712 6.03501 7.41652 5.72512C7.51297 5.55231 7.45425 5.60137 7.63345 5.53673C7.65026 5.5421 7.77017 5.58051 7.77017 5.58051C8.26311 6.30769 9.44832 7.74633 9.98364 8.28452C9.70631 7.15905 9.31384 5.98466 8.94385 4.88809C8.91684 4.80797 9.0106 4.72675 9.05998 4.67015L9.19944 4.66066C9.27663 4.71416 9.40107 4.84851 9.3818 4.90038C9.25581 5.2462 9.43926 5.42379 9.51725 5.74811C9.6894 6.46419 9.83139 7.13089 10.0774 7.82828C10.1449 7.22838 10.3369 5.41222 10.0027 4.93628C9.93661 4.84224 9.96505 4.91198 9.96758 4.76365C10.0687 4.60625 10.0874 4.59419 10.2599 4.52028C10.5397 4.55215 10.7295 5.05047 10.9299 5.15068C11.5861 5.47889 12.3469 5.84388 13.0098 6.14374C12.6298 5.65551 11.4267 4.44929 10.8776 4.08066C10.7709 4.00894 10.7947 4.04257 10.6778 3.92183L10.6962 3.81189C10.8628 3.63872 10.7845 3.67853 10.9925 3.62623C11.1664 3.73479 11.4079 4.23162 11.5968 4.41961C12.2203 5.03993 12.8552 5.66981 13.4961 6.27053C13.1416 5.67069 12.953 4.82504 12.6786 4.15742C12.5454 3.83338 12.3189 3.33605 12.2204 3.02211C12.2601 2.82618 12.2195 2.88991 12.3566 2.76223C12.6638 2.9065 13.252 5.35061 13.5633 5.95295L13.6299 5.93076C13.8189 5.37176 13.7688 4.09407 13.8561 3.46005C13.9053 3.10287 13.6287 2.63204 14.0167 2.43161L14.1532 2.47625C14.3119 2.71695 14.1977 2.82926 14.1582 3.11044C14.0358 3.9826 13.973 4.83392 14.0219 5.71365C14.3137 5.14851 14.9191 2.94862 15.1952 2.77456L15.3349 2.80882C15.4826 2.94758 15.4891 3.1352 15.5216 3.33598C16.0925 3.83264 16.6779 4.57289 17.2646 5.13988C16.9463 4.12108 16.4939 3.40489 16.0738 2.44152C16.0092 2.29352 16.026 2.21765 16.085 2.09455L16.2172 2.09769C16.2291 2.10751 16.3319 2.19218 16.3319 2.19234C16.643 3.03581 17.1751 4.56758 17.6121 5.2658L17.6282 5.29071C17.7033 4.81441 17.7572 2.81835 17.6953 2.31863Z" fill="var(--fill-0, #333333)"/>
<path id="Vector_3" d="M16.9278 10.4361C20.946 10.0038 24.5542 12.9104 24.9871 16.9288C25.4201 20.9471 22.5138 24.5557 18.4956 24.9894C14.4767 25.4231 10.8671 22.5162 10.4339 18.497C10.0009 14.4778 12.9083 10.8686 16.9278 10.4361Z" fill="var(--fill-0, white)"/>
<path id="Vector_4" d="M13.2478 13.1429L14.2753 13.158C14.453 13.1695 14.9017 13.1738 15.0256 13.2592C14.7448 13.5106 14.6512 13.6361 14.6231 14.0256C14.5489 15.0575 14.6416 16.1135 14.6177 17.1492C14.7704 17.172 15.0751 17.1995 15.1927 17.2733C14.896 17.3226 14.8214 17.3072 14.639 17.4985C14.5871 17.7069 14.5605 19.933 14.7346 20.1873C14.9077 20.4402 15.2811 20.4826 15.5738 20.5304C15.2206 20.6024 14.0702 20.4459 13.438 20.5133L13.4256 20.391C13.6827 19.9269 13.6344 18.8386 13.6285 18.2933C13.6125 16.8435 13.683 15.3869 13.598 13.9404C13.5808 13.6473 13.5184 13.4897 13.2885 13.3003L13.2478 13.1429Z" fill="var(--fill-0, #333333)"/>
<path id="Vector_5" d="M19.5745 13.1335C21.8953 13.2956 23.0439 15.2106 22.8392 17.3804C22.6648 19.2295 21.6682 20.407 19.8945 20.8584L19.8595 20.7803C20.8699 20.2793 21.3734 19.5497 21.6326 18.4444C22.0725 16.5699 21.7645 13.7836 19.5453 13.2482L19.5745 13.1335Z" fill="var(--fill-0, #333333)"/>
<path id="Vector_6" d="M16.841 14.0179L17.0796 14.4541C16.6873 15.4296 16.5956 16.0015 16.622 17.0526C16.6604 18.5922 16.8663 19.4087 17.9988 20.4903C17.7368 20.3861 17.4638 20.2602 17.2046 20.1461C15.0685 19.0104 15.0216 15.459 16.841 14.0179Z" fill="var(--fill-0, #333333)"/>
<path id="Vector_7" d="M16.3553 13.1848C17.0183 13.2501 17.7534 13.4235 18.1795 13.9574C18.804 14.7401 18.699 16.1565 17.8836 16.7789C17.4575 17.1043 17.2362 17.1173 16.735 17.1967C16.9684 16.9186 17.3279 16.5449 17.3939 16.1906C17.5367 15.4217 17.625 14.1637 16.9569 13.6171C16.7814 13.4752 16.5744 13.3772 16.353 13.3311L16.3553 13.1848Z" fill="var(--fill-0, #333333)"/>
<path id="Vector_8" d="M19.898 20.8589L19.8837 20.984C20.2725 21.2846 20.5982 21.7291 20.9796 21.9662C21.416 22.2271 22.435 21.9697 22.4166 21.3814C22.4086 21.1126 22.0336 20.8923 22.2595 20.5098C22.5021 20.329 22.7636 20.3661 22.9368 20.6168C23.0727 21.2569 22.564 21.7739 22.0428 22.0646C20.6217 22.8568 19.8034 21.5293 18.578 21.1238C17.7149 20.8381 17.8525 21.6707 17.4855 21.8819L17.4047 21.8307C17.2946 21.3296 17.755 21.0547 18.1157 20.8333C18.6479 20.5063 19.4393 20.9129 19.8631 20.7808L19.898 20.8589Z" fill="var(--fill-0, #333333)"/>
<path id="Vector_9" d="M14.2766 13.1585C14.6346 13.1494 16.1023 13.0903 16.3537 13.1851L16.3514 13.3314C15.9783 13.2506 15.4166 13.2595 15.0269 13.2596C14.9029 13.1742 14.4543 13.1699 14.2766 13.1585Z" fill="var(--fill-0, #333333)"/>
<path id="Vector_10" d="M18.6998 13.1349C18.9114 13.1041 19.3776 13.0556 19.5743 13.134L19.5451 13.2487C19.2044 13.2186 19.0479 13.2255 18.7038 13.2488L18.6998 13.1349Z" fill="var(--fill-0, #333333)"/>
<path id="Vector_11" d="M18.7007 13.2474C18.4931 13.337 18.3406 13.434 18.1267 13.3957L18.1123 13.3181C18.2872 13.1672 18.4667 13.166 18.6967 13.1335L18.7007 13.2474Z" fill="var(--fill-0, #333333)"/>
<path id="Vector_12" d="M13.4362 20.5138C13.2656 20.5454 12.8615 20.6459 12.7349 20.5243C12.9285 20.4051 13.1904 20.4104 13.4238 20.3915L13.4362 20.5138Z" fill="var(--fill-0, #333333)"/>
<path id="Vector_13" d="M13.2879 13.3018C13.101 13.2687 12.8328 13.251 12.7069 13.1327C12.896 13.0715 13.047 13.1146 13.2471 13.1444L13.2879 13.3018Z" fill="var(--fill-0, #333333)"/>
<path id="Vector_14" d="M29.1802 15.8053C29.4469 15.7597 31.9741 17.3936 32.3904 17.6531C31.6214 18.2812 30.213 19.0475 29.3178 19.6515L28.3407 19.5002C27.2706 19.3489 26.1988 19.2146 25.1247 19.0971C25.2234 18.0065 25.283 17.6904 25.1299 16.5879C26.4833 16.3437 27.8332 16.0829 29.1802 15.8053Z" fill="var(--fill-0, white)"/>
<path id="Vector_15" d="M27.9966 11.9625C28.8694 12.0754 30.7187 12.4483 31.521 12.703C30.8002 13.6224 30.014 14.7105 29.2627 15.574C28.6996 15.7126 28.0465 15.8354 27.473 15.9576C26.6472 16.0668 25.9327 16.2984 25.1173 16.4309C24.9653 15.6057 24.6206 14.7913 24.3259 14.0014C25.5737 13.4021 26.7734 12.6362 27.9966 11.9625Z" fill="var(--fill-0, white)"/>
<path id="Vector_16" d="M15.2116 3.37178C15.5218 3.51236 17.5278 5.77826 17.7211 6.18542C17.6637 7.2665 17.6958 9.13162 17.7389 10.2232C17.1574 10.2067 16.7898 10.2516 16.2313 10.3605C16.0023 10.4054 15.586 10.5459 15.3491 10.618L15.3369 10.5918C14.9171 9.67268 14.176 7.65462 13.9005 6.67962C14.2188 5.84111 14.819 4.12869 15.2116 3.37178Z" fill="var(--fill-0, white)"/>
<path id="Vector_17" d="M28.6503 8.35563C28.7231 8.33711 28.7862 8.33762 28.8613 8.33269C28.9639 8.5927 28.0252 11.2972 27.8509 11.782C26.7103 12.4981 25.4045 13.1808 24.2238 13.9115C24.0707 13.7295 23.8895 13.4677 23.7449 13.2713C23.4255 12.8385 23.0396 12.4494 22.6691 12.0589C23.445 11.0164 24.5753 9.80344 25.4487 8.81744C26.486 8.63743 27.6043 8.49968 28.6503 8.35563Z" fill="var(--fill-0, white)"/>
<path id="Vector_18" d="M6.23026 15.8448C6.78284 15.8639 9.82776 16.3551 10.2745 16.5351C10.185 17.5287 10.1717 18.186 10.3578 19.1578C9.41247 19.2137 8.39011 19.3898 7.44346 19.5336L6.29495 19.72C5.64333 19.2177 3.94459 18.2515 3.21092 17.8098C4.19519 17.2169 5.30167 16.5116 6.23026 15.8448Z" fill="var(--fill-0, white)"/>
<path id="Vector_19" d="M22.5247 23.4804C22.6285 23.5809 23.1738 24.2618 23.3114 24.4245C23.9663 25.1903 24.6132 25.9626 25.2526 26.7414L25.1591 30.3301C24.8099 30.192 24.2622 29.8499 23.8803 29.6591C23.2707 29.404 22.5763 29.002 21.9925 28.6821C21.5429 27.8788 20.7659 25.6708 20.4218 24.7299C21.3204 24.3033 21.7109 24.0644 22.5247 23.4804Z" fill="var(--fill-0, white)"/>
<path id="Vector_20" d="M25.0947 19.2694C25.4434 19.3574 26.0145 19.4001 26.393 19.445C27.3541 19.5586 28.4265 19.6461 29.364 19.8738C29.6318 20.163 31.3402 22.408 31.4921 22.7036C31.1177 22.8012 30.5356 22.8852 30.1371 22.9532C29.5412 23.0576 28.6512 23.3096 28.0313 23.4572C26.7795 22.784 25.5036 22.128 24.242 21.4706C24.6239 20.6588 24.8378 20.1276 25.0947 19.2694Z" fill="var(--fill-0, white)"/>
<path id="Vector_21" d="M10.4611 5.0868C11.3677 5.64074 12.6615 6.26181 13.6445 6.80596C14.058 7.77087 14.7619 9.69826 15.0924 10.7013C14.7207 10.8322 14.557 10.9036 14.2092 11.0888C13.7222 11.3299 13.3769 11.6157 12.9527 11.9468C12.1569 11.0788 11.0522 9.66976 10.3694 8.71702C10.3861 7.57337 10.374 6.2106 10.4611 5.0868Z" fill="var(--fill-0, white)"/>
<path id="Vector_22" d="M24.1098 21.6139C24.927 21.9704 27.1296 23.2126 27.9376 23.6978C28.0792 24.2798 28.8345 26.5352 29.073 27.0508L27.722 26.8952C26.8538 26.7505 26.3686 26.8245 25.4121 26.5325C24.7658 25.9104 23.3127 24.0846 22.6785 23.3307C23.311 22.7475 23.6327 22.3206 24.1098 21.6139Z" fill="var(--fill-0, white)"/>
<path id="Vector_23" d="M24.8787 5.11012C24.9131 5.11925 24.9825 5.16243 25.0175 5.18198C25.1356 5.50602 25.228 8.18067 25.2417 8.67935C25.0129 8.9963 24.5599 9.485 24.2864 9.80316C23.6842 10.4952 23.0947 11.1979 22.5178 11.911L21.5911 11.3189C21.2098 11.0828 20.8955 10.9192 20.4964 10.7155C20.8015 9.67298 21.5223 7.8741 21.9243 6.81217C22.9686 6.10699 23.8373 5.81705 24.8787 5.11012Z" fill="var(--fill-0, white)"/>
<path id="Vector_24" d="M6.61766 8.39797C7.08159 8.41781 9.74705 8.77438 10.1887 8.8877C10.8074 9.54098 12.1802 11.3702 12.7574 12.121C12.454 12.4111 12.2259 12.6474 11.9449 12.959C11.6929 13.2775 11.4602 13.6109 11.2241 13.9416C10.1084 13.2389 8.89748 12.5437 7.75705 11.8709C7.47492 11.2264 6.771 9.09357 6.61766 8.39797Z" fill="var(--fill-0, white)"/>
<path id="Vector_25" d="M15.3056 24.8225C16.0773 25.0728 16.8675 25.1743 17.6744 25.2055C17.7042 26.5742 17.7237 27.9432 17.7328 29.3122C17.4352 29.7995 16.2753 31.0555 15.8594 31.5253L15.4059 32.0866C15.0731 31.4706 14.1837 29.3882 14.0093 28.7509C14.2604 27.6893 14.9311 25.896 15.3056 24.8225Z" fill="var(--fill-0, white)"/>
<path id="Vector_26" d="M20.2961 3.38499C20.5037 3.59864 21.5198 6.23939 21.6821 6.68204C21.322 7.8925 20.7267 9.46131 20.2605 10.6522L19.4709 10.4317C18.9089 10.2822 18.4868 10.2351 17.9134 10.2113C18.0212 9.27826 17.9604 7.12292 17.957 6.10227C18.3377 5.46816 19.7249 4.06583 20.2961 3.38499Z" fill="var(--fill-0, white)"/>
<path id="Vector_27" d="M20.141 24.8092C20.3073 24.9602 21.5826 28.3611 21.7013 28.7589C21.5241 29.2369 20.6313 31.775 20.36 31.9727C20.196 31.91 20.0572 31.7322 19.9299 31.5982C19.3777 30.8992 18.5852 30.1132 17.971 29.3875C17.9745 27.9835 17.9613 26.5796 17.932 25.176C18.8685 25.1557 19.2154 25.0441 20.141 24.8092Z" fill="var(--fill-0, white)"/>
<path id="Vector_28" d="M11.3095 21.746C11.4027 21.7827 12.6931 23.327 12.9561 23.5735C12.3608 24.1115 10.8992 25.868 10.2783 26.5736C9.59667 26.7475 8.95566 26.8444 8.2584 26.9232C7.9629 26.9676 6.94921 27.2133 6.74821 27.0829C6.77545 26.6629 7.61774 24.212 7.79855 23.6831C8.97941 23.0527 10.1216 22.369 11.3095 21.746Z" fill="var(--fill-0, white)"/>
<path id="Vector_29" d="M7.4635 12.0138C7.75895 12.0003 10.6073 13.8022 11.1084 14.1011C10.6879 14.9845 10.5789 15.3766 10.3249 16.3393C9.57289 16.1361 8.88228 16.0408 8.11621 15.9315C7.51701 15.8167 7.0021 15.7489 6.3951 15.6756C5.69159 14.8624 4.63994 13.6557 4.10301 12.7495C5.0815 12.5459 6.55802 12.2914 7.4635 12.0138Z" fill="var(--fill-0, white)"/>
<path id="Vector_30" d="M10.1937 19.3705L10.2648 19.3619C10.4015 19.4777 11.0831 21.2317 11.2386 21.5707C10.5132 21.8695 8.37258 23.0791 7.67818 23.525C7.03626 23.3493 6.4237 23.2399 5.7671 23.1378C5.24158 22.9839 4.68826 22.9502 4.12788 22.8072C4.57426 22.1317 5.862 20.501 6.39738 19.8751C7.44725 19.6654 9.10361 19.4985 10.1937 19.3705Z" fill="var(--fill-0, white)"/>
<path id="Vector_31" d="M13.1287 23.6786C13.7115 24.0799 14.5036 24.5195 15.1562 24.7864C14.6879 25.6857 14.1444 27.5969 13.7346 28.6756C13.0458 29.0172 12.6471 29.3518 11.8879 29.6583C11.4414 29.928 11.0478 30.1727 10.576 30.3961C10.5656 29.1128 10.5096 28.0602 10.4285 26.7802C10.974 26.0201 12.4568 24.4205 13.1287 23.6786Z" fill="var(--fill-0, white)"/>
<path id="Vector_32" d="M6.43583 23.8254C5.78427 23.9605 4.72223 23.9845 4.01133 24.0793C3.89405 24.2162 3.85878 24.2849 3.68646 24.3351C3.49596 24.2767 3.56351 24.3211 3.43409 24.1621C3.41516 23.9361 3.39503 24.0234 3.50491 23.8312C3.62195 23.7674 5.92798 23.7561 6.45435 23.6048L6.43583 23.8254Z" fill="var(--fill-0, #333333)"/>
<path id="Vector_33" d="M26.4175 29.9504L26.5763 30.2832C26.6698 30.4807 26.6589 30.6371 26.5368 30.8168C26.1892 30.7248 26.2162 30.3587 26.2064 30.0695L26.4175 29.9504Z" fill="var(--fill-0, #333333)"/>
<path id="Vector_34" d="M31.043 25.2188C31.2397 25.2537 31.3963 25.2626 31.5465 25.3972C31.6343 25.5928 31.6302 25.5141 31.5844 25.6989C31.4335 25.8127 31.5069 25.787 31.3011 25.7829C31.1164 25.6709 31.1164 25.6301 31.0465 25.4231L31.043 25.2188Z" fill="var(--fill-0, #333333)"/>
</g>
</svg>
