<svg preserveAspectRatio="none" width="100%" height="100%" overflow="visible" style="display: block;" viewBox="0 0 24 24" fill="none" xmlns="http://www.w3.org/2000/svg">
<g id="IconInstagram">
<path id="Vector" d="M11.4163 4.28696C13.9138 4.28696 14.2097 4.29631 15.1962 4.34138C15.7891 4.34854 16.3765 4.45755 16.9326 4.66366C17.3389 4.81362 17.7065 5.05276 18.0082 5.3635C18.319 5.66525 18.5582 6.03283 18.7081 6.43919C18.9142 6.99526 19.0232 7.58261 19.0304 8.17561C19.0755 9.16201 19.0848 9.45793 19.0848 11.9554C19.0848 14.4529 19.0755 14.7488 19.0304 15.7352C19.0232 16.3282 18.9142 16.9156 18.7081 17.4716C18.5524 17.8751 18.3141 18.2416 18.0082 18.5473C17.7025 18.8531 17.3361 19.0915 16.9326 19.2472C16.3765 19.4533 15.7891 19.5623 15.1962 19.5694C14.2097 19.6145 13.9138 19.6239 11.4163 19.6239C8.91887 19.6239 8.62294 19.6145 7.63655 19.5694C7.04327 19.5624 6.45562 19.4534 5.89928 19.2472C5.49323 19.0971 5.12595 18.858 4.82443 18.5473C4.5137 18.2455 4.27456 17.878 4.1246 17.4716C3.91849 16.9156 3.80947 16.3282 3.80232 15.7352C3.75725 14.7488 3.7479 14.4529 3.7479 11.9554C3.7479 9.45793 3.75725 9.16201 3.80232 8.17561C3.80947 7.58261 3.91849 6.99526 4.1246 6.43919C4.27456 6.03283 4.5137 5.66525 4.82443 5.3635C5.12619 5.05276 5.49377 4.81362 5.90013 4.66366C6.4562 4.45755 7.04355 4.34854 7.63655 4.34138C8.62294 4.29631 8.91887 4.28696 11.4163 4.28696ZM11.4163 2.60156C8.87635 2.60156 8.55747 2.61262 7.56001 2.65769C6.78408 2.67316 6.01639 2.82009 5.28958 3.09222C4.66513 3.32732 4.09953 3.69587 3.63224 4.17216C3.15637 4.63928 2.78811 5.20458 2.55315 5.82864C2.28132 6.5555 2.13468 7.32319 2.11947 8.09907C2.0727 9.09653 2.0625 9.41542 2.0625 11.9554C2.0625 14.4954 2.07356 14.8142 2.11862 15.8118C2.1341 16.5876 2.28103 17.3553 2.55315 18.0822C2.78826 18.7066 3.15681 19.2722 3.6331 19.7395C4.10022 20.2153 4.66552 20.5836 5.28958 20.8186C6.01644 21.0905 6.78413 21.2371 7.56001 21.2522C8.55747 21.299 8.87635 21.3093 11.4163 21.3093C13.9564 21.3093 14.2752 21.2982 15.2727 21.2531C16.0486 21.2377 16.8163 21.0908 17.5431 20.8186C18.1647 20.5783 18.7292 20.2107 19.2004 19.7395C19.6717 19.2682 20.0392 18.7038 20.2796 18.0822C20.5514 17.3553 20.698 16.5876 20.7132 15.8118C20.76 14.8142 20.7702 14.4954 20.7702 11.9554C20.7702 9.41542 20.7592 9.09653 20.7141 8.09907C20.6986 7.32314 20.5517 6.55545 20.2796 5.82864C20.0444 5.2042 19.6759 4.63859 19.1996 4.17131C18.7324 3.69543 18.1672 3.32717 17.5431 3.09222C16.8163 2.82038 16.0486 2.67374 15.2727 2.65853C14.2752 2.61176 13.9564 2.60156 11.4163 2.60156ZM11.4163 7.15179C10.4663 7.15179 9.5375 7.43351 8.7476 7.96134C7.95764 8.48917 7.34195 9.2394 6.97838 10.1171C6.6148 10.9949 6.51968 11.9607 6.70502 12.8926C6.89037 13.8244 7.34788 14.6803 8.01967 15.352C8.69147 16.0238 9.54735 16.4814 10.4792 16.6667C11.411 16.8521 12.3768 16.757 13.2546 16.3934C14.1324 16.0298 14.8826 15.4141 15.4104 14.6242C15.9383 13.8343 16.22 12.9055 16.22 11.9554C16.22 10.6814 15.7139 9.45959 14.813 8.55873C13.9122 7.65788 12.6903 7.15179 11.4163 7.15179ZM11.4163 15.0737C10.7996 15.0737 10.1967 14.8907 9.68392 14.5481C9.17116 14.2055 8.77149 13.7185 8.53548 13.1487C8.29947 12.579 8.23771 11.952 8.35803 11.3471C8.47835 10.7422 8.77533 10.1865 9.21143 9.75049C9.64748 9.31439 10.2031 9.01742 10.8081 8.8971C11.4129 8.77678 12.0399 8.83853 12.6096 9.07454C13.1794 9.31055 13.6664 9.71022 14.009 10.223C14.3517 10.7358 14.5346 11.3386 14.5346 11.9554C14.5346 12.7824 14.2061 13.5756 13.6213 14.1604C13.0365 14.7451 12.2433 15.0737 11.4163 15.0737ZM16.4096 5.8397C16.1876 5.8397 15.9706 5.90553 15.786 6.02886C15.6015 6.1522 15.4575 6.3275 15.3726 6.53261C15.2877 6.73772 15.2654 6.9634 15.3087 7.18114C15.3521 7.39887 15.4589 7.59888 15.6159 7.75586C15.7729 7.91283 15.9729 8.01974 16.1906 8.06305C16.4083 8.10636 16.634 8.08413 16.8391 7.99917C17.0442 7.91422 17.2196 7.77035 17.3428 7.58576C17.4662 7.40118 17.5321 7.18416 17.5321 6.96216C17.5321 6.66446 17.4138 6.37896 17.2033 6.16846C16.9928 5.95795 16.7073 5.8397 16.4096 5.8397Z" fill="var(--fill-0, white)"/>
</g>
</svg>
