<svg preserveAspectRatio="none" width="100%" height="100%" overflow="visible" style="display: block;" viewBox="0 0 20.0447 23.933" fill="none" xmlns="http://www.w3.org/2000/svg">
<path id="Vector" d="M0 0C1.23888 0 2.47777 0 3.75419 0C5.0121 3.76461 5.0121 3.76461 5.48045 5.21229C5.90814 6.5341 6.3482 7.85172 6.78842 9.16939C7.239 10.5181 7.68693 11.8675 8.12414 13.2207C8.31341 13.8059 8.50586 14.3898 8.70278 14.9725C8.72421 15.0361 8.74564 15.0997 8.76773 15.1652C8.86989 15.4683 8.9725 15.7711 9.07609 16.0737C9.28239 16.6817 9.45864 17.2867 9.59568 17.914C9.67152 18.2459 9.76704 18.5694 9.86601 18.8951C9.92571 19.121 9.95994 19.3437 9.98883 19.5754C10.0331 19.5754 10.0773 19.5754 10.1229 19.5754C10.1295 19.5339 10.136 19.4923 10.1428 19.4495C10.2266 18.9534 10.3464 18.4723 10.4817 17.988C10.5099 17.8868 10.538 17.7856 10.566 17.6844C10.9613 16.258 11.4381 14.8573 11.9042 13.453C12.0784 12.9282 12.252 12.4032 12.4257 11.8782C12.4689 11.7476 12.5122 11.6169 12.5554 11.4862C12.9699 10.2342 13.3787 8.98027 13.7862 7.72592C13.9536 7.21076 14.122 6.69592 14.2909 6.18122C14.3166 6.1026 14.3424 6.02399 14.369 5.94299C14.4197 5.78849 14.4704 5.63399 14.5211 5.4795C14.8856 4.36883 15.2498 3.25812 15.6075 2.14525C15.7793 1.61126 15.9511 1.07732 16.1271 0.544693C16.1432 0.495521 16.1593 0.44635 16.1759 0.395688C16.2826 0.0749417 16.2826 0.0749417 16.3575 0C17.5743 0 18.7911 0 20.0447 0C20.0447 7.89788 20.0447 15.7958 20.0447 23.933C19.1155 23.933 18.1864 23.933 17.2291 23.933C17.2275 21.8759 17.2263 19.8189 17.2256 17.7619C17.2255 17.5179 17.2255 17.2738 17.2254 17.0298C17.2253 16.9569 17.2253 16.9569 17.2253 16.8826C17.225 16.1009 17.2245 15.3191 17.2239 14.5374C17.2232 13.7325 17.2229 12.9276 17.2227 12.1227C17.2227 11.6717 17.2225 11.2208 17.222 10.7699C17.2174 6.40227 17.2174 6.40227 17.3631 4.49162C17.3189 4.49162 17.2746 4.49162 17.2291 4.49162C17.2206 4.62306 17.2206 4.62306 17.212 4.75716C17.1602 5.27432 17.0241 5.77363 16.898 6.27654C16.8736 6.37551 16.8492 6.4745 16.8249 6.5735C16.759 6.84057 16.6925 7.10746 16.6257 7.3743C16.596 7.49794 16.596 7.49794 16.5657 7.62407C16.4949 7.90655 16.4081 8.18186 16.3162 8.45811C16.2991 8.51035 16.2819 8.56259 16.2642 8.61641C16.2072 8.78929 16.15 8.96208 16.0928 9.13486C16.0521 9.25832 16.0113 9.38179 15.9706 9.50526C15.8613 9.83668 15.7518 10.168 15.6421 10.4993C15.5512 10.7744 15.4604 11.0495 15.3695 11.3246C14.9201 12.6858 14.4693 14.0466 14.0159 15.4064C13.9981 15.4599 13.9802 15.5134 13.9618 15.5685C13.7951 16.0685 13.6282 16.5684 13.4608 17.0682C13.4005 17.2484 13.3402 17.4287 13.28 17.6089C13.2401 17.728 13.2002 17.8469 13.1602 17.9659C13.027 18.3644 12.8981 18.764 12.7735 19.1653C12.6101 19.6919 12.4377 20.2153 12.2627 20.7381C12.2316 20.8313 12.2005 20.9244 12.1694 21.0176C12.0889 21.2588 12.0083 21.4999 11.9277 21.741C11.8303 22.0324 11.733 22.324 11.6357 22.6155C11.4891 23.0547 11.3423 23.4938 11.1955 23.933C10.4434 23.933 9.69117 23.933 8.9162 23.933C8.8667 23.7843 8.8172 23.6357 8.7662 23.4825C8.29881 22.079 7.8313 20.6755 7.3637 19.272C7.12332 18.5505 6.88298 17.829 6.64273 17.1075C6.43318 16.4782 6.22355 15.8489 6.01384 15.2196C5.90295 14.8868 5.79208 14.554 5.68131 14.2212C5.57674 13.907 5.47207 13.5929 5.36733 13.2788C5.3292 13.1644 5.2911 13.0499 5.25303 12.9355C5.03426 12.2777 4.8102 11.6222 4.57787 10.9691C3.45111 7.79614 3.45111 7.79614 3.12295 6.21925C3.06485 5.9436 3.00105 5.66931 2.93784 5.3948C2.87381 5.1163 2.81111 4.8375 2.7486 4.55866C2.74656 4.77374 2.74544 4.98882 2.74441 5.20391C2.74357 5.29089 2.74357 5.29089 2.74271 5.37963C2.74139 5.75848 2.75271 6.13536 2.77264 6.51359C2.81875 7.40392 2.82474 8.29221 2.82325 9.18354C2.82323 9.34557 2.82325 9.50761 2.82328 9.66964C2.8233 10.0597 2.82301 10.4498 2.82258 10.8399C2.8221 11.2948 2.822 11.7497 2.82193 12.2045C2.82178 13.0153 2.82134 13.8262 2.8207 14.637C2.82008 15.4235 2.81961 16.2101 2.81933 16.9966C2.81931 17.0453 2.81929 17.094 2.81927 17.1441C2.81918 17.3884 2.8191 17.6326 2.81902 17.8768C2.81832 19.8955 2.81713 21.9143 2.81564 23.933C1.88648 23.933 0.957318 23.933 0 23.933C0 16.0351 0 8.13721 0 0Z" fill="var(--fill-0, white)"/>
</svg>
