<svg preserveAspectRatio="none" width="100%" height="100%" overflow="visible" style="display: block;" viewBox="0 0 16.5725 13.216" fill="none" xmlns="http://www.w3.org/2000/svg">
<path id="Vector" d="M15.8324 0L15.9037 0.0236932C15.9641 0.163445 15.9221 0.273275 15.8565 0.409251C14.7907 2.61277 14.5301 4.99545 14.1445 7.36467C15.0102 7.38926 15.7149 7.37274 16.5725 7.32172C15.7408 8.03946 15.1064 8.17992 14.0685 8.28309C14.0189 9.56621 13.6149 11.0326 13.1344 12.2206C13.049 12.431 12.5836 13.3402 12.2938 13.2017C12.2253 12.9137 12.6166 11.4695 12.695 11.0645C12.889 10.06 12.9433 9.25451 12.9777 8.23066C12.1947 8.21277 10.8542 8.224 10.1292 8.13489C9.64865 9.40484 9.1016 10.459 8.02684 11.3572C6.34037 12.7665 3.68109 13.0633 1.56321 12.8498C-0.257317 12.5401 -0.439041 10.9648 0.765045 9.88073C2.86075 7.99387 7.04696 7.30148 9.69869 7.27651C9.82141 5.16781 9.73692 4.25822 9.29512 2.15113C9.491 1.97451 10.1731 1.51778 10.4317 1.32927C10.8674 3.72427 10.7782 4.95627 10.3444 7.2902C11.2639 7.27245 12.1838 7.30242 13.1 7.37996C13.1972 6.80906 13.2439 6.18487 13.3525 5.61208C13.6862 3.84821 14.44 1.24621 15.8324 0Z" fill="var(--fill-0, #FBFBFB)"/>
</svg>
