<svg preserveAspectRatio="none" width="100%" height="100%" overflow="visible" style="display: block;" viewBox="0 0 2.57692 20" fill="none" xmlns="http://www.w3.org/2000/svg">
<path id="Vector" d="M0 0C0.848045 0 1.69609 0 2.56983 0C2.57109 2.53981 2.57209 5.07963 2.57269 7.61944C2.57275 7.91896 2.57283 8.21847 2.5729 8.51798C2.57292 8.57762 2.57293 8.63725 2.57295 8.69868C2.57319 9.66555 2.57363 10.6324 2.57414 11.5993C2.57466 12.5906 2.57498 13.5819 2.57509 14.5732C2.57517 15.1855 2.57541 15.7977 2.57586 16.4099C2.57616 16.8291 2.57625 17.2483 2.57617 17.6675C2.57614 17.9098 2.57619 18.152 2.57649 18.3943C2.57676 18.6157 2.57678 18.8371 2.57659 19.0585C2.57656 19.1389 2.57664 19.2194 2.57681 19.2998C2.57703 19.4085 2.57688 19.5171 2.57671 19.6258C2.57674 19.7166 2.57674 19.7166 2.57677 19.8093C2.56983 19.9441 2.56983 19.9441 2.51397 20C1.68436 20 0.854749 20 0 20C0 13.4 0 6.8 0 0Z" fill="var(--fill-0, #BFBFBF)"/>
</svg>
