<svg preserveAspectRatio="none" width="100%" height="100%" overflow="visible" style="display: block;" viewBox="0 0 17.1594 9.89975" fill="none" xmlns="http://www.w3.org/2000/svg">
<path id="Vector" d="M10.7938 0.0237029C12.9804 -0.0962381 15.7803 0.168717 16.7688 2.47698C17.8602 5.03993 16.5718 7.66907 14.0533 8.71497C12.0977 9.52713 10.7069 9.25892 8.85246 8.526C10.4821 7.36488 10.9137 7.99066 12.6212 8.11249C15.9622 8.35078 17.0078 4.59102 14.9552 2.34329C13.9727 1.26736 12.9401 0.887183 11.5714 0.805059C11.4116 0.790782 11.2512 0.782522 11.0907 0.780163C8.35231 0.746711 4.02591 1.45792 1.92348 3.45957C0.0328665 5.25951 2.64111 6.72536 2.54836 8.77196C2.53131 9.1486 2.49756 9.6227 2.21406 9.89975L2.15093 9.89515C1.59751 8.76813 0.977112 7.69574 0.417137 6.57066C-0.0818312 5.56819 -0.271636 4.37208 0.643995 3.52158C3.24215 1.10801 7.34617 0.210665 10.7938 0.0237029Z" fill="var(--fill-0, #FBFBFB)"/>
</svg>
