<svg preserveAspectRatio="none" width="100%" height="100%" overflow="visible" style="display: block;" viewBox="0 0 94.3454 28.9447" fill="none" xmlns="http://www.w3.org/2000/svg">
<g id="Vector">
<path d="M5.48503 3.08685C6.21791 2.45632 6.94324 2.07715 7.76689 1.61485C10.9334 -0.162497 14.1225 0.00842953 17.6317 0.0101334L25.1517 0.0191482L77.3098 0.0151458C78.5172 0.0155517 79.9658 -0.0378478 81.1444 0.0535079C85.6299 0.401246 89.96 3.11455 92.2497 6.97853C98.0125 16.5484 91.2146 28.6214 80.0975 28.9033C79.1167 28.9282 78.1165 28.9344 77.1281 28.9311L72.4132 28.9251L67.4081 28.9285C66.7784 28.9288 65.4903 28.965 64.9169 28.9176L64.9018 28.9163C64.4274 28.8493 62.8792 28.9452 62.6508 28.8699C62.6758 28.8131 63.3739 28.8166 63.4839 28.8189C68.514 28.9258 73.5616 28.8502 78.5989 28.8684C78.917 28.8696 80.4397 28.842 80.628 28.7498C80.6346 28.5063 80.6351 28.3424 80.6842 28.104C80.738 27.9758 80.7531 27.9487 80.7186 27.8171C80.738 27.8102 80.856 27.7986 80.8848 27.7953C81.3422 27.7167 81.8345 27.7145 82.289 27.6241C95.9536 24.9069 97.2818 6.5033 84.2526 1.7204C81.9053 0.858723 80.3269 1.03123 77.8913 1.02814L44.2708 0.9856C36.5629 0.940427 28.8548 0.936713 21.1468 0.974457L16.1259 0.979776C12.7991 0.977171 11.1801 1.02113 8.08195 2.51391C7.93705 2.08825 8.32687 1.8111 8.28274 1.50203C7.9032 1.42598 5.88949 3.01596 5.48503 3.08685Z" fill="var(--fill-0, #A89457)"/>
<path d="M80.7186 27.8171C80.738 27.8102 80.856 27.7986 80.8848 27.7953C81.0014 28.0516 80.9599 28.3513 80.9089 28.626L80.8117 28.6686L80.8004 28.6541L80.8159 28.7134C80.6682 28.4759 80.7352 28.3459 80.6842 28.104C80.738 27.9758 80.7531 27.9487 80.7186 27.8171Z" fill="var(--fill-0, #A89457)"/>
<path d="M5.48503 3.08685C5.88949 3.01596 7.9032 1.42598 8.28274 1.50203C8.32687 1.8111 7.93705 2.08825 8.08195 2.51391C7.32372 2.9774 6.55541 3.44297 5.8617 4.00117C3.59461 5.82531 1.97601 8.49684 1.29558 11.3243C0.475876 14.7609 1.04407 18.3821 2.87693 21.4025C4.70354 24.3763 7.76214 26.5866 11.1576 27.4289C13.4017 27.9856 15.9312 27.8347 18.2633 27.8348L77.4439 27.8396C78.3303 27.8394 79.878 27.8847 80.7186 27.8171C80.7531 27.9487 80.738 27.9758 80.6842 28.104C80.6351 28.3424 80.6346 28.5063 80.628 28.7498C80.4397 28.842 78.917 28.8696 78.5989 28.8684C73.5616 28.8502 68.514 28.9258 63.4839 28.8189C63.3739 28.8166 62.6758 28.8131 62.6508 28.8699C62.8792 28.9452 64.4274 28.8493 64.9018 28.9163C63.9596 28.9719 62.427 28.9291 61.4618 28.9273L20.5522 28.9188C19.5161 28.9182 18.4742 28.9293 17.4383 28.9169C15.0917 28.8891 12.7219 28.9958 10.4464 28.3285C0.00972827 25.2681 -3.50266 12.2273 4.04665 4.37267C4.53135 3.86841 4.92844 3.5078 5.48503 3.08685Z" fill="var(--fill-0, #A89457)"/>
</g>
</svg>
