<svg preserveAspectRatio="none" width="100%" height="100%" overflow="visible" style="display: block;" viewBox="0 0 43.5497 48" fill="none" xmlns="http://www.w3.org/2000/svg">
<g id="Frame">
<circle id="Ellipse 55" cx="23.2053" cy="14.3046" r="3.17881" fill="var(--fill-0, #BFBFBF)"/>
<path id="Vector" d="M27.6556 31.1523V41.6424H23.2053C20.204 41.6575 18.2781 41.6424 18.1192 41.6424C18.1192 41.6424 18.6227 41.2227 19.989 39.4534C23.0952 35.5347 24.9728 32.5679 26.2308 29.5914C27.8647 25.7261 28.02 22.5574 26.6983 20.0647C26.5267 19.7409 26.3841 19.4352 26.3841 19.3907H31.7881H37.1921V31.1523H27.6556Z" fill="var(--fill-0, #BFBFBF)"/>
<path id="Vector_2" d="M15.894 40.0531C15.894 40.0531 16.1816 39.7601 16.4921 39.3617C18.6127 36.6447 19.2415 35.8001 20.0225 34.6165C21.3242 32.6423 22.0959 30.7778 22.3895 28.8966C22.5625 27.7873 22.5131 26.0406 22.2798 25.0145C21.987 23.7264 20.8267 21.4211 19.3211 19.1371C18.3137 17.6082 17.8572 16.7884 17.3581 15.6074C16.4149 13.3755 16.0764 11.2783 15.894 7.62914C15.8454 6.65708 15.894 6.35762 15.894 6.35762C15.7758 6.35408 15.2368 6.79867 14.8575 8.03809C14.438 9.40941 14.1569 10.9277 14.0047 12.6478C13.8896 13.9536 13.9915 14.6362 14.6319 16.8459C14.8861 17.7224 15.0993 18.7551 15.1403 18.9485L15.2541 19.3909H6.35762L6.37693 25.412L6.35762 31.1525L15.894 31.158V35.7617C15.894 38.3831 15.8508 40.0531 15.894 40.0531Z" fill="var(--fill-0, #BFBFBF)"/>
</g>
</svg>
