<svg preserveAspectRatio="none" width="100%" height="100%" overflow="visible" style="display: block;" viewBox="0 0 9.67365 9.12602" fill="none" xmlns="http://www.w3.org/2000/svg">
<path id="Vector" d="M9.59067 0C9.65359 0.0189735 9.63174 0.00689206 9.67365 0.0791044C9.63849 0.267093 8.81361 1.61893 8.63581 2.12819C7.98935 3.97994 7.74584 6.39924 6.47355 7.92779C4.96521 9.73999 2.14238 8.91875 0.157745 9.05798L0.0257249 9.06072L0 9.00979C0.226043 8.62891 0.925555 8.35738 1.33157 8.24458C1.88066 8.09204 2.45466 8.04441 3.02267 8.03941C3.63321 8.03403 5.02686 8.21607 5.52723 7.99967C6.63479 7.52061 6.27404 2.31419 9.13873 0.304991C9.20424 0.259163 9.27018 0.213901 9.33645 0.169205C9.42085 0.112284 9.50557 0.055882 9.59067 0Z" fill="var(--fill-0, #FBFBFB)"/>
</svg>
