<svg preserveAspectRatio="none" width="100%" height="100%" overflow="visible" style="display: block;" viewBox="0 0 37.9502 26" fill="none" xmlns="http://www.w3.org/2000/svg">
<path id="Union" d="M22.4932 24.5556C22.4932 25.3533 21.8465 26 21.0487 26H1.44444C0.6467 26 0 25.3533 0 24.5556V18.7775C0 17.9797 0.6467 17.333 1.44444 17.333H6.28407C7.08182 17.333 7.72852 16.6863 7.72852 15.8886V10.1114C7.72852 9.31369 8.37522 8.66699 9.17296 8.66699H14.0136C14.8113 8.66699 15.458 8.02029 15.458 7.22255V1.44444C15.458 0.6467 16.1047 0 16.9025 0H36.5058C37.3035 0 37.9502 0.6467 37.9502 1.44444V7.22255C37.9502 8.02029 37.3035 8.66699 36.5058 8.66699H31.6661C30.8684 8.66699 30.2217 9.31369 30.2217 10.1114V15.8886C30.2217 16.6863 29.575 17.333 28.7772 17.333H23.9376C23.1399 17.333 22.4932 17.9797 22.4932 18.7775V24.5556Z" fill="var(--fill-0, #BFBFBF)"/>
</svg>
