<svg preserveAspectRatio="none" width="100%" height="100%" overflow="visible" style="display: block;" viewBox="0 0 28.8902 28.8903" fill="none" xmlns="http://www.w3.org/2000/svg">
<g id="Frame 108">
<path id="Vector" d="M12.9004 0.08411C20.8305 -0.769232 27.9514 4.96728 28.8059 12.8977C29.6604 20.828 23.9247 27.9499 15.9946 28.8057C8.06289 29.6617 0.939145 23.9248 0.0843409 15.9926C-0.77035 8.06048 4.96769 0.937565 12.9004 0.08411Z" fill="var(--fill-0, #BFBFBF)"/>
<path id="Vector_2" d="M14.4326 1.89047C14.3863 1.75125 14.3377 1.66682 14.3831 1.5329C14.4944 1.4415 14.4369 1.45976 14.594 1.47391C14.7217 1.57455 14.6908 1.52139 14.7249 1.66721C14.6931 1.77215 14.7006 1.80175 14.6295 1.87094C14.6595 2.75826 14.5496 3.66641 14.5795 4.40242C14.9578 3.85144 15.1978 3.22472 15.4741 2.62065C15.571 2.40872 15.715 1.82979 15.8604 1.70892C15.9956 1.73286 15.9502 1.72059 16.0625 1.84919C16.0592 2.07355 15.8936 2.11387 15.8109 2.3215C15.5574 2.95937 15.1982 3.50698 14.9812 4.16302C15.4648 3.75753 15.9311 3.21833 16.3356 2.73024C16.4754 2.56136 16.3253 2.37593 16.503 2.24159C16.6531 2.23295 16.6877 2.22416 16.8182 2.29443C16.8935 2.50284 16.7715 2.61348 16.8089 2.73437C17.0165 3.40019 17.3163 4.05877 17.5894 4.70225C17.5992 3.87351 17.5123 2.86109 17.429 2.03577L17.5193 1.961C17.6638 1.99261 17.6114 1.96887 17.7227 2.08667C17.8293 2.53186 17.573 4.55544 17.9121 4.76506C18.1141 4.48157 18.6824 2.80177 18.7759 2.3063C18.8114 2.29221 18.8465 2.27813 18.8821 2.26405C19.0373 2.30106 18.9915 2.2667 19.0761 2.37884C19.05 2.70452 18.0075 4.68995 18.1095 4.92566C18.4396 4.87983 19.4666 3.56121 19.7482 3.28617C19.9025 3.1353 20.0311 2.80236 20.3201 2.98798C20.3159 3.10094 20.2748 3.14862 20.1738 3.23417C19.6336 3.69118 18.8994 4.39211 18.4845 4.9548C18.9934 4.74458 19.5681 4.38506 20.0554 4.11308C20.2883 3.98325 20.3973 3.693 20.5891 3.67643C20.7172 3.73931 20.8014 3.76493 20.8846 3.87958C20.7981 4.05732 20.6718 4.08156 20.6639 4.26904C20.6354 4.92772 20.6976 5.64424 20.7719 6.29642C20.9529 5.84277 21.0998 5.37636 21.2115 4.90097C21.2793 4.61588 21.3687 3.90557 21.602 3.76351C21.7166 3.86446 21.6806 3.83153 21.7278 4.00462L21.7007 4.05561C21.4977 4.44518 20.9763 6.22075 20.9281 6.66247C21.1718 6.40553 22.7057 4.49883 22.7506 4.47269C22.8989 4.50735 22.8451 4.47603 22.9466 4.6047L22.9578 4.72119C22.5318 4.93263 21.3387 6.37125 21.0909 6.80927C21.7409 6.50248 22.4055 6.21406 23.0569 5.90942C23.2772 5.80629 23.4213 5.55057 23.6542 5.50301C23.8235 5.56605 23.7879 5.52447 23.8679 5.65177C23.7407 5.95689 23.6219 5.88028 23.3815 5.96109C22.8287 6.14695 21.9827 6.55448 21.5076 6.86651C22.1936 6.81217 22.8395 6.67159 23.5213 6.60172C23.6995 6.43303 23.6546 6.42554 23.8632 6.38219C24.0348 6.45253 23.9857 6.40436 24.0587 6.55448C24.0316 6.78317 23.9993 6.77359 23.7926 6.89514C23.5761 7.57897 23.3455 8.15281 23.1893 8.85577C23.5915 8.44786 23.9048 7.99978 24.2257 7.52823C24.3599 7.3312 24.5371 6.87301 24.7289 6.82428C24.864 6.91048 24.8275 6.86067 24.8753 7.00275C24.792 7.27891 23.3745 8.79853 23.2931 9.13315L23.3614 9.18422C23.8833 9.01665 25.1329 8.25298 25.5104 7.83867C25.6787 7.82759 25.6146 7.80925 25.7503 7.90602C25.798 8.07564 25.798 8.00325 25.7367 8.18232C25.5791 8.31481 25.4926 8.2094 25.3509 8.30251C24.7911 8.67024 23.8903 9.07969 23.3712 9.44209C23.8782 9.47179 25.3008 9.36689 25.8167 9.28725C25.964 9.15504 25.9359 9.13516 26.1048 9.12543C26.2348 9.2474 26.1955 9.18604 26.2479 9.36292C26.1323 9.60536 25.5033 9.48344 25.2017 9.51033C24.5872 9.56523 24.0101 9.66943 23.3923 9.61682C23.7716 9.72476 25.4033 10.1528 25.7316 10.1694C25.9088 10.0421 25.8835 10.0151 26.0603 10.0214C26.166 10.1336 26.1618 10.1766 26.1819 10.3323C26.1169 10.5216 26.05 10.4612 25.9182 10.5501C25.4757 10.8482 24.8444 11.6766 24.5675 12.1206C25.2606 11.8503 25.978 11.296 26.5345 10.8034C26.5589 10.782 26.6487 10.7583 26.6833 10.7509L26.7796 10.7936C26.8329 10.962 26.8287 10.8894 26.7763 11.0767C26.5977 11.2416 26.5967 11.1498 26.4742 11.2126C26.1548 11.3764 24.7036 12.2639 24.5568 12.4707L24.5886 12.5287C25.0427 12.6137 26.5972 12.1552 27.1023 12.0646C27.2875 12.0313 27.3193 12.1223 27.3403 12.2724C27.1846 12.53 26.9012 12.3352 26.6491 12.3778C25.9313 12.499 25.2662 12.6063 24.5727 12.8318L24.6199 12.8514C25.2475 13.107 26.1136 13.2214 26.7735 13.427C26.9134 13.4706 27.0401 13.3345 27.2202 13.4493C27.3071 13.6077 27.309 13.5573 27.2983 13.7127C27.2052 13.7623 27.1238 13.7843 27.02 13.7382C26.2815 13.4108 25.5585 13.2727 24.7658 13.1146L24.8051 13.1489C25.1498 13.4453 26.1174 13.9881 26.5467 14.2435C26.7235 14.1699 26.6945 14.1461 26.8427 14.2003C27.0537 14.5797 26.8759 14.7122 26.5032 14.636C26.1436 14.7331 25.0282 15.5021 24.7144 15.7579C25.327 15.6403 25.9341 15.495 26.5336 15.3223C26.7632 15.2541 27.0742 15.0812 27.2323 15.0814L27.3057 15.1482C27.3076 15.3475 27.3291 15.2698 27.2239 15.4414C26.9611 15.5608 26.983 15.3549 26.5949 15.4874C25.9023 15.7235 25.2232 15.7775 24.553 16.0738C25.2817 16.266 26.0533 16.3642 26.789 16.5383C26.8904 16.5624 27.0471 16.4748 27.1411 16.4284C27.2487 16.4946 27.2473 16.5074 27.2978 16.6299C27.2819 16.7953 27.3099 16.7475 27.2131 16.8542C26.9526 16.8836 26.7731 16.6736 26.5243 16.627C25.805 16.4923 25.0801 16.3878 24.3622 16.2421C24.9356 16.6777 25.5262 17.0894 26.1333 17.4764C26.3484 17.6156 26.7277 17.7539 26.817 17.9563L26.7885 18.0626C26.5163 18.1381 26.2535 17.7791 26.0393 17.6251C25.5913 17.3032 25.1189 16.903 24.6082 16.6902C24.7873 17.0256 25.5623 17.9879 25.8672 18.3176C25.8789 18.3304 26.0744 18.3638 26.1141 18.3702C26.2315 18.4851 26.2119 18.4347 26.2441 18.5778C26.1763 18.7293 26.1562 18.7455 26.0323 18.8576C25.884 18.8399 25.8471 18.7594 25.7161 18.6375C25.0305 18.8914 24.3716 18.8795 23.6252 19.144C24.2986 19.2816 25.5024 19.4782 26.1277 19.3003C26.2572 19.4018 26.2628 19.5083 26.2151 19.661C26.0884 19.7515 26.1454 19.737 26.0005 19.7333L25.9645 19.7024C25.9298 19.6732 25.8026 19.5706 25.7708 19.5698C25.0511 19.5527 23.8889 19.3259 23.2305 19.3215C23.5634 19.5271 23.8838 19.6903 24.221 19.8836C24.59 20.095 24.9515 20.3561 25.3209 20.5653L25.3237 20.732C24.799 20.582 23.6626 19.6279 23.3029 19.6202C23.4587 20.1495 24.8841 21.6731 24.8682 22.0108C24.5699 22.0658 24.3398 21.5056 24.2027 21.2899C23.9011 20.8145 23.6252 20.3648 23.193 19.9952C23.3591 20.5391 23.6813 21.3766 23.7968 21.8784C23.9918 22.0217 24.2121 22.1758 24.0545 22.4631C23.9418 22.5153 23.9268 22.5327 23.8122 22.5079C23.7631 22.4511 23.5756 22.2353 23.526 22.2245C22.9386 22.096 22.0089 22.0424 21.4323 21.992L21.4514 22.0059C21.9023 22.3228 22.8559 22.6869 23.3867 22.9398C23.5648 23.0247 23.7248 22.8842 23.8375 23.1127C23.7982 23.305 23.8347 23.2398 23.7103 23.3727C23.8651 23.3785 21.1858 22.0973 21.081 22.0514C21.5225 22.6051 21.9818 23.1416 22.4429 23.679C22.6159 23.8806 22.9064 24.0456 22.9513 24.2837L22.8961 24.3765C22.5818 24.3987 22.4317 23.9469 22.2493 23.7436C21.8396 23.2868 21.4103 22.6146 20.9431 22.2317C21.1012 22.9693 21.3542 23.6901 21.5445 24.4241L21.3724 24.5212C21.1465 23.8757 21.1035 23.2599 20.8028 22.5753C20.7579 23.2433 20.6957 23.954 20.7055 24.624C20.7069 24.7202 20.8374 24.8531 20.9019 24.9412L20.8603 25.046C20.4586 25.4037 20.5638 25.0655 20.272 24.8492C19.7173 24.4378 18.8877 24.0829 18.276 23.7509C18.7216 24.263 19.3965 24.8374 19.8702 25.3551C20.0349 25.535 20.2626 25.5862 20.337 25.7738C20.2668 25.9109 20.3131 25.8685 20.1574 25.9265C19.9226 25.8583 19.8085 25.59 19.6257 25.4062C19.0804 24.8584 18.5701 24.2649 18.0005 23.7421L18.0384 23.8249C18.4121 24.6543 18.7034 25.5581 19.0663 26.3971C19.1098 26.4977 19.0916 26.532 19.056 26.6262L18.9934 26.6412C18.6305 26.4978 18.6146 25.6417 18.4223 25.2405C18.2311 24.841 18.1436 24.4009 17.9074 23.9917L17.8798 23.9447C17.7844 24.6123 17.7723 25.3801 17.7363 26.0583C17.7236 26.3024 17.7779 26.5613 17.755 26.8069C17.6624 26.9159 17.7148 26.8873 17.5604 26.904C17.501 26.8623 17.4243 26.8263 17.4271 26.7515C17.4426 26.3265 17.7166 24.8761 17.5922 24.5217C17.4206 24.6107 17.0296 25.6862 16.8397 26.0372C16.8949 26.2676 16.9782 26.5502 16.7345 26.6832C16.2884 26.5867 16.5301 26.3293 16.4338 26.2162C15.9376 25.6348 15.4536 25.0721 14.8807 24.5643C15.0023 24.7833 16.0882 26.9476 16.0924 27.034C16.0078 27.1819 16.0527 27.1508 15.9189 27.2179C15.8913 27.1957 15.8637 27.1735 15.8361 27.1514C15.5452 26.352 15.086 25.1487 14.5762 24.5099C14.7165 25.2704 14.6585 26.066 14.68 26.8361C14.6866 27.0583 14.8199 27.1739 14.7334 27.3625C14.5907 27.4588 14.6567 27.4378 14.4846 27.4422C14.2568 27.2451 14.4897 27.0603 14.4855 26.7642C14.4743 26.023 14.5047 25.2702 14.421 24.5334C14.2372 24.9235 13.3321 26.7438 13.3847 27.032C13.3871 27.0455 13.3904 27.0588 13.3932 27.0722C13.3021 27.2054 13.3498 27.1768 13.2161 27.2167L13.126 27.1497C13.0575 26.9812 13.0496 27.0276 13.0692 26.8675C13.2709 26.7169 13.9753 25.0943 14.1296 24.7484C13.8462 24.9553 12.8179 25.9672 12.7448 26.2568C12.718 26.3627 12.6927 26.4688 12.6689 26.5754C12.5748 26.6652 12.5415 26.6565 12.4038 26.6729C12.088 26.5386 12.344 26.2885 12.3055 26.1771C12.07 25.4957 11.6921 24.6622 11.3962 24.0238C11.5319 24.8253 11.5083 25.7812 11.6862 26.5696C11.7036 26.6466 11.7484 26.6233 11.7544 26.7761C11.634 26.9543 11.6064 26.9642 11.4283 26.8805C11.3149 26.6978 11.4046 26.2368 11.3821 25.9413C11.3292 25.2471 11.2996 24.5341 11.1752 23.8485C10.979 24.5061 10.801 25.1518 10.5471 25.7959C10.4434 26.059 10.4546 26.6403 10.199 26.7312L10.0886 26.6616C10.0054 26.4973 10.0179 26.568 10.0312 26.3931C10.2824 26.1667 10.4151 25.492 10.5464 25.1556C10.7051 24.7488 10.8884 24.3121 11.0021 23.8945C10.5358 24.2281 9.22177 25.8875 8.97218 25.9774C8.81144 25.8911 8.84277 25.9393 8.79806 25.8021C8.83964 25.7118 10.3478 24.2646 10.6269 23.9159C10.0904 24.2015 8.98883 24.612 8.69672 25.1151L8.6276 25.2344C8.48683 25.2836 8.48028 25.2901 8.34344 25.2488L8.2855 25.1392C8.29405 24.8684 8.27988 24.9584 8.44174 24.7166C8.42351 23.9752 8.40966 23.2551 8.35429 22.5152C8.1039 23.1957 7.77134 24.1625 7.73294 24.9032C7.72714 25.0151 7.75282 24.9839 7.70816 25.1019C7.57698 25.1801 7.63834 25.1674 7.47381 25.1387C7.35731 25.0103 7.38776 25.0733 7.36129 24.8991C7.40029 24.8512 7.53259 24.6899 7.54083 24.637C7.66925 23.8145 8.0409 23.0428 8.15955 22.2223C7.68164 22.7083 7.24535 23.3471 6.79471 23.8665C6.61797 24.0702 6.55437 24.4642 6.28494 24.4828C6.15937 24.3863 6.19828 24.4372 6.13898 24.2883C6.19894 24.092 6.44143 24.0377 6.61119 23.8216C7.05609 23.2549 7.52609 22.7129 7.95892 22.1364C7.3336 22.3388 6.45663 22.8458 5.83313 23.1296C5.71958 23.1813 5.72889 23.3352 5.55538 23.4453C5.40297 23.4389 5.46292 23.4566 5.32832 23.3681C5.25668 23.1951 5.2679 23.2713 5.32014 23.0564L5.41433 23.0009C5.86222 23.0706 6.32254 22.6187 6.73961 22.4523C6.96171 22.3637 7.24933 22.2912 7.4313 22.156C6.95493 21.9896 6.16531 22.2486 5.60027 22.2818L5.41082 22.4812C5.23643 22.5473 5.12246 22.5864 4.99142 22.4482C4.95929 21.982 5.23741 22.1272 5.31331 21.9093C5.52231 21.3094 5.75914 20.6164 5.91918 20.0057C5.42972 20.4422 5.0661 21.1051 4.69501 21.6461C4.56261 21.839 4.59441 22.1101 4.34378 22.1533C4.2098 22.0727 4.24955 22.1193 4.18978 21.9805C4.27691 21.729 4.63323 21.4079 4.7776 21.1641C5.08163 20.6508 5.56169 20.1528 5.84379 19.6374L5.87115 19.5866C5.40769 19.7965 4.16046 20.5387 3.7143 20.8857C3.64027 20.9433 3.69438 21.0385 3.48954 21.108C3.3252 21.0583 3.3729 21.0977 3.28129 20.9731C3.39371 20.6281 5.2318 19.8904 5.52044 19.4912L5.48392 19.4351L5.25032 19.4298L5.26542 19.2499C5.1125 19.0441 3.70944 18.8296 3.37604 18.77L3.16063 18.8819C2.97374 18.8778 2.90696 18.8279 2.86576 18.6587C2.89536 18.5353 2.89223 18.4982 2.97969 18.4155C3.28451 18.3924 3.27843 18.3875 3.45895 18.1409C3.80419 17.6692 4.24296 17.2065 4.51636 16.6893C3.98938 16.9858 3.47991 17.3256 3.00868 17.7045C2.79991 17.8724 2.53825 18.3125 2.27299 18.1209L2.25634 17.9838C2.37863 17.768 2.65947 17.7139 2.88339 17.5666C3.47018 17.1807 4.0478 16.7882 4.61508 16.374C4.03615 16.4351 3.39792 16.5144 2.82311 16.6162C2.55869 16.663 2.1991 16.8668 1.91625 16.9039C1.75977 16.8329 1.79901 16.877 1.72259 16.7449L1.75692 16.6556C1.97948 16.4925 2.41231 16.5486 2.69109 16.4948C3.31388 16.3747 3.93327 16.2513 4.56195 16.1656C3.79554 15.7711 2.76339 15.6611 1.92794 15.5095C1.82599 15.491 1.79451 15.3911 1.76697 15.3027C1.83272 15.1616 1.78858 15.2063 1.93683 15.1386C2.13012 15.1701 2.14896 15.3365 2.30451 15.3682C3.01817 15.5141 3.69873 15.6821 4.39551 15.8927C3.86396 15.4189 3.36215 15.1738 2.76343 14.8154C2.4261 14.6135 2.34608 14.7908 2.16084 14.6543C2.03953 14.0813 2.5751 14.3012 2.5991 14.2878C3.22189 13.9398 3.84179 13.5384 4.45439 13.1628C3.87719 13.2679 2.63777 13.4921 2.06946 13.7454C2.00632 13.7735 2.0378 13.812 1.8258 13.8688L1.73774 13.818C1.70865 13.6587 1.71239 13.6401 1.77572 13.4908C1.96129 13.3763 2.11323 13.513 2.32799 13.4625C3.08861 13.2835 3.84838 13.0816 4.60217 12.8754C3.93972 12.6322 2.75277 12.468 2.02639 12.4575C1.83693 12.4547 1.81238 12.5398 1.73704 12.3139C1.78539 12.1254 1.74546 12.1861 1.87537 12.0669C2.1238 12.0955 2.12422 12.2595 2.18909 12.2669C2.90163 12.349 3.9877 12.5273 4.6626 12.6141C4.40327 12.3986 2.27561 11.0987 2.25952 11.066C2.20803 10.9615 2.20719 10.9182 2.23946 10.8093C2.51033 10.7745 2.76558 11.1272 2.99231 11.2827C3.48598 11.6212 3.96689 11.9752 4.47773 12.2888C4.28009 11.8967 3.64135 11.0756 3.3136 10.7382C3.21184 10.6334 2.97005 10.5958 2.84953 10.4439C2.85631 10.3117 2.92754 10.122 3.0503 10.066C3.15979 10.1308 3.25426 10.1944 3.35929 10.2651C4.01983 10.0803 4.65165 9.93142 5.31537 9.73182C4.55494 9.5303 3.5241 9.62673 2.80805 9.45318C2.75595 9.44055 2.76764 9.38775 2.76269 9.32167C2.8848 9.20194 2.82666 9.23108 2.98109 9.19582C3.32235 9.46178 5.17909 9.51748 5.68932 9.55831C5.08588 9.09564 4.33074 8.73034 3.67362 8.33983C3.57012 8.27829 3.42056 8.29905 3.27829 8.24302L3.25079 8.14537C3.29504 7.95376 3.25758 7.98271 3.37828 7.87328C3.67174 7.91345 3.66178 8.17161 3.79105 8.21711C4.10509 8.32762 5.54294 9.2612 5.74067 9.30081C5.79483 8.94949 4.38625 7.46458 4.16411 7.04278C4.19839 6.87718 4.16495 6.9209 4.2727 6.82078C4.3328 6.84117 4.36796 6.85389 4.40397 6.91094C4.8599 7.63313 5.26103 8.25336 5.81059 8.90969C5.70424 8.375 5.47036 7.67456 5.27029 7.15409C5.23942 7.07383 5.02532 6.92179 4.93268 6.725C4.93141 6.53072 4.90218 6.57543 4.99801 6.44982C5.27001 6.40426 5.32178 6.51314 5.49538 6.68174C6.17836 6.77588 6.90016 6.88583 7.58815 6.89514C6.96746 6.58114 6.33933 6.28197 5.70442 5.99781C5.49308 5.90483 5.42013 5.96493 5.23806 5.85128C5.17956 5.69789 5.18784 5.76406 5.21019 5.59851C5.31939 5.5045 5.25799 5.52789 5.39941 5.52298C5.59237 5.58929 5.62478 5.67352 5.73281 5.84848C6.43254 6.12539 7.22024 6.51445 7.90907 6.84098C7.57155 6.31891 6.9184 5.63452 6.51967 5.1313C6.33671 4.90041 6.12388 4.92131 6.04999 4.66858C6.12865 4.52765 6.08076 4.56767 6.22691 4.51495C6.24061 4.51933 6.3384 4.55065 6.3384 4.55065C6.74041 5.14369 7.70699 6.31695 8.14356 6.75586C7.91739 5.838 7.59732 4.88025 7.29558 3.98596C7.27355 3.92061 7.35002 3.85438 7.39028 3.80822L7.50402 3.80048C7.56697 3.84412 7.66845 3.95368 7.65274 3.99598C7.54999 4.27801 7.6996 4.42284 7.7632 4.68733C7.9036 5.27132 8.01939 5.81504 8.22002 6.38378C8.27512 5.89454 8.43164 4.4134 8.15908 4.02526C8.10521 3.94857 8.12841 4.00545 8.13046 3.88448C8.21296 3.75611 8.22821 3.74627 8.36884 3.686C8.59701 3.71198 8.75186 4.11839 8.91526 4.20011C9.45046 4.46778 10.0709 4.76544 10.6115 5.00998C10.3016 4.61182 9.3204 3.6281 8.87266 3.32747C8.78558 3.26898 8.80498 3.29641 8.70967 3.19794L8.72468 3.10828C8.86054 2.96706 8.79666 2.99952 8.96633 2.95687C9.10818 3.04541 9.30511 3.45059 9.45916 3.6039C9.96761 4.10979 10.4854 4.62348 11.0081 5.11339C10.719 4.6242 10.5652 3.93454 10.3414 3.39007C10.2327 3.12581 10.0481 2.72022 9.96771 2.46418C10.0001 2.3044 9.96701 2.35638 10.0788 2.25225C10.3294 2.3699 10.809 4.36316 11.0629 4.85439L11.1172 4.83629C11.2713 4.38041 11.2305 3.33841 11.3017 2.82134C11.3418 2.53005 11.1162 2.14607 11.4326 1.98262L11.5439 2.01902C11.6734 2.21532 11.5802 2.30691 11.5481 2.53622C11.4482 3.2475 11.397 3.94178 11.4369 4.65923C11.6748 4.19834 12.1686 2.40426 12.3938 2.2623L12.5077 2.29024C12.6281 2.40341 12.6334 2.55642 12.66 2.72016C13.1255 3.12521 13.603 3.7289 14.0814 4.1913C13.8219 3.36043 13.4529 2.77636 13.1103 1.9907C13.0576 1.87 13.0714 1.80813 13.1194 1.70773L13.2273 1.71029C13.237 1.7183 13.3208 1.78735 13.3208 1.78748C13.5745 2.47536 14.0085 3.72457 14.3648 4.29399L14.3779 4.31431C14.4392 3.92587 14.4832 2.29802 14.4326 1.89047Z" fill="var(--fill-0, #333333)"/>
<path id="Vector_3" d="M13.8048 8.51026C17.0817 8.15763 20.0243 10.5281 20.3774 13.8052C20.7305 17.0823 18.3603 20.0253 15.0834 20.3789C11.8057 20.7326 8.86199 18.362 8.50876 15.0841C8.15558 11.8063 10.5267 8.86293 13.8048 8.51026Z" fill="var(--fill-0, #BFBFBF)"/>
<path id="Vector_4" d="M10.8058 10.7182L11.6438 10.7306C11.7888 10.7399 12.1546 10.7435 12.2557 10.8131C12.0267 11.0181 11.9504 11.1205 11.9275 11.4382C11.867 12.2797 11.9426 13.1409 11.923 13.9855C12.0476 14.0042 12.2961 14.0266 12.392 14.0867C12.15 14.127 12.0892 14.1144 11.9404 14.2704C11.8981 14.4404 11.8764 16.2558 12.0184 16.4632C12.1595 16.6694 12.464 16.704 12.7028 16.743C12.4147 16.8017 11.4766 16.6741 10.961 16.7291L10.9509 16.6294C11.1605 16.2508 11.1212 15.3633 11.1163 14.9186C11.1033 13.7362 11.1608 12.5483 11.0914 11.3686C11.0774 11.1296 11.0266 11.0011 10.8391 10.8466L10.8058 10.7182Z" fill="var(--fill-0, #333333)"/>
<path id="Vector_5" d="M15.965 10.7103C17.8577 10.8425 18.7944 12.4042 18.6274 14.1737C18.4853 15.6817 17.6725 16.6421 16.226 17.0101L16.1974 16.9464C17.0215 16.5379 17.4321 15.9428 17.6435 15.0415C18.0022 13.5128 17.751 11.2404 15.9411 10.8037L15.965 10.7103Z" fill="var(--fill-0, #333333)"/>
<path id="Vector_6" d="M13.7341 11.4318L13.9287 11.7876C13.6088 12.5831 13.534 13.0495 13.5555 13.9067C13.5868 15.1623 13.7547 15.8282 14.6784 16.7103C14.4646 16.6253 14.242 16.5226 14.0307 16.4296C12.2886 15.5034 12.2504 12.6071 13.7341 11.4318Z" fill="var(--fill-0, #333333)"/>
<path id="Vector_7" d="M13.3372 10.7533C13.8778 10.8065 14.4774 10.9479 14.8248 11.3834C15.3341 12.0216 15.2485 13.1768 14.5835 13.6844C14.236 13.9498 14.0555 13.9603 13.6468 14.0251C13.8371 13.7983 14.1303 13.4936 14.1841 13.2046C14.3006 12.5775 14.3726 11.5515 13.8278 11.1058C13.6847 10.9901 13.5158 10.9102 13.3353 10.8726L13.3372 10.7533Z" fill="var(--fill-0, #333333)"/>
<path id="Vector_8" d="M16.2264 17.0108L16.2147 17.1128C16.5318 17.358 16.7974 17.7204 17.1085 17.9138C17.4643 18.1265 18.2954 17.9166 18.2804 17.4369C18.2739 17.2177 17.968 17.038 18.1523 16.726C18.3501 16.5786 18.5634 16.6088 18.7046 16.8133C18.8154 17.3354 18.4006 17.7569 17.9755 17.994C16.8166 18.6401 16.1493 17.5575 15.1498 17.2268C14.446 16.9938 14.5582 17.6728 14.2589 17.845L14.193 17.8033C14.1032 17.3946 14.4787 17.1704 14.7729 16.9899C15.2069 16.7232 15.8523 17.0548 16.1979 16.9471L16.2264 17.0108Z" fill="var(--fill-0, #333333)"/>
<path id="Vector_9" d="M11.6437 10.7319C11.9356 10.7244 13.1326 10.6763 13.3376 10.7536L13.3357 10.8729C13.0315 10.807 12.5733 10.8142 12.2556 10.8144C12.1544 10.7447 11.7886 10.7412 11.6437 10.7319Z" fill="var(--fill-0, #333333)"/>
<path id="Vector_10" d="M15.2498 10.7121C15.4224 10.687 15.8026 10.6475 15.963 10.7114L15.9392 10.8049C15.6614 10.7804 15.5337 10.786 15.2531 10.805L15.2498 10.7121Z" fill="var(--fill-0, #333333)"/>
<path id="Vector_11" d="M15.2518 10.8031C15.0825 10.8762 14.9581 10.9553 14.7837 10.924L14.772 10.8608C14.9146 10.7378 15.061 10.7367 15.2485 10.7103L15.2518 10.8031Z" fill="var(--fill-0, #333333)"/>
<path id="Vector_12" d="M10.9572 16.729C10.8181 16.7547 10.4886 16.8367 10.3853 16.7376C10.5432 16.6403 10.7568 16.6446 10.9472 16.6292L10.9572 16.729Z" fill="var(--fill-0, #333333)"/>
<path id="Vector_13" d="M10.8368 10.848C10.6844 10.821 10.4657 10.8065 10.363 10.7101C10.5173 10.6602 10.6403 10.6953 10.8036 10.7196L10.8368 10.848Z" fill="var(--fill-0, #333333)"/>
<path id="Vector_14" d="M23.7977 12.89C24.0151 12.8528 26.0761 14.1853 26.4157 14.397C25.7885 14.9092 24.6399 15.5341 23.9099 16.0267L23.113 15.9033C22.2403 15.7799 21.3662 15.6704 20.4903 15.5746C20.5707 14.6851 20.6194 14.4274 20.4945 13.5283C21.5982 13.3291 22.6991 13.1164 23.7977 12.89Z" fill="var(--fill-0, #BFBFBF)"/>
<path id="Vector_15" d="M22.834 9.75614C23.5458 9.84828 25.054 10.1524 25.7083 10.3601C25.1204 11.1099 24.4792 11.9973 23.8666 12.7015C23.4073 12.8145 22.8747 12.9146 22.407 13.0143C21.7335 13.1033 21.1508 13.2923 20.4858 13.4003C20.3619 12.7273 20.0808 12.0632 19.8404 11.419C20.8581 10.9302 21.8364 10.3056 22.834 9.75614Z" fill="var(--fill-0, #BFBFBF)"/>
<path id="Vector_16" d="M12.4071 2.74924C12.66 2.8639 14.296 4.71181 14.4536 5.04386C14.4069 5.92552 14.4331 7.44659 14.4681 8.33681C13.9939 8.32339 13.6941 8.36 13.2386 8.44877C13.0519 8.48539 12.7124 8.60002 12.5192 8.6588L12.5093 8.63743C12.1669 7.88784 11.5625 6.24205 11.3378 5.4469C11.5974 4.76307 12.0869 3.36653 12.4071 2.74924Z" fill="var(--fill-0, #BFBFBF)"/>
<path id="Vector_17" d="M23.3643 6.81376C23.4237 6.79866 23.4751 6.79908 23.5364 6.79505C23.6201 7.0071 22.8545 9.2127 22.7124 9.60812C21.7822 10.1921 20.7173 10.7489 19.7544 11.3448C19.6295 11.1963 19.4817 10.9828 19.3638 10.8227C19.1034 10.4697 18.7886 10.1524 18.4865 9.83387C19.1193 8.98368 20.041 7.9945 20.7533 7.19038C21.5993 7.04358 22.5113 6.93124 23.3643 6.81376Z" fill="var(--fill-0, #BFBFBF)"/>
<path id="Vector_18" d="M5.08101 12.9211C5.53165 12.9367 8.01489 13.3373 8.37925 13.4841C8.30625 14.2944 8.29535 14.8304 8.44716 15.623C7.6762 15.6686 6.84244 15.8122 6.07041 15.9295L5.13376 16.0815C4.60235 15.6718 3.21697 14.8839 2.61863 14.5237C3.42134 14.0401 4.32371 13.4649 5.08101 12.9211Z" fill="var(--fill-0, #BFBFBF)"/>
<path id="Vector_19" d="M18.3697 19.1491C18.4543 19.2311 18.8991 19.7864 19.0113 19.919C19.5454 20.5435 20.0729 21.1734 20.5944 21.8086L20.5182 24.7353C20.2333 24.6226 19.7867 24.3437 19.4752 24.188C18.9781 23.98 18.4118 23.6521 17.9357 23.3913C17.569 22.7361 16.9353 20.9354 16.6547 20.1681C17.3876 19.8202 17.7061 19.6254 18.3697 19.1491Z" fill="var(--fill-0, #BFBFBF)"/>
<path id="Vector_20" d="M20.4658 15.715C20.7501 15.7867 21.2159 15.8216 21.5246 15.8582C22.3084 15.9508 23.1829 16.0222 23.9476 16.2079C24.166 16.4437 25.5591 18.2746 25.6831 18.5157C25.3777 18.5953 24.903 18.6638 24.578 18.7192C24.0921 18.8043 23.3662 19.0099 22.8607 19.1302C21.8398 18.5812 20.7992 18.0463 19.7703 17.5101C20.0818 16.848 20.2562 16.4149 20.4658 15.715Z" fill="var(--fill-0, #BFBFBF)"/>
<path id="Vector_21" d="M8.53271 4.14775C9.2721 4.59951 10.3273 5.10601 11.1289 5.54979C11.4661 6.3367 12.0401 7.90855 12.3098 8.72657C12.0066 8.83329 11.873 8.89156 11.5895 9.04262C11.1923 9.23918 10.9107 9.47227 10.5647 9.74231C9.91571 9.03444 9.01479 7.88531 8.45798 7.10832C8.47159 6.17563 8.46167 5.06425 8.53271 4.14775Z" fill="var(--fill-0, #BFBFBF)"/>
<path id="Vector_22" d="M19.6634 17.6264C20.3298 17.9171 22.1261 18.9302 22.7851 19.3259C22.9006 19.8005 23.5165 21.6399 23.711 22.0604L22.6092 21.9335C21.9012 21.8155 21.5055 21.8758 20.7254 21.6377C20.1984 21.1304 19.0133 19.6413 18.4961 19.0265C19.0119 18.5509 19.2743 18.2027 19.6634 17.6264Z" fill="var(--fill-0, #BFBFBF)"/>
<path id="Vector_23" d="M20.2892 4.16687C20.3173 4.17432 20.3738 4.20953 20.4024 4.22547C20.4987 4.48974 20.574 6.67101 20.5852 7.0777C20.3986 7.33619 20.0292 7.73474 19.8061 7.9942C19.315 8.55855 18.8343 9.13164 18.3638 9.71324L17.608 9.23036C17.297 9.03782 17.0408 8.90439 16.7153 8.73823C16.9641 7.88804 17.5519 6.42099 17.8798 5.55495C18.7314 4.97985 19.4399 4.7434 20.2892 4.16687Z" fill="var(--fill-0, #BFBFBF)"/>
<path id="Vector_24" d="M5.39654 6.84921C5.77489 6.86539 7.94866 7.15619 8.30886 7.24861C8.81343 7.78138 9.93294 9.27317 10.4037 9.88545C10.1563 10.1221 9.97026 10.3148 9.74106 10.5689C9.53556 10.8287 9.34583 11.1006 9.15329 11.3702C8.24334 10.7971 7.25581 10.2302 6.32575 9.68155C6.09566 9.15588 5.5216 7.4165 5.39654 6.84921Z" fill="var(--fill-0, #BFBFBF)"/>
<path id="Vector_25" d="M12.481 20.2434C13.1104 20.4476 13.7548 20.5304 14.4128 20.5558C14.4371 21.672 14.453 22.7884 14.4605 23.9049C14.2178 24.3024 13.2718 25.3267 12.9326 25.7098L12.5628 26.1676C12.2914 25.6652 11.5661 23.9669 11.4238 23.4472C11.6286 22.5814 12.1756 21.1189 12.481 20.2434Z" fill="var(--fill-0, #BFBFBF)"/>
<path id="Vector_26" d="M16.5527 2.76039C16.722 2.93463 17.5507 5.08825 17.6831 5.44925C17.3894 6.43642 16.9039 7.71584 16.5237 8.68706L15.8797 8.50724C15.4214 8.38532 15.0772 8.34692 14.6095 8.32746C14.6974 7.56656 14.6479 5.8088 14.6451 4.97643C14.9556 4.45929 16.0869 3.31564 16.5527 2.76039Z" fill="var(--fill-0, #BFBFBF)"/>
<path id="Vector_27" d="M16.4269 20.2323C16.5625 20.3553 17.6026 23.1289 17.6995 23.4534C17.5549 23.8432 16.8268 25.9131 16.6056 26.0743C16.4718 26.0231 16.3586 25.8782 16.2548 25.7689C15.8045 25.1988 15.1581 24.5578 14.6573 23.9659C14.6601 22.821 14.6493 21.676 14.6255 20.5313C15.3892 20.5148 15.6721 20.4238 16.4269 20.2323Z" fill="var(--fill-0, #BFBFBF)"/>
<path id="Vector_28" d="M9.2247 17.7347C9.30075 17.7646 10.3531 19.0241 10.5676 19.2251C10.0821 19.6638 8.89013 21.0963 8.38374 21.6718C7.82787 21.8136 7.3051 21.8926 6.73646 21.9568C6.49547 21.9931 5.66877 22.1934 5.50485 22.0871C5.52707 21.7446 6.21398 19.7458 6.36144 19.3145C7.32447 18.8003 8.25593 18.2428 9.2247 17.7347Z" fill="var(--fill-0, #BFBFBF)"/>
<path id="Vector_29" d="M6.08556 9.79762C6.3265 9.78663 8.64946 11.2561 9.05812 11.4999C8.71513 12.2203 8.62627 12.5401 8.41914 13.3252C7.80584 13.1595 7.24262 13.0817 6.61786 12.9926C6.12919 12.899 5.70927 12.8437 5.21424 12.7839C4.6405 12.1207 3.78284 11.1367 3.34496 10.3976C4.14295 10.2315 5.34711 10.024 6.08556 9.79762Z" fill="var(--fill-0, #BFBFBF)"/>
<path id="Vector_30" d="M8.31418 15.7969L8.37213 15.7898C8.48358 15.8843 9.03945 17.3148 9.16633 17.5912C8.57472 17.8349 6.82896 18.8214 6.26266 19.185C5.73915 19.0417 5.23958 18.9525 4.7041 18.8692C4.27553 18.7437 3.82427 18.7162 3.36726 18.5996C3.7313 18.0487 4.7815 16.7189 5.21811 16.2083C6.07432 16.0374 7.42514 15.9012 8.31418 15.7969Z" fill="var(--fill-0, #BFBFBF)"/>
<path id="Vector_31" d="M10.7079 19.31C11.1832 19.6373 11.8291 19.9958 12.3613 20.2135C11.9794 20.9469 11.5362 22.5055 11.202 23.3853C10.6403 23.6638 10.3151 23.9367 9.69599 24.1866C9.33186 24.4066 9.0108 24.6062 8.6261 24.7883C8.61758 23.7418 8.57194 22.8834 8.50576 21.8395C8.95066 21.2196 10.1599 19.915 10.7079 19.31Z" fill="var(--fill-0, #BFBFBF)"/>
<path id="Vector_32" d="M5.24765 19.431C4.71628 19.5412 3.85016 19.5608 3.27039 19.6381C3.17475 19.7497 3.14598 19.8057 3.00545 19.8467C2.85009 19.799 2.90518 19.8352 2.79963 19.7056C2.78419 19.5213 2.76778 19.5925 2.85738 19.4357C2.95284 19.3837 4.83348 19.3745 5.26275 19.2511L5.24765 19.431Z" fill="var(--fill-0, #333333)"/>
<path id="Vector_33" d="M21.5448 24.4262L21.6744 24.6976C21.7506 24.8586 21.7417 24.9862 21.6421 25.1327C21.3587 25.0577 21.3807 24.7591 21.3727 24.5233L21.5448 24.4262Z" fill="var(--fill-0, #333333)"/>
<path id="Vector_34" d="M25.3166 20.5667C25.477 20.5953 25.6047 20.6025 25.7272 20.7123C25.7988 20.8718 25.7955 20.8076 25.7581 20.9583C25.6351 21.0511 25.6949 21.0301 25.527 21.0268C25.3765 20.9355 25.3765 20.9022 25.3194 20.7334L25.3166 20.5667Z" fill="var(--fill-0, #333333)"/>
</g>
</svg>
