<svg preserveAspectRatio="none" width="100%" height="100%" overflow="visible" style="display: block;" viewBox="0 0 5.71309 6.33756" fill="none" xmlns="http://www.w3.org/2000/svg">
<path id="Vector" d="M3.3572 0C3.38345 0.00235988 3.40965 0.00601894 3.43555 0.0108567C4.9655 0.289028 3.44711 1.17416 2.92502 1.47174C4.05924 2.93151 4.59096 3.53605 3.42003 5.21516C3.75976 5.20425 3.96437 5.19381 4.29495 5.11782C4.66642 5.03233 5.32044 4.69658 5.66194 4.71245L5.71309 4.78779C5.64099 5.01062 5.4234 5.21976 5.26109 5.38649C4.09423 6.58513 2.14066 6.32401 0.542097 6.29103L0 6.29133C0.183728 5.83015 0.268334 5.64614 0.522745 5.21363C1.19659 5.22962 2.99228 5.34165 3.15235 4.41381C3.2599 3.79044 2.36492 2.81788 1.98124 2.32142C1.65314 2.6282 0.912563 3.56236 0.472772 3.57316L0.427402 3.47292C0.451946 3.36106 0.489231 3.25233 0.538615 3.14897C1.00443 2.17658 2.31524 0.369971 3.3572 0Z" fill="var(--fill-0, #FBFBFB)"/>
</svg>
