<svg preserveAspectRatio="none" width="100%" height="100%" overflow="visible" style="display: block;" viewBox="0 0 4.23974 8.16462" fill="none" xmlns="http://www.w3.org/2000/svg">
<path id="Vector" d="M2.89471 0.0124255C3.02975 -0.00414085 3.0661 -0.0147134 3.18216 0.0522601C3.27147 0.226514 2.92176 1.27803 2.85091 1.52941C2.66924 2.16992 2.50927 2.81639 2.37121 3.46767C2.98034 3.45913 3.62807 3.49424 4.23974 3.51723C4.17772 3.74623 4.09653 3.97877 4.02134 4.20466C3.47887 4.15949 2.75745 4.17337 2.2011 4.16907C1.77205 5.48527 1.63578 5.94545 0.980494 7.17306C1.57701 7.15777 2.3823 7.17165 2.96306 7.03973C3.03438 7.02354 3.64997 6.69807 3.7691 6.63628L3.81767 6.67687L3.82376 6.86972C2.81376 8.47793 1.65693 8.13457 0 8.13254C0.428486 6.69547 0.697293 5.63333 1.03006 4.16747C0.785369 4.16369 0.740715 4.20282 0.558899 4.08761C0.459164 3.89844 0.472429 3.97476 0.483002 3.77502C0.686341 3.38649 0.885149 3.42869 1.25435 3.47442C1.67741 2.30434 1.86116 0.711942 2.89471 0.0124255Z" fill="var(--fill-0, #FBFBFB)"/>
</svg>
