<svg preserveAspectRatio="none" width="100%" height="100%" overflow="visible" style="display: block;" viewBox="0 0 5.29967 10.2058" fill="none" xmlns="http://www.w3.org/2000/svg">
<path id="Vector" d="M3.61839 0.0155319C3.78719 -0.00517606 3.83262 -0.0183917 3.9777 0.0653251C4.08933 0.283142 3.6522 1.59754 3.56364 1.91176C3.33654 2.71241 3.13659 3.52049 2.96402 4.33459C3.72542 4.32391 4.53508 4.3678 5.29967 4.39653C5.22215 4.68279 5.12066 4.97347 5.02668 5.25583C4.34858 5.19937 3.44682 5.21671 2.75138 5.21134C2.21506 6.85659 2.04472 7.43181 1.22562 8.96633C1.97127 8.94721 2.97788 8.96456 3.70382 8.79966C3.79297 8.77943 4.56246 8.37258 4.71138 8.29536L4.77209 8.34609L4.7797 8.58715C3.51721 10.5974 2.07116 10.1682 0 10.1657C0.535608 8.36934 0.871617 7.04167 1.28757 5.20934C0.981712 5.20462 0.925894 5.25353 0.698623 5.10952C0.573955 4.87305 0.590536 4.96845 0.603752 4.71878C0.857927 4.23311 1.10644 4.28586 1.56794 4.34303C2.09676 2.88043 2.32645 0.889927 3.61839 0.0155319Z" fill="var(--fill-0, #FBFBFB)"/>
</svg>
