<svg preserveAspectRatio="none" width="100%" height="100%" overflow="visible" style="display: block;" viewBox="0 0 13.7275 7.9198" fill="none" xmlns="http://www.w3.org/2000/svg">
<path id="Vector" d="M8.63501 0.0189623C10.3844 -0.0769905 12.6242 0.134974 13.415 1.98158C14.2882 4.03194 13.2574 6.13526 11.2426 6.97198C9.67819 7.6217 8.56553 7.40714 7.08197 6.8208C8.38565 5.89191 8.73097 6.39253 10.097 6.49C12.7697 6.68063 13.6063 3.67282 11.9642 1.87463C11.1782 1.01389 10.3521 0.709746 9.25711 0.644047C9.12924 0.632626 9.00095 0.626018 8.87257 0.62413C6.68185 0.597369 3.22073 1.16634 1.53879 2.76766C0.0262932 4.20761 2.11289 5.38028 2.03869 7.01757C2.02505 7.31888 1.99805 7.69816 1.77125 7.9198L1.72074 7.91612C1.278 7.0145 0.78169 6.15659 0.33371 5.25653C-0.065465 4.45455 -0.217309 3.49766 0.515196 2.81726C2.59372 0.886407 5.87694 0.168532 8.63501 0.0189623Z" fill="var(--fill-0, #FBFBFB)"/>
</svg>
