<svg preserveAspectRatio="none" width="100%" height="100%" overflow="visible" style="display: block;" viewBox="0 0 4.81776 5.00827" fill="none" xmlns="http://www.w3.org/2000/svg">
<path id="Vector" d="M2.5375 0.00634375C3.01139 -0.0219748 3.08691 0.0349459 3.38711 0.374014C3.136 0.693117 2.75557 0.920185 2.41856 1.14876C2.69988 1.68583 3.24362 2.12061 3.27855 2.79827C3.30923 3.38584 3.03783 3.75034 2.6725 4.16738C3.68778 4.06326 3.87564 3.94282 4.81776 3.50657C3.83929 5.12634 2.57574 5.02317 0.911445 4.99716C0.616442 4.99037 0.296891 5.00203 0 5.00717C0.153402 4.71398 0.271404 4.41357 0.43755 4.1089C1.10591 4.12207 2.94673 4.24743 2.47095 3.06522C2.33029 2.7153 1.86773 2.16342 1.6204 1.83931C1.12951 2.34853 0.883124 2.67712 0.232701 2.97885C0.65609 1.95532 1.56989 0.578521 2.5375 0.00634375Z" fill="var(--fill-0, #EFF1EE)"/>
</svg>
