<svg preserveAspectRatio="none" width="100%" height="100%" overflow="visible" style="display: block;" viewBox="0 0 94.3454 28.9447" fill="none" xmlns="http://www.w3.org/2000/svg">
<path id="Vector" d="M5.48504 3.08685C6.21792 2.45632 6.94325 2.07715 7.7669 1.61485C10.9334 -0.162497 14.1225 0.00842953 17.6317 0.0101334L25.1517 0.0191482L48.8649 0.01701L70.6111 0.0143104L77.3098 0.0151458C78.5172 0.0155517 79.9658 -0.0378478 81.1444 0.0535079C85.6299 0.401246 89.96 3.11455 92.2497 6.97853C98.0124 16.5484 91.2146 28.6214 80.0975 28.9033C79.1167 28.9282 78.1165 28.9344 77.1281 28.9311L72.4132 28.9251L67.4081 28.9285C66.7784 28.9288 65.4903 28.965 64.9169 28.9176L64.9018 28.9163C63.9596 28.9719 62.427 28.9292 61.4618 28.9274L55.0491 28.924L33.8246 28.9165L20.5522 28.9188C19.5161 28.9182 18.4742 28.9294 17.4383 28.917C15.0917 28.8891 12.7219 28.9958 10.4464 28.3286C0.00972791 25.2681 -3.50266 12.2274 4.04665 4.3727C4.53135 3.86844 4.92845 3.5078 5.48504 3.08685Z" fill="var(--fill-0, #407E31)"/>
</svg>
