<svg preserveAspectRatio="none" width="100%" height="100%" overflow="visible" style="display: block;" viewBox="0 0 14.4324 12.0848" fill="none" xmlns="http://www.w3.org/2000/svg">
<path id="Vector" d="M0.00642444 0C0.836033 0 1.66564 0 2.52039 0C2.52121 0.183169 2.52202 0.366339 2.52286 0.555058C2.52568 1.16313 2.52941 1.7712 2.53356 2.37926C2.53605 2.7476 2.53824 3.11594 2.53974 3.48428C2.54121 3.84036 2.54347 4.19643 2.54627 4.5525C2.54719 4.68773 2.54784 4.82296 2.54819 4.95819C2.55204 6.30766 2.65136 7.62503 3.61676 8.66969C4.75627 9.74308 6.33159 9.81673 7.80897 9.7839C9.00243 9.73671 10.1489 9.36764 10.9919 8.48835C11.6488 7.66946 11.8656 6.68734 11.8678 5.65724C11.8684 5.59557 11.8689 5.5339 11.8695 5.47036C11.8712 5.26906 11.8722 5.06776 11.8731 4.86645C11.8742 4.72587 11.8753 4.58529 11.8764 4.44471C11.879 4.11412 11.8811 3.78353 11.8829 3.45293C11.8853 3.03905 11.8884 2.62517 11.8915 2.21129C11.8969 1.47419 11.9015 0.737099 11.9059 0C12.7355 0 13.5651 0 14.4198 0C14.4224 0.787733 14.4244 1.57546 14.4256 2.3632C14.4262 2.72904 14.427 3.09488 14.4283 3.46071C14.4295 3.81425 14.4301 4.16778 14.4304 4.52132C14.4306 4.65571 14.431 4.7901 14.4316 4.92448C14.4346 5.60249 14.4353 6.25921 14.3081 6.92737C14.2932 7.02248 14.2784 7.11763 14.264 7.21281C14.149 7.87651 13.9438 8.45142 13.6377 9.05028C13.6072 9.11171 13.5768 9.17314 13.5454 9.23643C12.8475 10.5384 11.5475 11.3113 10.174 11.7318C10.0062 11.7795 9.83777 11.822 9.66774 11.861C9.63232 11.8693 9.59691 11.8775 9.56042 11.886C8.75441 12.0549 7.93255 12.0884 7.11187 12.0845C7.0425 12.0843 7.0425 12.0843 6.97172 12.0841C6.25971 12.0812 5.56361 12.059 4.86676 11.8994C4.79401 11.8828 4.79401 11.8828 4.71978 11.8658C4.0332 11.7018 3.41228 11.4674 2.79972 11.1173C2.71654 11.0709 2.71654 11.0709 2.63169 11.0235C1.36679 10.2703 0.596164 8.99614 0.229888 7.59776C0.0628457 6.87623 -0.00265777 6.1494 8.22423e-05 5.4099C7.40842e-05 5.35096 6.59266e-05 5.29202 5.7521e-05 5.2313C9.60774e-05 5.03875 0.000529033 4.84622 0.000968787 4.65367C0.00107311 4.51928 0.00115257 4.38489 0.00120832 4.25049C0.00142062 3.89846 0.00196858 3.54644 0.00258843 3.19441C0.00316209 2.83452 0.00341554 2.47462 0.00369661 2.11472C0.00429399 1.40981 0.0052759 0.704907 0.00642444 0Z" fill="var(--fill-0, #BFBFBF)"/>
</svg>
