<svg preserveAspectRatio="none" width="100%" height="100%" overflow="visible" style="display: block;" viewBox="0 0 16.7039 19.9441" fill="none" xmlns="http://www.w3.org/2000/svg">
<path id="Vector" d="M0 0C1.0324 0 2.0648 0 3.12849 0C4.17675 3.13718 4.17675 3.13718 4.56704 4.34358C4.92345 5.44508 5.29016 6.5431 5.65702 7.64115C6.0325 8.76509 6.40578 9.88962 6.77011 11.0172C6.92784 11.5049 7.08822 11.9915 7.25231 12.4771C7.27017 12.5301 7.28804 12.5831 7.30644 12.6377C7.39157 12.8902 7.47708 13.1426 7.56341 13.3948C7.73533 13.9014 7.8822 14.4056 7.9964 14.9284C8.0596 15.2049 8.1392 15.4745 8.22167 15.7459C8.27143 15.9342 8.29995 16.1198 8.32402 16.3128C8.36089 16.3128 8.39777 16.3128 8.43575 16.3128C8.44123 16.2782 8.4467 16.2436 8.45234 16.2079C8.52214 15.7945 8.62202 15.3936 8.73476 14.99C8.75829 14.9057 8.7817 14.8213 8.80496 14.737C9.13441 13.5484 9.53176 12.3811 9.92019 11.2109C10.0653 10.7735 10.21 10.336 10.3547 9.89852C10.3908 9.78963 10.4268 9.68074 10.4628 9.57186C10.8083 8.52847 11.1489 7.48356 11.4885 6.43827C11.628 6.00896 11.7683 5.57993 11.909 5.15101C11.9305 5.0855 11.952 5.01999 11.9742 4.95249C12.0164 4.82374 12.0586 4.69499 12.1009 4.56625C12.4046 3.64069 12.7082 2.7151 13.0063 1.78771C13.1494 1.34271 13.2926 0.897766 13.4392 0.453911C13.4527 0.412934 13.4661 0.371958 13.4799 0.32974C13.5688 0.0624514 13.5688 0.0624514 13.6313 0C14.6453 0 15.6592 0 16.7039 0C16.7039 6.58156 16.7039 13.1631 16.7039 19.9441C15.9296 19.9441 15.1553 19.9441 14.3575 19.9441C14.3563 18.23 14.3553 16.5158 14.3547 14.8016C14.3546 14.5982 14.3545 14.3949 14.3545 14.1915C14.3545 14.1308 14.3545 14.1308 14.3544 14.0688C14.3542 13.4174 14.3537 12.7659 14.3532 12.1145C14.3527 11.4437 14.3524 10.773 14.3523 10.1022C14.3522 9.72645 14.352 9.35067 14.3516 8.9749C14.3478 5.33522 14.3478 5.33522 14.4693 3.74302C14.4324 3.74302 14.3955 3.74302 14.3575 3.74302C14.3505 3.85255 14.3505 3.85255 14.3434 3.9643C14.3002 4.39526 14.1867 4.81135 14.0817 5.23045C14.0613 5.31293 14.041 5.39542 14.0207 5.47792C13.9658 5.70048 13.9104 5.92288 13.8547 6.14525C13.83 6.24828 13.83 6.24828 13.8047 6.35339C13.7458 6.58879 13.6734 6.81822 13.5969 7.04842C13.5825 7.09196 13.5682 7.13549 13.5535 7.18034C13.506 7.32441 13.4583 7.4684 13.4107 7.61239C13.3767 7.71527 13.3428 7.81816 13.3089 7.92105C13.2178 8.19723 13.1265 8.47335 13.0351 8.74945C12.9593 8.97867 12.8836 9.20794 12.8079 9.4372C12.4335 10.5715 12.0578 11.7055 11.6799 12.8387C11.665 12.8833 11.6502 12.9278 11.6349 12.9738C11.4959 13.3904 11.3568 13.807 11.2174 14.2235C11.1671 14.3737 11.1168 14.5239 11.0666 14.6741C11.0334 14.7733 11.0002 14.8724 10.9669 14.9716C10.8558 15.3037 10.7484 15.6366 10.6446 15.9711C10.5084 16.4099 10.3647 16.846 10.2189 17.2818C10.193 17.3594 10.1671 17.437 10.1412 17.5147C10.0741 17.7156 10.007 17.9166 9.93977 18.1175C9.85858 18.3604 9.77752 18.6033 9.69644 18.8462C9.57426 19.2122 9.45192 19.5782 9.32961 19.9441C8.70279 19.9441 8.07598 19.9441 7.43017 19.9441C7.38892 19.8203 7.34767 19.6964 7.30517 19.5688C6.91568 18.3991 6.52609 17.2295 6.13641 16.06C5.9361 15.4587 5.73582 14.8575 5.53561 14.2562C5.36098 13.7318 5.18629 13.2074 5.01154 12.683C4.91912 12.4057 4.82673 12.1283 4.73442 11.851C4.64728 11.5892 4.56006 11.3274 4.47278 11.0656C4.441 10.9703 4.40925 10.8749 4.37753 10.7796C4.19522 10.2314 4.0085 9.68519 3.81489 9.14096C2.87592 6.49678 2.87592 6.49678 2.60246 5.18271C2.55404 4.953 2.50087 4.72443 2.4482 4.49567C2.39484 4.26358 2.34259 4.03125 2.2905 3.79888C2.2888 3.97812 2.28786 4.15735 2.28701 4.33659C2.28631 4.40907 2.28631 4.40907 2.28559 4.48302C2.28449 4.79874 2.29392 5.1128 2.31053 5.42799C2.34896 6.16993 2.35395 6.91017 2.35271 7.65295C2.3527 7.78798 2.3527 7.92301 2.35274 8.05803C2.35275 8.38312 2.35251 8.7082 2.35215 9.03329C2.35175 9.41233 2.35167 9.79138 2.35161 10.1704C2.35148 10.8461 2.35111 11.5218 2.35058 12.1975C2.35007 12.8529 2.34967 13.5084 2.34944 14.1639C2.34942 14.2044 2.34941 14.245 2.34939 14.2868C2.34932 14.4903 2.34925 14.6938 2.34918 14.8974C2.3486 16.5796 2.34761 18.2619 2.34637 19.9441C1.57207 19.9441 0.797765 19.9441 0 19.9441C0 13.3626 0 6.78101 0 0Z" fill="var(--fill-0, #BFBFBF)"/>
</svg>
