<svg preserveAspectRatio="none" width="100%" height="100%" overflow="visible" style="display: block;" viewBox="0 0 4.85678 4.72167" fill="none" xmlns="http://www.w3.org/2000/svg">
<path id="Vector" d="M2.04693 0.00437976C2.36931 -0.0202102 4.19125 0.0579967 4.35598 0.257926C4.32388 0.50425 4.09496 0.901701 3.88492 1.03579C3.3086 1.40351 2.69027 0.613843 2.12717 0.538044C1.77694 0.490941 1.56359 0.783754 1.52111 1.09516C1.70425 1.74172 3.26281 1.45727 3.33361 1.72738C3.60266 2.75478 1.65611 2.41547 1.25726 2.92082C1.00616 3.23893 0.953764 3.63841 1.07979 3.69C1.63534 3.9173 2.62278 3.82121 3.25149 3.80771C3.8566 3.6689 4.49239 3.21009 4.81099 3.18508L4.85678 3.23662C4.73972 3.57139 3.99773 4.2415 3.66355 4.39503C3.02823 4.67562 2.34571 4.7307 1.65422 4.72056C1.21384 4.7147 0.264634 4.65566 0.0800803 4.13601C-0.289972 3.09384 0.703129 2.55886 1.40972 2.23456C1.36818 2.2096 1.17419 2.09415 1.15154 2.06607C0.416623 1.15142 1.16805 0.260002 2.04693 0.00437976Z" fill="var(--fill-0, #FBFBFB)"/>
</svg>
