<svg preserveAspectRatio="none" width="100%" height="100%" overflow="visible" style="display: block;" viewBox="0 0 30.8799 34.0355" fill="none" xmlns="http://www.w3.org/2000/svg">
<g id="Frame">
<circle id="Ellipse 55" cx="16.4543" cy="10.143" r="2.25401" fill="var(--fill-0, #00C8C3)"/>
<path id="Vector" d="M19.6099 22.0893V29.5275H16.4543C14.3261 29.5382 12.9605 29.5275 12.8478 29.5275C12.8478 29.5275 13.2049 29.2299 14.1737 27.9753C16.3762 25.1967 17.7076 23.0931 18.5996 20.9825C19.7581 18.2417 19.8682 15.9948 18.9311 14.2274C18.8094 13.9978 18.7083 13.781 18.7083 13.7494H22.5401H26.3719V22.0893H19.6099Z" fill="var(--fill-0, #00C8C3)"/>
<path id="Vector_2" d="M11.27 28.4006C11.27 28.4006 11.4739 28.1928 11.6941 27.9103C13.1978 25.9838 13.6436 25.3849 14.1974 24.5456C15.1204 23.1458 15.6676 21.8237 15.8758 20.4898C15.9985 19.7032 15.9634 18.4647 15.798 17.7372C15.5904 16.8238 14.7676 15.1892 13.7001 13.5696C12.9858 12.4855 12.662 11.9042 12.3082 11.0668C11.6394 9.48424 11.3993 7.99717 11.27 5.40962C11.2355 4.72036 11.27 4.50802 11.27 4.50802C11.1862 4.50551 10.804 4.82075 10.5351 5.69959C10.2376 6.67196 10.0382 7.74854 9.93034 8.96824C9.84872 9.89416 9.92103 10.3781 10.3751 11.945C10.5553 12.5665 10.7065 13.2988 10.7356 13.4359L10.8163 13.7496H4.50802L4.52171 18.019L4.50802 22.0894L11.27 22.0933V25.3577C11.27 27.2164 11.2394 28.4006 11.27 28.4006Z" fill="var(--fill-0, #022449)"/>
</g>
</svg>
