<svg preserveAspectRatio="none" width="100%" height="100%" overflow="visible" style="display: block;" viewBox="0 0 7.03391 7.03391" fill="none" xmlns="http://www.w3.org/2000/svg">
<g id="IconGlobe">
<path id="Vector" d="M4.38951 3.81275C4.36425 4.55829 4.24402 5.21769 4.06894 5.69916C3.96967 5.97217 3.85836 6.17246 3.74954 6.29907C3.63987 6.42661 3.55974 6.45047 3.51543 6.45047C3.47111 6.45047 3.39096 6.42661 3.28129 6.29907C3.17247 6.17246 3.06115 5.97217 2.96189 5.69916C2.78681 5.21769 2.6666 4.55829 2.64133 3.81275H4.38951Z" fill="var(--fill-0, #022449)"/>
<path id="Vector_2" d="M2.0577 3.81275C2.08309 4.61371 2.21157 5.34354 2.41374 5.89951C2.46552 6.04189 2.5238 6.17588 2.58776 6.29877C1.51429 5.93952 0.717602 4.97672 0.602032 3.81275H2.0577Z" fill="var(--fill-0, #022449)"/>
<path id="Vector_3" d="M6.43181 3.81275C6.31622 4.97681 5.51939 5.9396 4.44578 6.29877C4.50976 6.17586 4.56829 6.04195 4.62008 5.89951C4.82227 5.34354 4.95073 4.61371 4.97614 3.81275H6.43181Z" fill="var(--fill-0, #022449)"/>
<path id="Vector_4" d="M2.58776 0.738146C2.52375 0.861096 2.46555 0.99523 2.41374 1.1377C2.21157 1.69369 2.08309 2.42351 2.0577 3.22446H0.602032C0.717605 2.06047 1.51425 1.09738 2.58776 0.738146Z" fill="var(--fill-0, #022449)"/>
<path id="Vector_5" d="M3.51543 0.587449C3.55974 0.587449 3.63987 0.6113 3.74954 0.738854C3.85836 0.865458 3.96967 1.06576 4.06894 1.33875C4.24402 1.82023 4.36425 2.47963 4.38951 3.22517H2.64133C2.6666 2.47963 2.78681 1.82023 2.96189 1.33875C3.06115 1.06576 3.17247 0.865458 3.28129 0.738854C3.39096 0.6113 3.47111 0.587449 3.51543 0.587449Z" fill="var(--fill-0, #022449)"/>
<path id="Vector_6" d="M4.44578 0.738146C5.51942 1.09731 6.31622 2.06038 6.43181 3.22446H4.97614C4.95073 2.42351 4.82227 1.69369 4.62008 1.1377C4.56826 0.995186 4.50982 0.861128 4.44578 0.738146Z" fill="var(--fill-0, #022449)"/>
</g>
</svg>
