<svg preserveAspectRatio="none" width="100%" height="100%" overflow="visible" style="display: block;" viewBox="0 0 15.7308 15.7308" fill="none" xmlns="http://www.w3.org/2000/svg">
<g id="Expert Team">
<path id="Vector" fill-rule="evenodd" clip-rule="evenodd" d="M7.09992 2.07405C7.38299 1.90273 7.70754 1.81216 8.03841 1.81216C8.36928 1.81216 8.69384 1.90273 8.9769 2.07405L9.64335 2.4817C10.5784 3.05327 11.6433 3.18054 12.7132 3.30879C13.059 3.35034 13.4052 3.39156 13.7477 3.44817C13.7477 3.44817 13.7552 4.0482 13.7474 4.3204L13.679 6.66C13.6201 8.66654 12.7279 10.569 11.1974 11.9517C10.4753 12.6037 9.72842 13.193 8.87025 13.6824C8.6173 13.8253 8.33375 13.9055 8.04341 13.9162C7.75307 13.9268 7.4644 13.8676 7.20167 13.7436C6.21067 13.2725 5.3332 12.675 4.53196 11.9517C3.00145 10.569 2.10926 8.66654 2.05069 6.66L1.98264 4.32793C1.97446 4.0518 1.98264 3.44817 1.98264 3.44817C2.26074 3.41545 2.54407 3.38829 2.82969 3.36114C4.09028 3.24139 5.39274 3.11772 6.46128 2.46469L7.09992 2.07405ZM7.20756 7.04705V4.75685H8.51625V7.04705H10.8064V8.35573H8.51625V10.6459H7.20756V8.35573H4.91736V7.04705H7.20756Z" fill="var(--fill-0, #022449)"/>
</g>
</svg>
