<svg preserveAspectRatio="none" width="100%" height="100%" overflow="visible" style="display: block;" viewBox="0 0 15.7308 15.7308" fill="none" xmlns="http://www.w3.org/2000/svg">
<g id="Expert Team">
<path id="Vector" d="M7.8631 1.96813C7.60513 1.96813 7.34969 2.01894 7.11136 2.11766C6.87303 2.21638 6.65648 2.36107 6.47407 2.54348C6.29166 2.72589 6.14697 2.94244 6.04825 3.18077C5.94953 3.4191 5.89872 3.67454 5.89872 3.93251C5.89872 4.19048 5.94953 4.44592 6.04825 4.68425C6.14697 4.92258 6.29166 5.13913 6.47407 5.32154C6.65648 5.50395 6.87303 5.64864 7.11136 5.74736C7.34969 5.84608 7.60513 5.89689 7.8631 5.89689C8.38408 5.89689 8.88373 5.68993 9.25212 5.32154C9.62052 4.95314 9.82748 4.4535 9.82748 3.93251C9.82748 3.41152 9.62052 2.91188 9.25212 2.54348C8.88373 2.17509 8.38408 1.96813 7.8631 1.96813ZM12.2874 2.94934C11.8962 2.94934 11.5211 3.10471 11.2446 3.38128C10.968 3.65785 10.8126 4.03297 10.8126 4.4241C10.8126 4.81523 10.968 5.19034 11.2446 5.46691C11.5211 5.74348 11.8962 5.89886 12.2874 5.89886C12.6785 5.89886 13.0536 5.74348 13.3302 5.46691C13.6068 5.19034 13.7621 4.81523 13.7621 4.4241C13.7621 4.03297 13.6068 3.65785 13.3302 3.38128C13.0536 3.10471 12.6785 2.94934 12.2874 2.94934ZM3.43882 2.94934C3.04769 2.94934 2.67257 3.10471 2.396 3.38128C2.11943 3.65785 1.96406 4.03297 1.96406 4.4241C1.96406 4.81523 2.11943 5.19034 2.396 5.46691C2.67257 5.74348 3.04769 5.89886 3.43882 5.89886C3.82995 5.89886 4.20506 5.74348 4.48163 5.46691C4.7582 5.19034 4.91358 4.81523 4.91358 4.4241C4.91358 4.03297 4.7582 3.65785 4.48163 3.38128C4.20506 3.10471 3.82995 2.94934 3.43882 2.94934ZM4.91358 7.85832C4.91539 7.59876 5.01978 7.35045 5.20396 7.16756C5.38815 6.98466 5.63718 6.88202 5.89675 6.88203H9.82944C10.0902 6.88203 10.3403 6.98561 10.5247 7.17C10.709 7.35438 10.8126 7.60445 10.8126 7.8652V10.8147C10.8129 11.1242 10.7644 11.4317 10.6691 11.7261C10.4514 12.3934 10.0029 12.9612 9.40424 13.3276C8.80555 13.694 8.09587 13.835 7.40261 13.7252C6.70935 13.6154 6.07793 13.2621 5.62174 12.7286C5.16555 12.1952 4.91446 11.5166 4.91358 10.8147V7.85832ZM3.9304 7.8652C3.9304 7.50635 4.02577 7.17108 4.19389 6.88203H1.96406C1.7033 6.88203 1.45323 6.98561 1.26885 7.17C1.08447 7.35438 0.980883 7.60445 0.980883 7.8652V10.3231C0.980749 10.7256 1.07942 11.1219 1.26824 11.4772C1.45705 11.8326 1.73023 12.1362 2.06379 12.3613C2.39735 12.5864 2.78108 12.7262 3.18128 12.7684C3.58148 12.8105 3.98592 12.7538 4.35907 12.6031C4.07669 12.0489 3.92978 11.4357 3.9304 10.8137V7.8652ZM11.7958 7.8652V10.8147C11.7958 11.4587 11.6414 12.0663 11.3671 12.6031C11.7403 12.7538 12.1447 12.8105 12.5449 12.7684C12.9451 12.7262 13.3288 12.5864 13.6624 12.3613C13.996 12.1362 14.2691 11.8326 14.458 11.4772C14.6468 11.1219 14.7454 10.7256 14.7453 10.3231V7.8652C14.7453 7.60445 14.6417 7.35438 14.4573 7.17C14.273 6.98561 14.0229 6.88203 13.7621 6.88203H11.5323C11.6994 7.17108 11.7958 7.50635 11.7958 7.8652Z" fill="var(--fill-0, #022449)"/>
</g>
</svg>
