<svg preserveAspectRatio="none" width="100%" height="100%" overflow="visible" style="display: block;" viewBox="0 0 51.9164 57.2217" fill="none" xmlns="http://www.w3.org/2000/svg">
<g id="Frame">
<circle id="Ellipse 55" cx="27.6635" cy="17.0528" r="3.78952" fill="var(--fill-0, #00C8C3)"/>
<path id="Vector" d="M32.9688 37.1373V49.6427H27.6635C24.0855 49.6607 21.7897 49.6427 21.6003 49.6427C21.6003 49.6427 22.2005 49.1424 23.8293 47.0331C27.5322 42.3616 29.7706 38.8249 31.2703 35.2765C33.218 30.6686 33.4032 26.8911 31.8276 23.9196C31.623 23.5335 31.453 23.1691 31.453 23.1161H37.8952H44.3374V37.1373H32.9688Z" fill="var(--fill-0, #00C8C3)"/>
<path id="Vector_2" d="M18.9476 47.7481C18.9476 47.7481 19.2904 47.3988 19.6606 46.9238C22.1885 43.6849 22.9382 42.678 23.8692 41.267C25.421 38.9135 26.341 36.6909 26.6909 34.4482C26.8972 33.1258 26.8383 31.0435 26.5602 29.8203C26.2111 28.2848 24.8279 25.5365 23.033 22.8137C21.8321 20.991 21.2879 20.0137 20.693 18.6059C19.5685 15.9452 19.1649 13.4451 18.9476 9.09485C18.8896 7.93604 18.9476 7.57904 18.9476 7.57904C18.8067 7.57482 18.1641 8.10483 17.7119 9.58236C17.2119 11.2171 16.8767 13.0271 16.6952 15.0777C16.558 16.6344 16.6796 17.4481 17.443 20.0823C17.746 21.1272 18.0002 22.3583 18.049 22.5889L18.1848 23.1162H7.57904L7.60206 30.2942L7.57904 37.1375L18.9476 37.144V42.6323C18.9476 45.7573 18.896 47.7481 18.9476 47.7481Z" fill="var(--fill-0, #022449)"/>
</g>
</svg>
