<svg preserveAspectRatio="none" width="100%" height="100%" overflow="visible" style="display: block;" viewBox="0 0 11.0744 11.0744" fill="none" xmlns="http://www.w3.org/2000/svg">
<g id="IconEmail1">
<path id="Vector" d="M9.69281 2.30568H10.1542V1.84425H9.69281V2.30568ZM9.69281 8.76576V9.22719H10.1542V8.76576H9.69281ZM1.387 2.30568V1.84425H0.925566V2.30568H1.387ZM1.387 8.76576H0.925566V9.22719H1.387V8.76576ZM9.69281 2.30568H9.23138V8.76576H9.69281H10.1542V2.30568H9.69281ZM1.387 2.30568V2.76712H9.69281V2.30568V1.84425H1.387V2.30568ZM1.387 8.76576H1.84843V2.30568H1.387H0.925566V8.76576H1.387ZM9.69281 8.76576V8.30432H1.387V8.76576V9.22719H9.69281V8.76576Z" fill="var(--fill-0, #00C8C3)"/>
<path id="Vector_2" d="M1.61838 2.78953L5.54057 5.99858L9.46276 2.78953" stroke="var(--stroke-0, #00C8C3)" stroke-width="0.922868"/>
</g>
</svg>
