<svg preserveAspectRatio="none" width="100%" height="100%" overflow="visible" style="display: block;" viewBox="0 0 33.6 33.6" fill="none" xmlns="http://www.w3.org/2000/svg">
<g id="IconTeam" clip-path="url(#clip0_4037_3373)">
<path id="Vector" d="M16.8008 16.8008C21.44 16.8008 25.2008 20.5616 25.2008 25.2008V28.0008H8.40078V25.2008C8.40078 20.5616 12.1616 16.8008 16.8008 16.8008Z" fill="var(--fill-0, white)"/>
<path id="Vector_2" d="M8.06036 18.2008C6.52256 20.1185 5.60078 22.5514 5.60078 25.2008V26.6008H0.00078125V25.2008C0.00078125 21.3348 3.13479 18.2008 7.00078 18.2008H8.06036Z" fill="var(--fill-0, white)"/>
<path id="Vector_3" d="M26.5994 18.2008C30.4653 18.2008 33.5994 21.3348 33.5994 25.2008V26.6008H27.9994V25.2008C27.9994 22.5514 27.0776 20.1185 25.5398 18.2008H26.5994Z" fill="var(--fill-0, white)"/>
<path id="Vector_4" d="M6.30078 8.75078C8.42707 8.75078 10.1508 10.4745 10.1508 12.6008C10.1508 14.7271 8.42707 16.4508 6.30078 16.4508C4.17449 16.4508 2.45078 14.7271 2.45078 12.6008C2.45078 10.4745 4.17449 8.75078 6.30078 8.75078Z" fill="var(--fill-0, white)"/>
<path id="Vector_5" d="M27.3008 8.75078C29.4271 8.75078 31.1508 10.4745 31.1508 12.6008C31.1508 14.7271 29.4271 16.4508 27.3008 16.4508C25.1745 16.4508 23.4508 14.7271 23.4508 12.6008C23.4508 10.4745 25.1745 8.75078 27.3008 8.75078Z" fill="var(--fill-0, white)"/>
<path id="Vector_6" d="M16.8008 4.90078C19.507 4.90078 21.7008 7.09458 21.7008 9.80078C21.7008 12.507 19.507 14.7008 16.8008 14.7008C14.0946 14.7008 11.9008 12.507 11.9008 9.80078C11.9008 7.09458 14.0946 4.90078 16.8008 4.90078Z" fill="var(--fill-0, white)"/>
</g>
<defs>
<clipPath id="clip0_4037_3373">
<rect width="33.6" height="33.6" fill="white"/>
</clipPath>
</defs>
</svg>
