<svg preserveAspectRatio="none" width="100%" height="100%" overflow="visible" style="display: block;" viewBox="0 0 28.206 31.0883" fill="none" xmlns="http://www.w3.org/2000/svg">
<g id="Frame">
<circle id="Ellipse 55" cx="15.0295" cy="9.26473" r="2.05883" fill="var(--fill-0, white)"/>
<path id="Vector" d="M17.9118 20.1765V26.9707H15.0295C13.0856 26.9805 11.8383 26.9707 11.7353 26.9707C11.7353 26.9707 12.0614 26.6988 12.9463 25.5529C14.9581 23.0149 16.1742 21.0934 16.989 19.1655C18.0472 16.6621 18.1478 14.6098 17.2918 12.9954C17.1806 12.7857 17.0883 12.5877 17.0883 12.5589H20.5883H24.0883V20.1765H17.9118Z" fill="var(--fill-0, white)"/>
<path id="Vector_2" d="M10.2941 25.9414C10.2941 25.9414 10.4804 25.7515 10.6815 25.4935C12.0549 23.7338 12.4622 23.1868 12.968 22.4202C13.8111 21.1415 14.3109 19.934 14.5011 18.7155C14.6131 17.9971 14.5811 16.8658 14.43 16.2013C14.2404 15.367 13.4889 13.8739 12.5137 12.3946C11.8613 11.4043 11.5656 10.8734 11.2424 10.1085C10.6315 8.66298 10.4122 7.30468 10.2941 4.94119C10.2626 4.31161 10.2941 4.11766 10.2941 4.11766C10.2176 4.11536 9.86848 4.40332 9.62282 5.20605C9.35114 6.09422 9.16902 7.07758 9.07045 8.19166C8.9959 9.0374 9.06195 9.47948 9.47672 10.9106C9.64133 11.4783 9.77944 12.1472 9.80594 12.2724L9.8797 12.559H4.11766L4.13017 16.4587L4.11766 20.1766L10.2941 20.1802V23.1619C10.2941 24.8597 10.2661 25.9414 10.2941 25.9414Z" fill="var(--fill-0, white)"/>
</g>
</svg>
