<svg preserveAspectRatio="none" width="100%" height="100%" overflow="visible" style="display: block;" viewBox="0 0 24 24" fill="none" xmlns="http://www.w3.org/2000/svg">
<g id="IconBehance">
<path id="Vector" d="M7.36628 4.75056C7.96073 4.73953 8.55432 4.80041 9.13412 4.93188C9.62229 5.03835 10.0858 5.23647 10.5 5.51572C10.8825 5.79339 11.1851 6.16671 11.3776 6.59818C11.5987 7.12875 11.7054 7.69992 11.6906 8.27445C11.7158 8.9053 11.5545 9.52958 11.2269 10.0695C10.8823 10.5794 10.4059 10.9867 9.84834 11.2481C10.605 11.4518 11.2641 11.9186 11.707 12.5644C12.1322 13.2487 12.3459 14.0431 12.3214 14.8481C12.3354 15.49 12.2025 16.1265 11.933 16.7093C11.6838 17.2177 11.3189 17.6608 10.8675 18.003C10.4028 18.3415 9.87987 18.592 9.3247 18.7419C8.74897 18.901 8.15421 18.9809 7.55686 18.9794H0.998254V4.75056H7.36628ZM6.98785 10.5056C7.45491 10.5248 7.91468 10.3851 8.29195 10.1094C8.47263 9.9487 8.61318 9.74802 8.70237 9.52339C8.79156 9.29876 8.82691 9.0564 8.8056 8.81568C8.81769 8.53454 8.76166 8.25463 8.64225 7.99976C8.54096 7.79683 8.38347 7.62722 8.18849 7.51111C7.99101 7.38329 7.76914 7.29779 7.5369 7.25999C7.28491 7.21122 7.02849 7.18904 6.77186 7.1938H3.96945V10.5183H6.98785V10.5056ZM7.1512 16.5634C7.43366 16.5672 7.71554 16.5367 7.99065 16.4727C8.24207 16.4172 8.48051 16.3141 8.69307 16.169C8.90131 16.0239 9.06955 15.8287 9.18222 15.6015C9.31287 15.3117 9.37289 14.9951 9.35737 14.6777C9.3857 14.3884 9.34734 14.0965 9.24525 13.8243C9.14316 13.5521 8.98004 13.3069 8.76839 13.1075C8.31981 12.7774 7.77007 12.6139 7.21382 12.6451H3.96945V16.5634H7.1512Z" fill="var(--fill-0, white)"/>
<path id="Vector_2" d="M16.5555 16.5126C16.7887 16.7285 17.0634 16.8948 17.363 17.0014C17.6625 17.108 17.9806 17.1527 18.2979 17.1327C18.801 17.1454 19.2943 16.9925 19.7019 16.6975C20.0334 16.4822 20.2845 16.1635 20.4161 15.7909H22.7856C22.5331 16.8515 21.9166 17.7901 21.0432 18.4436C20.2053 18.9992 19.2151 19.2805 18.2099 19.2487C17.4925 19.2581 16.7805 19.1233 16.1163 18.8525C15.5154 18.6021 14.9765 18.2237 14.5372 17.7437C14.0996 17.2407 13.7634 16.658 13.5471 16.0276C13.3043 15.3229 13.1855 14.5815 13.1959 13.8363C13.1915 13.1037 13.3143 12.3758 13.5589 11.685C13.8875 10.7133 14.5158 9.87053 15.3537 9.27766C16.1916 8.6848 17.1959 8.37233 18.2226 8.38509C18.9806 8.36927 19.7302 8.54648 20.4007 8.90003C21.0067 9.23203 21.5295 9.69697 21.9298 10.2599C22.3393 10.8506 22.6327 11.5135 22.7947 12.2136C22.9723 12.9653 23.0356 13.7394 22.9825 14.5099H15.9248C15.8676 15.2339 16.0937 15.9518 16.5555 16.5126ZM19.652 11.1012C19.4545 10.9038 19.2169 10.7511 18.9553 10.6532C18.6937 10.5553 18.4142 10.5145 18.1355 10.5337C17.7658 10.5196 17.3987 10.6014 17.0701 10.7712C16.8095 10.9145 16.5795 11.1073 16.3931 11.3387C16.2278 11.5557 16.1047 11.8017 16.0301 12.064C15.9628 12.2827 15.9208 12.5084 15.9048 12.7367H20.2763C20.2382 12.1416 20.0213 11.5719 19.6538 11.1021L19.652 11.1012Z" fill="var(--fill-0, white)"/>
<path id="Vector_3" d="M20.8153 5.70144H15.3376V7.1003H20.8153V5.70144Z" fill="var(--fill-0, white)"/>
</g>
</svg>
