<svg preserveAspectRatio="none" width="100%" height="100%" overflow="visible" style="display: block;" viewBox="0 0 10.7422 10.7422" fill="none" xmlns="http://www.w3.org/2000/svg">
<g id="IconEmail1">
<path id="Vector" d="M9.39802 2.23511H9.84561V1.78752H9.39802V2.23511ZM9.39802 8.50139V8.94898H9.84561V8.50139H9.39802ZM1.34138 2.23511V1.78752H0.893787V2.23511H1.34138ZM1.34138 8.50139H0.893787V8.94898H1.34138V8.50139ZM9.39802 2.23511H8.95043V8.50139H9.39802H9.84561V2.23511H9.39802ZM1.34138 2.23511V2.6827H9.39802V2.23511V1.78752H1.34138V2.23511ZM1.34138 8.50139H1.78897V2.23511H1.34138H0.893787V8.50139H1.34138ZM9.39802 8.50139V8.0538H1.34138V8.50139V8.94898H9.39802V8.50139Z" fill="var(--fill-0, #00C8C3)"/>
<path id="Vector_2" d="M1.57476 2.70247L5.37929 5.81525L9.18381 2.70247" stroke="var(--stroke-0, #00C8C3)" stroke-width="0.895182"/>
</g>
</svg>
