<svg preserveAspectRatio="none" width="100%" height="100%" overflow="visible" style="display: block;" viewBox="0 0 25.4215 30.7973" fill="none" xmlns="http://www.w3.org/2000/svg">
<g id="Frame 9">
<path id="Vector" d="M17.3224 21.767L17.2549 30.7732L13.26 30.7934C10.6514 30.8066 9.25095 30.7864 9.22395 30.7359C9.15983 30.6156 9.21248 30.5402 10.4462 28.9766C13.1459 25.5566 14.7779 22.9673 15.8713 20.3695C17.2913 16.996 17.4263 14.2305 16.2776 12.055C16.1284 11.7724 16.0063 11.51 16.0063 11.4712C16.0063 11.43 17.9386 11.4091 20.7139 11.4207L25.4215 11.4409V21.6893L17.3224 21.767ZM15.4164 9.40363C14.9325 9.66372 14.2393 9.75223 13.7608 9.61403C13.0663 9.41295 12.4137 8.78873 12.1241 8.04649C11.6341 6.79106 12.1234 5.40907 13.2917 4.74913C13.6366 4.55426 13.75 4.53097 14.3527 4.53097C14.9628 4.53097 15.0661 4.55271 15.4319 4.75923C15.654 4.885 15.9827 5.15597 16.1615 5.36249C16.6083 5.87646 16.771 6.32367 16.775 7.05426C16.7804 8.0954 16.2985 8.92848 15.4164 9.40363Z" fill="var(--fill-0, white)"/>
<path id="Vector_2" d="M8.25443 29.4364C8.28867 29.4364 8.53844 29.1521 8.80835 28.8044C10.6514 26.4331 11.1979 25.696 11.8767 24.663C13.0081 22.94 13.6788 21.3128 13.934 19.6709C14.0844 18.7028 14.0414 17.1783 13.8386 16.2828C13.5842 15.1586 12.5757 13.1466 11.2671 11.1532C10.3916 9.81884 9.99475 9.10337 9.56101 8.07265C8.74121 6.12481 8.37931 4.22641 8.22086 1.04155C8.17856 0.193181 8.13424 0.00388155 7.97512 1.8305e-05C7.87239 -0.00307229 7.71729 0.384798 7.38763 1.46651C7.02304 2.66334 6.77865 3.98843 6.64638 5.48969C6.54634 6.62935 6.63496 7.22506 7.19157 9.15359C7.41247 9.91851 7.61121 10.7437 7.63336 10.9886L7.67365 11.4337H0L0.0167854 16.6297L0.034242 21.8258L8.19199 21.866V25.6512C8.19199 27.939 8.21683 29.4364 8.25443 29.4364Z" fill="var(--fill-0, white)"/>
</g>
</svg>
