<svg preserveAspectRatio="none" width="100%" height="100%" overflow="visible" style="display: block;" viewBox="0 0 33.6 33.6" fill="none" xmlns="http://www.w3.org/2000/svg">
<g id="IconChairModern">
<path id="Vector" fill-rule="evenodd" clip-rule="evenodd" d="M10.0857 2.80078L6.54268 18.3901C6.34435 18.3422 6.14442 18.293 5.94276 18.2426L4.58457 17.903L3.90547 20.6194L5.26366 20.9589C6.72623 21.3246 8.10852 21.6283 9.43779 21.8699L6.63235 30.2863L9.28865 31.1716L12.247 22.2965C15.3513 22.6689 18.2552 22.6689 21.3594 22.2965L24.3177 31.1716L26.9741 30.2863L24.1686 21.8699C25.4979 21.6283 26.8802 21.3246 28.3427 20.9589L29.701 20.6194L29.0219 17.903L27.6637 18.2426C27.462 18.293 27.2621 18.3422 27.0637 18.3901L23.5207 2.80078H10.0857Z" fill="var(--fill-0, white)"/>
</g>
</svg>
