<svg preserveAspectRatio="none" width="100%" height="100%" overflow="visible" style="display: block;" viewBox="0 0 443.483 266.735" fill="none" xmlns="http://www.w3.org/2000/svg">
<g id="Group" opacity="0.4">
<path id="Vector" d="M0.0483026 44.0414C12.0938 52.434 26.7396 61.0605 35.8123 72.3246C49.9674 89.8986 31.3368 115.114 51.2003 131.785C67.1217 145.147 66.9352 159.65 65.1398 179.138C63.7318 194.427 63.0484 219.542 81.2505 223.234C100.587 227.156 113.506 215.814 127.629 202.329C146.095 184.696 177.257 173.003 200.96 182.639C213.265 187.642 226.136 187.69 240 186.985C249.968 186.478 261.13 184.199 270.218 187.966C281.395 192.598 283.317 206.374 285.884 217.199C289.962 234.4 303.997 255.226 319.211 263.696C343.156 277.025 366.154 241.146 388.57 237.533C407.118 234.544 426.552 250.532 443.429 236.134" stroke="var(--stroke-0, #00C899)" stroke-width="0.168988" stroke-miterlimit="10"/>
<path id="Vector_2" d="M0.0483026 44.0414C12.2885 52.411 26.7146 60.7205 36.5214 71.6216C51.5471 88.3243 33.2917 113.248 52.3048 129.68C68.2073 143.425 69.9012 154.81 68.0485 175.271C66.656 190.648 64.8444 216.087 83.5291 220.05C103.009 224.181 115.923 212.072 130.522 199.309C151.071 181.345 177.382 169.172 203.695 180.102C216.244 185.315 228.524 186.237 242.337 185.887C252.247 185.636 263.001 183.638 272.148 187.257C284.413 192.108 285.054 206.878 287.826 218.178C291.742 234.142 305.777 254.342 320.172 261.836C344.593 274.549 366.705 239.549 389.509 236.714C407.629 234.462 426.726 250.235 443.429 236.134" stroke="var(--stroke-0, #00C899)" stroke-width="0.168988" stroke-miterlimit="10"/>
<path id="Vector_3" d="M0.0483026 44.0414C12.4784 52.3819 26.7173 60.4129 37.2142 70.9206C53.0734 86.7967 35.0491 111.829 53.3985 127.588C69.1685 141.132 72.5706 151.09 70.8983 171.522C69.6349 186.963 66.5695 212.66 85.6476 216.959C105.328 221.394 118.575 208.261 133.75 196.212C142.73 189.083 153.519 181.857 164.075 176.571C179.917 168.638 190.917 170.633 206.416 177.687C218.741 183.297 230.883 184.861 244.661 184.833C254.5 184.813 264.801 183.129 274.041 186.573C286.495 191.214 286.969 205.85 289.375 217.012C292.751 232.677 306.764 252.921 321.118 259.903C346.092 272.05 368.155 236.893 390.44 235.926C406.803 235.216 427.756 249.274 443.429 236.133" stroke="var(--stroke-0, #00C899)" stroke-width="0.168988" stroke-miterlimit="10"/>
<path id="Vector_4" d="M0.0483026 44.0414C12.6623 52.3468 26.7288 60.1338 37.8908 70.2223C54.6349 85.3569 37.0878 110.401 54.503 125.482C69.7958 138.725 74.9804 147.751 73.6528 167.96C72.6389 183.4 68.3175 209.297 87.6126 213.962C107.464 218.761 121.182 205.269 137.091 193.235C146.507 186.112 156.482 177.978 167.092 172.507C182.983 164.312 194.02 167.947 209.14 175.445C221.224 181.437 233.22 183.551 246.975 183.814C256.719 184.001 266.612 182.654 275.892 185.92C288.544 190.374 288.923 204.751 290.972 215.864C293.825 231.34 307.724 251.359 322.056 257.913C347.51 269.554 367.707 236.206 391.369 235.185C408.75 234.436 427.125 249.652 443.429 236.134" stroke="var(--stroke-0, #00C899)" stroke-width="0.168988" stroke-miterlimit="10"/>
<path id="Vector_5" d="M0.0483026 44.0414C12.8394 52.3055 26.816 59.8735 38.5512 69.5275C56.1287 83.9874 39.1048 108.801 55.642 123.335C70.3717 136.279 77.1055 144.923 76.2802 164.634C75.6381 179.968 69.543 204.475 89.4444 211.044C109.076 217.525 126.27 200.931 140.415 190.211C149.841 183.067 159.309 173.787 170.004 168.269C185.89 160.074 197.316 165.63 211.88 173.407C223.751 179.748 235.54 182.285 249.281 182.815C258.895 183.186 268.448 182.216 277.699 185.3C290.571 189.591 290.891 203.57 292.619 214.734C295.002 230.128 308.646 249.663 322.996 255.875C348.782 267.036 368.246 234.526 392.289 234.471C409.372 234.431 427.289 249.363 443.429 236.135" stroke="var(--stroke-0, #00C899)" stroke-width="0.168988" stroke-miterlimit="10"/>
<path id="Vector_6" d="M0.0483026 44.0414C13.009 52.2576 26.9553 59.6254 39.1954 68.8346C57.6347 82.7072 41.3253 107.137 56.8398 121.114C70.6968 133.598 78.9462 142.684 78.7522 161.57C78.5967 176.671 71.5431 201.28 91.1728 208.187C110.531 214.998 130.124 197.922 143.688 187.022C152.78 179.715 162.013 169.295 172.824 163.929C188.656 156.072 200.772 163.705 214.642 171.594C226.336 178.245 237.846 181.038 251.576 181.82C261.017 182.358 270.294 181.828 279.451 184.714C291.457 188.499 292.99 200.716 294.185 211.392C296.029 227.868 308.258 247.324 323.944 253.798C349.883 264.505 368.897 232.838 393.197 233.78C409.973 234.43 427.454 249.071 443.429 236.134" stroke="var(--stroke-0, #00C899)" stroke-width="0.168988" stroke-miterlimit="10"/>
<path id="Vector_7" d="M0.0483026 44.0414C13.1719 52.2035 27.1385 59.3828 39.8234 68.1445C59.1671 81.5067 43.6946 104.675 58.1248 118.788C70.7164 131.103 80.5333 141.049 81.0477 158.778C81.4756 173.51 73.7265 198.211 92.8471 205.364C112.016 212.534 133.983 194.899 146.89 183.581C155.461 176.064 164.633 164.475 175.575 159.581C191.323 152.536 204.352 162.236 217.439 170.013C237.661 182.031 259.033 177.598 281.147 184.166C293.331 187.785 295.014 199.45 295.981 210.332C297.446 226.815 309.739 246.855 324.906 251.697C349.97 259.697 368.985 231.196 394.093 233.115C410.495 234.368 427.621 248.781 443.429 236.134" stroke="var(--stroke-0, #00C899)" stroke-width="0.168988" stroke-miterlimit="10"/>
<path id="Vector_8" d="M0.0483026 44.0414C13.3281 52.144 27.3122 59.1874 40.4344 67.4577C60.6339 80.1879 46.8012 101.979 59.5254 116.32C70.123 128.264 81.9244 139.924 83.1506 156.241C84.2145 170.398 76.1362 195.29 94.5262 202.536C113.709 210.094 137.706 191.748 150.005 179.833C157.952 172.134 167.211 159.515 178.28 155.34C193.905 149.447 207.912 160.991 220.274 168.657C239.81 180.77 260.974 177.543 282.784 183.656C295.117 187.113 297.064 198.162 297.817 209.289C298.934 225.793 310.51 244.893 325.891 249.577C350.609 257.104 370.342 229.576 394.98 232.471C411.048 234.358 427.79 248.489 443.429 236.134" stroke="var(--stroke-0, #00C899)" stroke-width="0.168988" stroke-miterlimit="10"/>
<path id="Vector_9" d="M0.0483026 44.0414C13.4775 52.0791 27.5197 58.9191 41.0293 66.773C61.8365 78.8698 49.8937 98.972 61.1984 113.692C69.3645 124.324 83.8259 139.125 85.0507 153.928C86.2404 168.303 78.646 192.349 96.2857 199.661C115.727 207.719 141.072 188.483 153.03 175.753C160.522 167.777 169.639 154.687 180.975 151.349C196.471 146.787 211.439 159.999 223.153 167.503C241.894 179.51 263.044 177.641 284.359 183.186C298.106 186.762 298.87 198.449 299.663 210.409C300.696 225.983 312.572 243.255 326.9 247.448C339.155 251.034 349.944 247.952 362.356 242.569C372.75 238.062 384.211 230.005 395.854 231.846C411.568 234.331 427.959 248.197 443.429 236.134" stroke="var(--stroke-0, #00C899)" stroke-width="0.168988" stroke-miterlimit="10"/>
<path id="Vector_10" d="M0.0483026 44.0414C13.6208 52.0095 27.7678 58.6804 41.6072 66.0916C62.7078 77.3908 53.2282 95.1021 63.2215 111.001C70.5698 122.691 84.2132 138.105 86.7277 151.9C89.1564 165.226 81.2295 189.512 98.2155 196.688C118.533 205.273 144.057 185.079 155.968 171.352C163.123 163.106 171.998 150.198 183.699 147.77C199.095 144.577 214.774 159.108 226.079 166.521C243.945 178.236 265.145 177.72 285.872 182.755C299.793 186.136 300.974 197.104 301.53 209.379C302.237 224.996 313.425 241.249 327.944 245.318C340.229 248.76 351.095 245.844 363.579 240.767C373.849 236.591 385.761 228.739 396.718 231.24C411.173 234.538 428.681 247.525 443.429 236.133" stroke="var(--stroke-0, #00C899)" stroke-width="0.168988" stroke-miterlimit="10"/>
<path id="Vector_11" d="M0.0483026 44.0414C13.7593 51.9358 28.0118 58.4445 42.1683 65.4123C63.2485 75.7875 57.1244 90.6266 65.5285 108.308C72.2373 122.423 83.4987 136.11 87.9837 150.206C92.009 162.856 83.3858 187.134 100.333 193.867C122.279 202.586 146.414 181.85 158.828 166.671C165.974 157.933 174.247 146.285 186.525 144.833C202.022 142.999 217.733 158.135 229.051 165.661C245.993 176.929 267.208 177.527 287.319 182.367C301.495 185.778 303.085 195.441 303.431 208.371C303.85 224.008 314.316 239.24 329.022 243.195C341.321 246.503 352.268 243.757 364.81 239C374.962 235.149 386.864 227.802 397.57 230.652C411.73 234.421 428.794 247.279 443.427 236.134" stroke="var(--stroke-0, #00C899)" stroke-width="0.168988" stroke-miterlimit="10"/>
<path id="Vector_12" d="M0.0483026 44.0414C13.8925 51.8587 28.2653 58.2066 42.7138 64.7363C63.3661 74.0699 61.6722 87.8106 68.0336 105.651C73.4385 120.809 81.8778 134.367 88.8083 148.761C94.8155 161.238 85.5043 184.88 102.546 191.321C125.955 200.167 148.722 178.087 161.636 161.781C168.947 152.551 176.704 142.726 189.521 142.432C205.228 142.071 220.484 157.119 232.071 164.863C248.141 175.605 269.293 177.702 288.706 182.018C301.634 184.892 305.191 192.52 305.502 205.031C305.918 221.754 313.49 236.843 330.144 241.084C343.622 244.515 355.367 240.972 369.129 236.08C378.337 232.807 388.626 227.352 398.414 230.078C412.825 234.093 428.541 247.31 443.429 236.134" stroke="var(--stroke-0, #00C899)" stroke-width="0.168988" stroke-miterlimit="10"/>
<path id="Vector_13" d="M0.0483026 44.0414C14.0216 51.7783 29.2251 57.6976 43.243 64.0631C62.4272 72.7747 65.2581 83.9651 70.7137 102.928C75.3913 119.186 80.1237 132.806 89.2328 147.509C96.7325 159.614 88.131 182.992 104.828 189.049C129.477 197.99 151.276 173.38 164.418 156.788C171.931 147.301 179.577 139.676 192.733 140.659C208.632 141.847 223.133 156.064 235.132 164.053C250.463 174.26 271.299 177.866 290.027 181.71C303.046 184.382 307.263 191.222 307.484 204.086C307.771 220.735 314.433 234.852 331.307 238.991C344.756 242.289 356.596 238.974 370.38 234.473C379.49 231.498 389.718 226.476 399.244 229.519C413.268 234 428.702 247.025 443.427 236.134" stroke="var(--stroke-0, #00C899)" stroke-width="0.168988" stroke-miterlimit="10"/>
<path id="Vector_14" d="M0.0483026 44.0414C14.1473 51.6952 29.4252 57.455 43.7561 63.3918C62.19 71.0294 68.6082 81.1863 73.5453 100.091C78.0316 117.27 78.3547 131.062 89.3119 146.389C97.6491 158.053 91.2336 181.56 107.164 187.022C132.763 195.801 154.17 169.138 167.213 151.825C187.749 124.569 218.51 150.29 238.232 163.14C253.04 172.789 272.993 178.019 291.291 181.44C304.362 183.883 309.315 189.934 309.485 203.159C309.698 219.668 315.493 232.889 332.52 236.919C345.924 240.092 357.858 237.006 371.642 232.9C380.657 230.216 390.8 225.628 400.066 228.971C413.698 233.889 428.864 246.739 443.429 236.133" stroke="var(--stroke-0, #00C899)" stroke-width="0.168988" stroke-miterlimit="10"/>
<path id="Vector_15" d="M0.0483026 44.0414C14.269 51.61 29.6381 57.2096 44.2529 62.724C61.8554 69.3652 71.7162 78.6738 76.4911 97.109C81.0423 114.68 76.7723 129.493 89.1111 145.346C97.7525 156.447 94.6486 180.478 109.545 185.186C135.676 193.447 155.996 163.653 170.069 147.065C190.383 123.12 222.99 150.246 241.362 162.025C255.943 171.373 274.271 178.127 292.493 181.208C307.262 183.705 311.262 190.142 311.328 204.55C311.398 219.885 318.502 231.363 333.779 234.877C347.107 237.942 359.144 235.074 372.908 231.366C381.836 228.961 391.865 224.812 400.876 228.437C414.109 233.76 429.021 246.459 443.427 236.136" stroke="var(--stroke-0, #00C899)" stroke-width="0.168988" stroke-miterlimit="10"/>
<path id="Vector_16" d="M0.0483026 44.0414C14.388 51.5228 29.8605 56.9622 44.7349 62.0582C61.4992 67.8018 74.3578 76.3843 79.5099 93.9686C84.6539 111.525 75.5887 127.876 88.7171 144.317C93.9483 150.868 97.1131 156.582 99.5073 164.559C101.901 172.534 102.509 180.727 111.971 183.455C138.411 191.078 157.932 157.726 173.167 142.866C193.732 122.806 226.568 149.331 244.399 160.459C259.367 169.8 275.026 178.157 293.642 181.01C308.471 183.281 313.248 188.853 313.349 203.646C313.452 218.75 319.839 229.466 335.09 232.862C348.347 235.814 360.459 233.174 374.183 229.863C383.042 227.726 392.908 224.02 401.677 227.909C414.506 233.598 429.177 246.179 443.428 236.134" stroke="var(--stroke-0, #00C899)" stroke-width="0.168988" stroke-miterlimit="10"/>
<path id="Vector_17" d="M0.0483026 44.0414C14.5042 51.4342 30.091 56.7121 45.2019 61.3951C61.2788 66.3775 76.4614 74.2794 82.547 90.676C88.953 107.936 75.0358 126.189 88.2284 143.246C93.0837 149.523 98.0479 155.224 101.085 162.683C104.313 170.61 104.406 179.199 114.448 181.719C141.319 188.463 158.959 152.518 176.38 139.32C198.126 122.844 229.799 147.731 247.314 158.577C262.982 168.278 275.348 178.169 294.741 180.847C309.572 182.894 315.177 187.622 315.378 202.764C315.573 217.556 321.327 227.615 336.454 230.882C349.626 233.727 361.801 231.313 375.461 228.396C384.258 226.517 394.087 223.206 402.467 227.392C414.572 233.439 429.522 245.78 443.429 236.135" stroke="var(--stroke-0, #00C899)" stroke-width="0.168988" stroke-miterlimit="10"/>
<path id="Vector_18" d="M0.0483026 44.0414C14.6178 51.343 30.3276 56.4586 45.6548 60.734C61.3545 65.1135 77.7659 72.334 85.5414 87.2516C94.218 103.898 75.3596 124.445 87.7626 142.069C92.2719 148.477 98.3284 153.941 102.11 160.947C106.217 168.555 107.004 178.05 116.989 179.836C143.164 184.516 159.999 147.997 179.664 136.341C202.043 123.075 232.699 145.043 250.124 156.381C266.034 166.734 275.533 178.232 295.795 180.71C308.722 182.291 316.629 185.183 317.535 199.282C318.531 214.804 320.657 225.385 337.87 228.934C349.55 231.343 360.772 230.193 373.04 227.751C382.746 225.819 394.087 221.96 403.248 226.88C415.008 233.195 429.626 245.533 443.429 236.134" stroke="var(--stroke-0, #00C899)" stroke-width="0.168988" stroke-miterlimit="10"/>
<path id="Vector_19" d="M0.0483026 44.0414C14.7286 51.2511 30.5682 56.2038 46.0928 60.0756C61.8817 64.0137 78.4595 70.7705 88.4203 83.7367C99.9196 98.7056 76.6824 123.031 87.4503 140.731C91.6453 147.626 98.0094 152.741 102.651 159.33C107.536 166.264 110.026 176.738 119.606 177.573C145.471 179.827 161.126 142.948 183.019 133.905C206.06 124.386 235.139 141.677 252.557 154.012C267.862 164.85 275.577 178.286 296.809 180.603C309.658 182.006 318.344 184.176 319.518 198.444C320.76 213.544 322.318 223.624 339.337 227.024C350.949 229.344 362.172 228.355 374.349 226.24C384.002 224.564 395.069 221.215 404.018 226.376C415.439 232.963 429.728 245.289 443.429 236.136" stroke="var(--stroke-0, #00C899)" stroke-width="0.168988" stroke-miterlimit="10"/>
<path id="Vector_20" d="M0.0483026 44.0414C14.8375 51.1578 30.8116 55.9469 46.5173 59.4199C62.7983 63.0201 78.4068 69.7465 91.1039 80.1872C105.164 91.7501 79.8972 123.134 87.4409 139.167C91.335 147.444 98.8435 153.057 104.692 159.892C109.607 165.637 113.664 174.781 122.248 174.719C148.341 174.529 162.367 138.699 186.42 131.976C209.943 125.402 237.723 138.193 254.789 151.592C269.724 163.317 275.458 178.35 297.789 180.519C310.581 181.761 319.921 183.256 321.433 197.631C322.969 212.23 324.103 221.929 340.855 225.149C352.408 227.37 363.592 226.551 375.66 224.756C385.266 223.327 396.037 220.485 404.778 225.875C415.857 232.709 429.829 245.043 443.428 236.135" stroke="var(--stroke-0, #00C899)" stroke-width="0.168988" stroke-miterlimit="10"/>
<path id="Vector_21" d="M0.0483026 44.0414C14.9443 51.0625 31.0569 55.6887 46.929 58.7656C63.7365 62.0237 78.8184 69.5782 93.5028 76.6784C108.517 83.9381 84.9425 125.07 87.8985 137.316C90.3927 147.651 112.866 172.071 124.907 171.314C150.311 169.719 163.93 135.688 189.911 130.422C213.396 125.661 240.868 135.17 256.975 149.062C271.622 161.696 275.243 178.423 298.745 180.452C311.508 181.554 321.371 182.414 323.275 196.832C325.141 210.962 326.016 220.26 342.426 223.309C353.895 225.441 365.032 224.781 376.974 223.296C386.541 222.106 396.995 219.769 405.53 225.377C416.265 232.431 429.932 244.795 443.429 236.134" stroke="var(--stroke-0, #00C899)" stroke-width="0.168988" stroke-miterlimit="10"/>
<path id="Vector_22" d="M0.0483026 44.0414C15.0484 50.9665 31.303 55.4305 47.3285 58.114C64.0205 60.9084 79.0638 69.9905 95.5178 73.3033C112.821 76.7872 89.5525 126.214 89.1814 134.869C88.6623 146.982 113.837 169.132 127.344 167.366C138.909 165.853 148.206 155.874 156.909 148.567C167.889 139.348 179.178 131.656 193.319 128.94C216.364 124.514 243.913 132.331 259.226 146.385C265.842 152.457 268.844 164.566 275.473 171.55C281.766 178.182 290.969 179.746 299.683 180.402C314.606 181.525 323.025 182.593 325.156 198.6C326.859 211.395 330.036 218.941 344.044 221.506C355.372 223.58 366.485 223.044 378.284 221.859C387.819 220.902 397.936 219.071 406.27 224.884C416.661 232.132 430.03 244.548 443.428 236.136" stroke="var(--stroke-0, #00C899)" stroke-width="0.168988" stroke-miterlimit="10"/>
<path id="Vector_23" d="M0.0483026 44.0414C15.1511 50.8698 31.5484 55.1729 47.7158 57.4637C64.451 59.835 81.7662 69.5545 97.0448 70.1635C116.839 70.9537 94.2403 123.015 91.9136 130.878C87.0731 147.236 114.938 166.377 129.146 163.391C140.927 160.915 150.258 151.403 159.702 144.307C171.314 135.582 182.568 130.464 196.59 127.4C219.269 122.443 247.083 129.422 261.641 143.526C268.397 150.072 270.168 163.127 276.555 170.863C282.55 178.125 291.678 179.755 300.613 180.357C315.39 181.353 324.366 181.821 327.004 197.787C329.061 210.242 331.948 217.277 345.709 219.732C356.911 221.73 367.951 221.336 379.589 220.437C389.106 219.702 398.86 218.378 407.004 224.39C417.05 231.805 430.131 244.298 443.429 236.134" stroke="var(--stroke-0, #00C899)" stroke-width="0.168988" stroke-miterlimit="10"/>
<path id="Vector_24" d="M0.0483026 44.0414C15.2512 50.7725 31.7937 54.9174 48.0923 56.8155C64.8242 58.7649 81.4884 66.4208 98.2128 66.944C124.637 67.7707 99.5093 112.995 95.9078 125.465C92.4841 137.321 93.8469 144.727 104.44 152.471C111.881 157.91 121.397 161.954 130.595 159.525C142.661 156.339 152.351 147.226 162.632 140.431C174.53 132.567 186.189 129.2 199.681 125.707C221.835 119.972 248.758 126.476 264.288 140.474C268.389 144.171 271.414 149.789 273.303 155.448C274.74 160.328 276.249 165.184 277.829 170.019C283.488 177.99 292.248 179.75 301.545 180.317C316.086 181.204 325.619 181.232 328.809 196.981C331.252 209.047 333.803 215.762 347.424 217.994C364.549 220.801 392.929 212.371 407.728 223.897C417.429 231.453 430.229 244.046 443.429 236.133" stroke="var(--stroke-0, #00C899)" stroke-width="0.168988" stroke-miterlimit="10"/>
<path id="Vector_25" d="M0.0483026 44.0414C15.3498 50.6738 32.0384 54.6633 48.458 56.1693C65.2189 57.7064 82.0447 64.3051 98.9868 63.8731C106.94 63.6703 111.81 62.939 114.855 70.7827C119.367 82.403 104.528 108.534 100.988 118.806C96.7697 131.046 92.8498 141.279 104.642 150.141C112.314 155.907 122.689 158.504 131.927 155.753C144.353 152.052 154.617 143.308 165.77 136.89C177.654 130.052 189.807 127.801 202.576 123.79C223.927 117.085 254.132 123.535 267.217 137.228C274.956 145.325 274.382 157.735 279.441 168.899C283.585 178.043 293.384 179.77 302.49 180.276C316.729 181.068 326.825 180.836 330.567 196.181C333.417 207.868 335.62 214.323 349.158 216.346C366.304 218.91 393.872 211.465 408.443 223.405C417.84 231.106 430.242 243.739 443.429 236.134" stroke="var(--stroke-0, #00C899)" stroke-width="0.168988" stroke-miterlimit="10"/>
<path id="Vector_26" d="M0.0483026 44.0414C15.4465 50.5744 32.2825 54.4125 48.8142 55.5244C65.5961 56.6533 82.453 62.1569 99.4248 60.949C105.807 60.4947 114.632 58.5595 118.65 64.7397C125.144 74.7309 110.228 102.323 106.951 111.126C102.936 121.914 94.2673 136.37 103.954 146.261C111.249 153.711 123.927 155.013 133.337 152.046C146.172 147.998 157.135 139.614 169.134 133.629C180.791 127.815 193.282 126.153 205.269 121.606C225.848 113.8 257.876 120.687 270.454 133.798C277.78 141.433 278.086 152.309 280.689 163.998C283.458 176.433 291.125 179.541 303.459 180.227C317.463 181.005 328.001 180.553 332.275 195.386C335.539 206.713 337.454 213.017 350.876 214.798C367.992 217.069 394.847 210.607 409.15 222.913C418.187 230.689 430.332 243.48 443.428 236.134" stroke="var(--stroke-0, #00C899)" stroke-width="0.168988" stroke-miterlimit="10"/>
<path id="Vector_27" d="M0.0483026 44.0414C15.5418 50.4744 32.5258 54.1658 49.1623 54.8816C65.928 55.6028 82.6761 59.9391 99.5864 58.1688C105.305 57.5705 116.827 54.9647 121.663 59.4896C130.516 67.774 116.476 95.0163 113.568 102.706C109.636 113.101 97.5396 132.411 105.573 143.211C111.858 151.659 126.264 151.162 134.983 148.374C149.604 143.697 162.29 134.527 176.579 128.972C186.786 125.004 197.75 123.607 207.779 119.141C227.439 110.385 262.189 117.934 274.006 130.21C287.279 144.001 274.894 178.669 304.487 180.146C318.204 180.831 329.17 180.338 333.934 194.594C337.607 205.58 339.253 211.78 352.57 213.347C369.763 215.368 395.731 209.69 409.851 222.418C418.529 230.24 430.426 243.218 443.429 236.135" stroke="var(--stroke-0, #00C899)" stroke-width="0.168988" stroke-miterlimit="10"/>
<path id="Vector_28" d="M0.0483026 44.0414C15.6358 50.3744 32.7691 53.9238 49.5017 54.2394C66.2038 54.5544 82.7572 57.6794 99.5289 55.5224C105.802 54.7153 117.761 51.8344 123.614 55.4737C135.141 62.6409 123.733 85.2711 120.579 93.8847C116.817 104.156 101.825 128.283 107.956 139.726C113.009 149.156 128.963 147.242 136.979 144.697C151.992 139.932 165.421 131.326 180.339 126.284C190.353 122.899 200.621 121.124 210.134 116.407C228.676 107.212 264.929 115.183 277.847 126.506C293.95 140.621 273.756 178.517 305.678 179.949C318.906 180.543 330.311 180.154 335.538 193.802C339.621 204.461 340.981 210.603 354.223 211.993C371.624 213.819 396.502 208.689 410.541 221.92C418.872 229.771 430.518 242.952 443.428 236.135" stroke="var(--stroke-0, #00C899)" stroke-width="0.168988" stroke-miterlimit="10"/>
<path id="Vector_29" d="M0.0483026 44.0414C15.7291 50.2736 33.0132 53.6858 49.8349 53.5986C66.4282 53.5121 82.7342 55.3967 99.3147 52.9957C106.856 51.904 117.389 49.5058 124.82 52.2549C139.04 57.5158 131.069 75.1088 127.706 85.2846C124.19 95.9254 105.849 125.319 111.983 137.166C116.587 146.057 132.344 143.246 139.409 140.966C163.728 133.115 189.055 122.926 212.809 113.568C232.072 105.979 268.255 111.332 281.943 122.738C298.722 136.721 274.201 177.641 306.996 179.654C319.881 180.445 331.44 180.002 337.092 193.009C341.587 203.352 342.629 209.483 355.831 210.733C373.484 212.405 397.256 207.678 411.227 221.418C419.222 229.281 430.613 242.682 443.429 236.134" stroke="var(--stroke-0, #00C899)" stroke-width="0.168988" stroke-miterlimit="10"/>
<path id="Vector_30" d="M0.0483026 44.0414C15.821 50.1722 33.2579 53.4533 50.1621 52.9585C66.6154 52.4772 82.6423 53.0991 99.0037 50.571C107.348 49.2813 117.173 47.4637 125.547 49.4591C140.809 53.0957 137.901 65.3954 134.679 77.382C132.248 86.4276 128.15 95.872 124.471 105.037C121.994 111.208 114.245 124.612 116.466 131.762C119.751 142.34 134.03 139.669 142.309 137.125C167.086 129.509 191.588 118.781 216.521 110.941C226.219 107.892 235.688 107.938 245.692 109.105C258.458 110.594 276.714 110.529 286.224 118.975C304.393 135.112 274.806 176.578 308.444 179.258C318.602 180.067 331.484 179.571 337.779 189.165C344.612 199.579 341.206 208.243 357.381 209.568C374.986 211.01 398.316 206.868 411.905 220.914C419.509 228.774 430.71 242.408 443.429 236.136" stroke="var(--stroke-0, #00C899)" stroke-width="0.168988" stroke-miterlimit="10"/>
<path id="Vector_31" d="M0.0483026 44.0414C15.9122 50.0715 33.5336 53.2242 50.4845 52.3197C66.756 51.4511 82.5179 50.7914 98.6569 48.2262C107.392 46.8378 117.094 45.4243 125.895 47.0419C140.285 49.6869 143.373 57.8396 141.23 70.4779C139.791 78.9584 135.963 88.1446 132.451 96.8603C129.416 104.394 121.654 116.728 122.409 125.229C123.543 138.022 135.416 136.084 145.682 133.11C170.839 125.821 195.618 115.469 221.103 108.464C239.605 103.377 276.228 103.878 290.607 115.295C309.885 130.6 276.117 175.329 310.028 178.754C319.828 179.744 332.624 179.466 339.038 188.436C346.221 198.482 342.93 207.27 358.87 208.488C376.595 209.842 399.066 206.009 412.578 220.403C419.942 228.248 430.811 242.126 443.43 236.135" stroke="var(--stroke-0, #00C899)" stroke-width="0.168988" stroke-miterlimit="10"/>
<path id="Vector_32" d="M0.0483026 44.0414C16.0035 49.9708 33.8669 52.9937 50.8029 51.681C66.8486 50.4372 82.4064 48.4688 98.3359 45.9333C117.087 42.949 147.3 44.1292 147.091 64.8053C146.925 81.2032 132.349 99.7202 129.498 118.117C127.278 132.438 138.202 131.91 149.488 128.852C175.1 121.911 200.396 112.685 226.362 106.072C247.407 100.712 278.753 102.253 294.979 111.796C315.386 123.798 277.653 173.638 311.747 178.146C321.276 179.406 333.726 179.349 340.207 187.772C347.664 197.463 344.685 206.349 360.288 207.492C378.16 208.801 399.708 205.209 413.242 219.888C420.439 227.695 430.914 241.839 443.429 236.134" stroke="var(--stroke-0, #00C899)" stroke-width="0.168988" stroke-miterlimit="10"/>
<path id="Vector_33" d="M0.0482691 44.0372C16.0954 49.866 34.2069 52.7591 51.1185 51.0388C66.9676 49.4266 82.3374 46.1226 98.1047 43.6574C114.34 41.1185 148.39 40.8089 152.005 60.5278C154.822 75.8969 143.549 92.476 138.509 107.697C133.769 122.014 138.055 128.411 153.648 124.284C179.755 117.375 205.814 110.194 232.114 103.705C253.22 98.4981 281.883 99.7858 299.21 108.582C321.66 119.978 279.997 171.792 313.604 177.426C322.839 178.974 334.844 179.202 341.335 187.136C348.992 196.492 346.412 205.469 361.634 206.571C379.588 207.872 400.533 204.75 413.88 219.4C420.825 227.024 431.032 241.538 443.429 236.13" stroke="var(--stroke-0, #00C899)" stroke-width="0.168988" stroke-miterlimit="10"/>
<path id="Vector_34" d="M0.0471448 44.0399C16.1869 49.7686 34.5525 52.5299 51.4317 50.404C67.1361 48.4255 82.3559 43.756 98.0245 41.3733C116.925 38.4991 146.133 40.7852 155.752 57.8408C162.663 70.0945 151.328 87.9755 147.069 100.74C143.021 112.869 142.27 123.243 158.715 119.604C184.708 113.853 211.907 107.806 238.172 101.327C258.754 96.2498 283.888 97.501 302.991 105.758C329.401 117.175 282.688 169.53 315.597 176.605C324.548 178.529 335.988 179.026 342.439 186.525C350.219 195.57 348.092 204.633 362.905 205.728C380.879 207.057 401.327 204.391 414.5 218.947C421.224 226.377 431.166 241.231 443.427 236.132" stroke="var(--stroke-0, #00C899)" stroke-width="0.168988" stroke-miterlimit="10"/>
<path id="Vector_35" d="M0.0473439 44.0359C16.281 49.6645 34.9062 52.2913 51.7462 49.7619C67.3824 47.4129 82.5102 41.3442 98.1632 39.0257C119.842 35.8149 143.553 41.9424 158.645 56.472C171.175 68.5344 137.425 119.755 165.037 114.942C190.758 110.458 218.375 105.417 244.359 98.8847C264.334 93.8637 288.164 95.0466 306.468 103.054C332.794 114.57 287.827 168.6 317.731 175.672C326.139 177.66 337.174 178.798 343.535 185.916C351.364 194.675 349.719 203.823 364.104 204.942C382.021 206.336 402.115 204.12 415.108 218.512C421.635 225.742 431.321 240.909 443.428 236.129" stroke="var(--stroke-0, #00C899)" stroke-width="0.168988" stroke-miterlimit="10"/>
<path id="Vector_36" d="M0.0497631 44.0409C16.3794 49.5709 35.2669 52.0584 52.0643 49.1295C67.739 46.3966 82.8452 38.8963 98.5854 36.5879C120.687 33.3467 143.603 42.6498 160.742 55.4875C172.101 63.9964 168.049 76.8084 164.468 88.4598C161.715 97.4209 156.684 112.334 172.289 110.59C197.626 107.76 224.957 102.971 250.492 96.3664C270.165 91.2779 292.492 90.8371 309.793 100.419C334.683 114.205 292.856 166.302 320.001 174.644C329.479 177.556 339.58 179.131 346.331 187.554C352.934 195.794 352.412 203.189 365.231 204.222C383.114 205.663 402.83 203.908 415.706 218.105C422.006 225.052 431.607 240.767 443.431 236.135" stroke="var(--stroke-0, #00C899)" stroke-width="0.168988" stroke-miterlimit="10"/>
<path id="Vector_37" d="M0.0481145 44.0371C16.4771 49.4698 35.6282 51.8106 52.3804 48.4869C68.2355 45.3417 83.389 36.3881 99.351 33.9891C121.371 30.6796 145.984 42.9475 162.083 54.7206C173.026 62.7232 174.978 70.0181 172.492 84.0508C170.955 92.7321 165.385 107.082 180.151 106.714C205.3 106.088 231.431 100.322 256.386 93.7325C276.076 88.5331 296.16 87.3738 312.927 97.8504C336.551 112.611 297.734 164.016 322.397 173.504C331.272 176.918 340.92 178.838 347.46 186.848C354.036 194.902 353.811 202.424 366.282 203.538C384.027 205.123 403.528 203.721 416.29 217.703C422.443 224.443 431.785 240.444 443.429 236.129" stroke="var(--stroke-0, #00C899)" stroke-width="0.168988" stroke-miterlimit="10"/>
<path id="Vector_38" d="M0.0481193 44.0387C16.5799 49.3746 35.9946 51.5607 52.7015 47.8497C68.9236 44.2462 84.1616 33.873 100.531 31.2003C122.047 27.6874 146.259 43.3465 162.749 54.0596C173.281 60.9023 179.986 67.117 179.776 80.6773C179.641 89.5012 174.589 102.467 188.316 103.421C212.991 105.137 237.889 97.3341 261.87 90.9876C281.88 85.6915 298.673 83.8577 315.872 95.3833C339.754 111.387 301.405 160.685 324.92 172.272C333.174 176.338 342.317 178.494 348.597 186.142C355.079 194.037 355.167 201.68 367.266 202.896C384.85 204.665 404.22 203.56 416.869 217.318C422.876 223.854 431.987 240.119 443.428 236.131" stroke="var(--stroke-0, #00C899)" stroke-width="0.168988" stroke-miterlimit="10"/>
<path id="Vector_39" d="M0.0481241 44.0388C16.6874 49.2794 36.3353 51.285 53.0279 47.2104C69.7301 43.133 84.9667 31.5026 101.959 28.4621C123.28 24.647 146.167 43.2202 162.841 53.3879C172.766 59.4404 183.485 65.8707 186.049 78.2879C187.89 87.2058 183.763 98.6666 196.48 100.709C220.244 104.525 244.398 93.5476 266.767 88.1244C274.072 86.3534 281.603 85.6991 289.032 83.7868C301.082 80.6849 309.58 85.9492 318.635 93.0359C330.26 102.135 326.753 116.177 324.516 130.055C322.93 139.896 316.76 164.052 327.565 170.946C335.114 175.762 343.78 178.091 349.754 185.422C356.08 193.183 356.479 200.942 368.189 202.281C385.596 204.269 404.905 203.402 417.443 216.941C423.307 223.272 432.208 239.786 443.428 236.132" stroke="var(--stroke-0, #00C899)" stroke-width="0.168988" stroke-miterlimit="10"/>
<path id="Vector_40" d="M0.0469279 44.0348C16.7997 49.1821 36.6984 51.0099 53.36 46.5649C70.5103 41.9893 85.9044 29.1456 103.502 25.901C125.379 21.8676 145.15 42.2077 162.495 52.6106C172.649 58.7009 185.789 65.3138 191.043 76.7516C194.943 85.2402 192.99 95.71 204.342 98.4821C226.52 103.896 250.694 89.1674 270.903 85.1449C277.937 83.745 284.504 82.2335 291.574 80.107C303.404 76.5488 312.794 83.5449 320.917 90.8114C331.35 100.144 329.059 113.794 327.293 127.51C325.961 137.856 320.628 161.474 330.321 169.526C337.038 175.106 345.311 177.625 350.94 184.673C357.052 192.325 357.746 200.197 369.055 201.672C386.277 203.919 405.579 203.228 418.015 216.56C423.737 222.694 432.446 239.441 443.427 236.127" stroke="var(--stroke-0, #00C899)" stroke-width="0.168988" stroke-miterlimit="10"/>
<path id="Vector_41" d="M0.048197 44.0341C16.9213 49.0902 37.0627 50.7274 53.7026 45.922C71.2936 40.8422 86.9061 26.8432 105.155 23.5155C128.111 19.3294 144.142 40.7503 161.873 51.6656C173.65 58.9158 188.259 65.8396 196.187 77.8662C200.972 85.1246 202.154 93.7815 211.612 96.5711C232.395 102.701 255.483 85.2341 274.115 82.0767C280.978 80.9134 286.706 78.4123 293.416 76.2986C305.328 72.5458 315.638 81.2135 323.064 88.7477C332.208 98.0244 330.85 112.091 329.712 125.209C328.721 136.637 324.866 158.811 333.183 168.029C337.935 173.295 345.342 175.983 350.219 181.496C357.067 189.239 357.966 199.329 369.877 201.069C386.973 203.566 406.248 203.04 418.589 216.184C424.168 222.126 432.715 239.093 443.428 236.126" stroke="var(--stroke-0, #00C899)" stroke-width="0.168988" stroke-miterlimit="10"/>
<path id="Vector_42" d="M0.0472375 44.0369C17.0481 49.0031 37.4227 50.4368 54.0531 45.2813C72.0896 39.6898 87.9522 24.6073 106.905 21.2904C131.035 17.0677 143.571 38.876 161.165 50.4996C172.69 58.1142 186.607 64.6115 196.879 74.5034C203.773 81.1419 208.475 92.2891 217.999 94.7049C237.993 99.7773 256.986 82.629 276.479 78.9417C283.11 77.6878 288.398 74.208 294.632 72.4039C307.025 68.8166 318.142 78.7605 325.189 86.8294C342.45 106.596 321.818 144.683 336.138 166.463C339.835 172.086 347.043 175.252 351.579 180.705C357.999 188.424 359.256 198.546 370.661 200.458C387.562 203.292 406.902 202.825 419.162 215.808C424.602 221.568 432.99 238.748 443.426 236.13" stroke="var(--stroke-0, #00C899)" stroke-width="0.168988" stroke-miterlimit="10"/>
<path id="Vector_43" d="M0.0483078 44.0352C17.1871 48.9142 37.7509 50.114 54.4165 44.6334C72.9586 38.5356 89.007 22.4277 108.744 19.198C133.802 15.0976 143.661 36.2225 160.593 49.0697C171.969 57.7016 186.002 64.0454 197.704 73.0133C205.739 79.1719 213.513 90.8496 223.226 92.5125C241.925 95.7144 259.931 80.175 277.943 75.5116C284.196 73.8927 290.98 69.0995 297.408 67.8855C309.32 65.6359 321.427 77.2914 327.395 85.033C342.373 104.466 328.726 142.524 339.181 164.827C341.938 170.706 348.796 174.439 353.011 179.856C358.983 187.534 360.541 197.54 371.423 199.815C388.383 203.359 407.315 202.317 419.743 215.42C425.045 221.01 433.277 238.399 443.429 236.127" stroke="var(--stroke-0, #00C899)" stroke-width="0.168988" stroke-miterlimit="10"/>
<path id="Vector_44" d="M0.0487691 44.0333C17.3349 48.8272 38.1036 49.7931 54.7928 43.984C73.8303 37.3576 90.114 20.3412 110.654 17.221C135.844 13.3944 145.082 33.1363 160.406 47.3651C171.427 57.599 187.096 64.297 200.155 73.1243C208.345 78.6604 217.106 88.4123 227.057 89.5709C244.475 91.5995 262.468 77.4869 278.61 71.8143C284.742 69.6587 292.094 65.3103 298.614 64.4376C311.487 62.714 323.631 74.6317 329.748 83.3508C336.814 93.4225 334.069 110.604 335.07 123.328C336.118 136.654 338.45 151.258 342.295 163.134C344.271 169.236 350.605 173.515 354.512 178.955C360.006 186.607 361.788 196.655 372.172 199.129C389.014 203.142 407.939 201.998 420.328 215.024C425.497 220.458 433.568 238.052 443.43 236.126" stroke="var(--stroke-0, #00C899)" stroke-width="0.168988" stroke-miterlimit="10"/>
<path id="Vector_45" d="M0.0464269 44.0358C17.4921 48.7465 38.4493 49.4616 55.1805 43.3362C74.7493 36.1717 91.2243 18.3644 112.618 15.3369C137.007 11.8854 147.939 29.4832 160.877 45.3931C169.897 56.4848 186.219 63.3288 199.19 71.1138C208.327 76.5971 218.278 85.1641 229.203 86.1672C244.988 87.6165 264.66 73.823 278.771 67.9929C301.031 58.7966 318.933 60.8535 332.295 81.7742C338.918 92.1426 334.614 109.137 336.323 121.889C338.128 135.359 342.925 148.899 345.462 161.401C346.738 167.692 352.462 172.475 356.079 178.002C361.071 185.633 363.016 195.714 372.919 198.39C389.634 202.907 408.567 201.649 420.916 214.621C426.625 220.618 433.24 236.682 443.426 236.129" stroke="var(--stroke-0, #00C899)" stroke-width="0.168988" stroke-miterlimit="10"/>
<path id="Vector_46" d="M0.0476028 44.034C18.2544 48.8198 38.708 48.5879 55.5879 42.6808C75.3866 35.7523 92.353 16.443 114.621 13.506C138.256 10.3892 151.425 24.5774 162.324 43.1654C169.343 55.1379 185.41 62.082 197.461 68.7948C207.339 74.2971 218.075 81.7062 229.567 82.5836C237.84 83.2156 244.452 79.5668 251.634 75.964C260.575 71.4784 269.761 67.7836 278.698 64.1504C301.295 54.9655 322.411 59.1659 335.075 80.2793C341.532 91.0425 335.021 107.631 337.316 120.665C339.662 133.989 347.209 146.661 348.679 159.627C349.418 166.15 354.385 171.313 357.725 176.987C362.147 184.501 364.394 194.741 373.691 197.569C390.17 202.583 409.204 201.209 421.518 214.198C427.133 220.12 433.509 236.284 443.428 236.125" stroke="var(--stroke-0, #00C899)" stroke-width="0.168988" stroke-miterlimit="10"/>
<path id="Vector_47" d="M0.0474551 44.037C18.4557 48.745 39.0398 48.2184 56.0129 42.028C76.4064 34.5905 93.5472 14.6026 116.638 11.7062C140.102 8.76306 156.13 21.0201 164.717 40.7072C172.4 58.3212 209.332 77.8055 228.586 78.8708C236.986 79.3359 243.582 75.41 250.899 71.8321C260.019 67.3729 269.382 63.57 278.603 60.3883C301.899 52.3519 325.669 57.0518 338.086 78.8695C344.547 90.2221 335.44 106.245 338.093 119.65C340.721 132.927 351.13 144.27 351.924 157.839C352.51 167.869 364.596 193.385 374.5 196.663C390.721 202.034 409.894 200.812 422.128 213.766C427.647 219.61 433.791 235.904 443.428 236.13" stroke="var(--stroke-0, #00C899)" stroke-width="0.168988" stroke-miterlimit="10"/>
<path id="Vector_48" d="M0.049075 44.0363C18.6702 48.668 39.3821 47.8352 56.46 41.3677C77.4544 33.4171 94.7933 12.8445 118.65 9.88788C140.903 7.13 158.901 16.6697 167.37 37.9913C175.507 58.476 205.117 74.3454 226.691 75.0267C243.513 75.558 262.836 61.0818 278.674 56.7551C302.872 50.1436 328.978 55.3139 341.311 77.5196C347.961 89.4921 335.973 105.006 338.72 118.799C341.392 132.22 354.831 142.599 355.181 156.037C355.439 165.923 365.204 191.943 375.364 195.64C391.407 201.478 410.656 200.423 422.751 213.312C428.179 219.096 434.071 235.521 443.43 236.13" stroke="var(--stroke-0, #00C899)" stroke-width="0.168988" stroke-miterlimit="10"/>
<path id="Vector_49" d="M0.0474897 44.0398C18.8951 48.5964 39.7104 47.4365 56.9255 40.708C78.5465 32.2566 95.9374 11.3494 120.624 8.01963C142.48 5.07112 162.101 13.2515 170.222 34.9983C178.233 56.4523 201.17 70.844 224.271 71.0752C242.429 71.257 261.273 56.8565 279.05 53.2956C304.392 48.2192 332.165 54.0824 344.704 76.2273C351.794 88.748 336.684 103.889 339.268 118.084C341.75 131.719 358.165 141.435 358.429 154.242C358.632 164.123 365.842 190.037 376.303 194.487C391.648 201.015 411.544 200.109 423.382 212.839C428.731 218.59 434.339 235.138 443.429 236.131" stroke="var(--stroke-0, #00C899)" stroke-width="0.168988" stroke-miterlimit="10"/>
<path id="Vector_50" d="M0.0481414 44.0375C19.0512 48.5481 40.1416 47.084 57.4169 40.0385C79.5969 30.9923 97.046 10.1743 122.536 6.04487C143.938 2.57791 165.544 9.99379 173.236 31.7088C176.511 40.9558 178.248 48.5664 186.261 54.823C195.49 62.0293 210.16 67.1672 221.696 67.0259C241.19 66.7866 260.373 52.4544 279.845 50.0129C304.465 46.9265 335.509 51.4919 348.21 74.9751C355.807 89.0228 337.625 102.916 339.835 117.452C341.936 131.275 361.095 140.118 361.523 152.543C361.87 162.611 366.678 188.037 377.343 193.177C391.891 200.189 412.443 199.734 424.029 212.342C429.307 218.086 434.596 234.752 443.429 236.13" stroke="var(--stroke-0, #00C899)" stroke-width="0.168988" stroke-miterlimit="10"/>
<path id="Vector_51" d="M0.0463363 44.0363C19.3042 48.4779 40.5785 46.6887 57.9322 39.3654C80.559 29.8169 98.4299 9.06112 124.352 3.92117C145.061 -0.184563 168.897 6.6865 176.362 28.1419C179.554 37.3153 180.728 46.5116 188.433 53.0528C196.185 59.6352 209.456 63.2245 219.298 62.9075C240.134 62.237 259.893 48.3387 281.125 46.8962C306.669 45.1604 338.003 50.6214 351.734 73.7579C360.457 88.4585 338.839 102.148 340.522 116.849C342.134 130.928 363.664 138.745 364.472 150.923C365.144 161.053 367.327 185.84 378.552 191.695C392.967 199.213 413.326 199.273 424.687 211.821C429.907 217.586 434.838 234.361 443.427 236.128" stroke="var(--stroke-0, #00C899)" stroke-width="0.168988" stroke-miterlimit="10"/>
<path id="Vector_52" d="M0.0466286 44.0362C19.5735 48.4103 41.0594 46.2912 58.4773 38.6894C81.4665 28.6562 99.8477 7.9268 126.042 1.59718C146.047 -3.23656 172.033 3.2972 179.559 24.3335C186.76 44.4627 191.833 60.1259 217.387 58.7503C239.511 57.56 260.255 44.3032 282.928 43.9078C308.9 43.4549 339.889 49.3708 355.156 72.5621C365.29 87.9562 340.929 101.557 341.762 116.071C342.609 130.812 365.892 137.299 367.291 149.375C368.471 159.555 368.143 183.879 379.82 190.172C393.882 197.75 414.378 198.929 425.361 211.278C430.534 217.096 435.067 233.967 443.427 236.128" stroke="var(--stroke-0, #00C899)" stroke-width="0.168988" stroke-miterlimit="10"/>
</g>
</svg>
