<svg preserveAspectRatio="none" width="100%" height="100%" overflow="visible" style="display: block;" viewBox="0 0 15.7308 15.7308" fill="none" xmlns="http://www.w3.org/2000/svg">
<g id="Expert Team">
<path id="Vector" d="M14.2192 8.8445C14.0685 8.72835 13.8957 8.64409 13.7114 8.59685C13.5271 8.54961 13.3351 8.54038 13.1471 8.56971C14.229 7.47746 14.7763 6.39155 14.7763 5.32696C14.7763 3.80208 13.5498 2.56179 12.0422 2.56179C11.6422 2.55927 11.2464 2.64435 10.8828 2.81105C10.5191 2.97774 10.1964 3.22202 9.9372 3.52672C9.678 3.22202 9.35525 2.97774 8.99161 2.81105C8.62796 2.64435 8.23223 2.55927 7.83221 2.56179C6.32461 2.56179 5.09814 3.80208 5.09814 5.32696C5.09814 5.96065 5.28479 6.57648 5.67768 7.22802C5.3559 7.30954 5.06225 7.47678 4.82796 7.71193L3.52487 9.01386H1.87211C1.62765 9.01386 1.3932 9.11097 1.22035 9.28383C1.04749 9.45669 0.95038 9.69113 0.95038 9.93559L0.95038 12.2399C0.95038 12.4844 1.04749 12.7188 1.22035 12.8917C1.3932 13.0645 1.62765 13.1616 1.87211 13.1616H7.86332C7.901 13.1616 7.93853 13.157 7.97508 13.1478L11.662 12.2261C11.6855 12.2205 11.7084 12.2128 11.7305 12.203L13.9697 11.2502L13.9951 11.2387C14.2103 11.1311 14.3946 10.9706 14.5306 10.7721C14.6666 10.5737 14.7498 10.3439 14.7725 10.1044C14.7951 9.86489 14.7564 9.62355 14.66 9.40314C14.5636 9.18272 14.4127 8.99047 14.2215 8.8445H14.2192ZM13.5913 10.4085L11.4022 11.3406L7.80571 12.2399H4.17642V9.66541L5.48008 8.36232C5.56536 8.27636 5.66688 8.2082 5.77873 8.16182C5.89058 8.11544 6.01054 8.09175 6.13163 8.09214H9.01547C9.19882 8.09214 9.37465 8.16497 9.50429 8.29461C9.63393 8.42426 9.70677 8.60009 9.70677 8.78343C9.70677 8.96677 9.63393 9.14261 9.50429 9.27225C9.37465 9.40189 9.19882 9.47473 9.01547 9.47473H7.40246C7.28023 9.47473 7.163 9.52328 7.07658 9.60971C6.99015 9.69614 6.94159 9.81336 6.94159 9.93559C6.94159 10.0578 6.99015 10.175 7.07658 10.2615C7.163 10.3479 7.28023 10.3964 7.40246 10.3964H9.2459C9.28059 10.3964 9.31517 10.3925 9.34902 10.3849L13.2087 9.49719L13.2266 9.49258C13.3444 9.45987 13.4702 9.47189 13.5797 9.52633C13.6892 9.58077 13.7747 9.67378 13.8197 9.78746C13.8648 9.90114 13.8662 10.0275 13.8237 10.1421C13.7812 10.2568 13.6978 10.3517 13.5895 10.4085H13.5913Z" fill="var(--fill-0, #022449)"/>
</g>
</svg>
